<?xml version="1.0" encoding="utf-8" standalone="no"?>
<!DOCTYPE svg PUBLIC "-//W3C//DTD SVG 1.1//EN"
  "http://www.w3.org/Graphics/SVG/1.1/DTD/svg11.dtd">
<svg xmlns:xlink="http://www.w3.org/1999/xlink" width="109.414219pt" height="87.794531pt" viewBox="0 0 109.414219 87.794531" xmlns="http://www.w3.org/2000/svg" version="1.1">
 <metadata>
  <rdf:RDF xmlns:dc="http://purl.org/dc/elements/1.1/" xmlns:cc="http://creativecommons.org/ns#" xmlns:rdf="http://www.w3.org/1999/02/22-rdf-syntax-ns#">
   <cc:Work>
    <dc:type rdf:resource="http://purl.org/dc/dcmitype/StillImage"/>
    <dc:date>2026-03-21T21:15:17.548599</dc:date>
    <dc:format>image/svg+xml</dc:format>
    <dc:creator>
     <cc:Agent>
      <dc:title>Matplotlib v3.9.4, https://matplotlib.org/</dc:title>
     </cc:Agent>
    </dc:creator>
   </cc:Work>
  </rdf:RDF>
 </metadata>
 <defs>
  <style type="text/css">*{stroke-linejoin: round; stroke-linecap: butt}</style>
 </defs>
 <g id="figure_1">
  <g id="patch_1">
   <path d="M 0 87.794531 
L 109.414219 87.794531 
L 109.414219 0 
L 0 0 
z
" style="fill: #ffffff"/>
  </g>
  <g id="axes_1">
   <g id="patch_2">
    <path d="M 25.544375 68.607344 
L 97.209375 68.607344 
L 97.209375 9.347344 
L 25.544375 9.347344 
z
" style="fill: #ffffff"/>
   </g>
   <g id="matplotlib.axis_1">
    <g id="xtick_1">
     <g id="line2d_1">
      <defs>
       <path id="m8fe016ec29" d="M 0 0 
L 0 3 
" style="stroke: #000000; stroke-width: 0.5"/>
      </defs>
      <g>
       <use xlink:href="#m8fe016ec29" x="25.544375" y="68.607344" style="stroke: #000000; stroke-width: 0.5"/>
      </g>
     </g>
     <g id="text_1">
      <!-- 1 -->
      <g transform="translate(23.876094 79.402031) scale(0.06 -0.06)">
       <defs>
        <path id="ArialMT-31" d="M 2384 0 
L 1822 0 
L 1822 3584 
Q 1619 3391 1289 3197 
Q 959 3003 697 2906 
L 697 3450 
Q 1169 3672 1522 3987 
Q 1875 4303 2022 4600 
L 2384 4600 
L 2384 0 
z
" transform="scale(0.015625)"/>
       </defs>
       <use xlink:href="#ArialMT-31"/>
      </g>
     </g>
    </g>
    <g id="xtick_2">
     <g id="line2d_2">
      <g>
       <use xlink:href="#m8fe016ec29" x="43.008955" y="68.607344" style="stroke: #000000; stroke-width: 0.5"/>
      </g>
     </g>
     <g id="text_2">
      <!-- 30 -->
      <g transform="translate(39.672392 79.402031) scale(0.06 -0.06)">
       <defs>
        <path id="ArialMT-33" d="M 269 1209 
L 831 1284 
Q 928 806 1161 595 
Q 1394 384 1728 384 
Q 2125 384 2398 659 
Q 2672 934 2672 1341 
Q 2672 1728 2419 1979 
Q 2166 2231 1775 2231 
Q 1616 2231 1378 2169 
L 1441 2663 
Q 1497 2656 1531 2656 
Q 1891 2656 2178 2843 
Q 2466 3031 2466 3422 
Q 2466 3731 2256 3934 
Q 2047 4138 1716 4138 
Q 1388 4138 1169 3931 
Q 950 3725 888 3313 
L 325 3413 
Q 428 3978 793 4289 
Q 1159 4600 1703 4600 
Q 2078 4600 2393 4439 
Q 2709 4278 2876 4000 
Q 3044 3722 3044 3409 
Q 3044 3113 2884 2869 
Q 2725 2625 2413 2481 
Q 2819 2388 3044 2092 
Q 3269 1797 3269 1353 
Q 3269 753 2831 336 
Q 2394 -81 1725 -81 
Q 1122 -81 723 278 
Q 325 638 269 1209 
z
" transform="scale(0.015625)"/>
        <path id="ArialMT-30" d="M 266 2259 
Q 266 3072 433 3567 
Q 600 4063 929 4331 
Q 1259 4600 1759 4600 
Q 2128 4600 2406 4451 
Q 2684 4303 2865 4023 
Q 3047 3744 3150 3342 
Q 3253 2941 3253 2259 
Q 3253 1453 3087 958 
Q 2922 463 2592 192 
Q 2263 -78 1759 -78 
Q 1097 -78 719 397 
Q 266 969 266 2259 
z
M 844 2259 
Q 844 1131 1108 757 
Q 1372 384 1759 384 
Q 2147 384 2411 759 
Q 2675 1134 2675 2259 
Q 2675 3391 2411 3762 
Q 2147 4134 1753 4134 
Q 1366 4134 1134 3806 
Q 844 3388 844 2259 
z
" transform="scale(0.015625)"/>
       </defs>
       <use xlink:href="#ArialMT-33"/>
       <use xlink:href="#ArialMT-30" x="55.615234"/>
      </g>
     </g>
    </g>
    <g id="xtick_3">
     <g id="line2d_3">
      <g>
       <use xlink:href="#m8fe016ec29" x="61.075762" y="68.607344" style="stroke: #000000; stroke-width: 0.5"/>
      </g>
     </g>
     <g id="text_3">
      <!-- 60 -->
      <g transform="translate(57.739199 79.402031) scale(0.06 -0.06)">
       <defs>
        <path id="ArialMT-36" d="M 3184 3459 
L 2625 3416 
Q 2550 3747 2413 3897 
Q 2184 4138 1850 4138 
Q 1581 4138 1378 3988 
Q 1113 3794 959 3422 
Q 806 3050 800 2363 
Q 1003 2672 1297 2822 
Q 1591 2972 1913 2972 
Q 2475 2972 2870 2558 
Q 3266 2144 3266 1488 
Q 3266 1056 3080 686 
Q 2894 316 2569 119 
Q 2244 -78 1831 -78 
Q 1128 -78 684 439 
Q 241 956 241 2144 
Q 241 3472 731 4075 
Q 1159 4600 1884 4600 
Q 2425 4600 2770 4297 
Q 3116 3994 3184 3459 
z
M 888 1484 
Q 888 1194 1011 928 
Q 1134 663 1356 523 
Q 1578 384 1822 384 
Q 2178 384 2434 671 
Q 2691 959 2691 1453 
Q 2691 1928 2437 2201 
Q 2184 2475 1800 2475 
Q 1419 2475 1153 2201 
Q 888 1928 888 1484 
z
" transform="scale(0.015625)"/>
       </defs>
       <use xlink:href="#ArialMT-36"/>
       <use xlink:href="#ArialMT-30" x="55.615234"/>
      </g>
     </g>
    </g>
    <g id="xtick_4">
     <g id="line2d_4">
      <g>
       <use xlink:href="#m8fe016ec29" x="79.142568" y="68.607344" style="stroke: #000000; stroke-width: 0.5"/>
      </g>
     </g>
     <g id="text_4">
      <!-- 90 -->
      <g transform="translate(75.806006 79.402031) scale(0.06 -0.06)">
       <defs>
        <path id="ArialMT-39" d="M 350 1059 
L 891 1109 
Q 959 728 1153 556 
Q 1347 384 1650 384 
Q 1909 384 2104 503 
Q 2300 622 2425 820 
Q 2550 1019 2634 1356 
Q 2719 1694 2719 2044 
Q 2719 2081 2716 2156 
Q 2547 1888 2255 1720 
Q 1963 1553 1622 1553 
Q 1053 1553 659 1965 
Q 266 2378 266 3053 
Q 266 3750 677 4175 
Q 1088 4600 1706 4600 
Q 2153 4600 2523 4359 
Q 2894 4119 3086 3673 
Q 3278 3228 3278 2384 
Q 3278 1506 3087 986 
Q 2897 466 2520 194 
Q 2144 -78 1638 -78 
Q 1100 -78 759 220 
Q 419 519 350 1059 
z
M 2653 3081 
Q 2653 3566 2395 3850 
Q 2138 4134 1775 4134 
Q 1400 4134 1122 3828 
Q 844 3522 844 3034 
Q 844 2597 1108 2323 
Q 1372 2050 1759 2050 
Q 2150 2050 2401 2323 
Q 2653 2597 2653 3081 
z
" transform="scale(0.015625)"/>
       </defs>
       <use xlink:href="#ArialMT-39"/>
       <use xlink:href="#ArialMT-30" x="55.615234"/>
      </g>
     </g>
    </g>
    <g id="xtick_5">
     <g id="line2d_5">
      <g>
       <use xlink:href="#m8fe016ec29" x="97.209375" y="68.607344" style="stroke: #000000; stroke-width: 0.5"/>
      </g>
     </g>
     <g id="text_5">
      <!-- 120 -->
      <g transform="translate(92.204531 79.402031) scale(0.06 -0.06)">
       <defs>
        <path id="ArialMT-32" d="M 3222 541 
L 3222 0 
L 194 0 
Q 188 203 259 391 
Q 375 700 629 1000 
Q 884 1300 1366 1694 
Q 2113 2306 2375 2664 
Q 2638 3022 2638 3341 
Q 2638 3675 2398 3904 
Q 2159 4134 1775 4134 
Q 1369 4134 1125 3890 
Q 881 3647 878 3216 
L 300 3275 
Q 359 3922 746 4261 
Q 1134 4600 1788 4600 
Q 2447 4600 2831 4234 
Q 3216 3869 3216 3328 
Q 3216 3053 3103 2787 
Q 2991 2522 2730 2228 
Q 2469 1934 1863 1422 
Q 1356 997 1212 845 
Q 1069 694 975 541 
L 3222 541 
z
" transform="scale(0.015625)"/>
       </defs>
       <use xlink:href="#ArialMT-31"/>
       <use xlink:href="#ArialMT-32" x="55.615234"/>
       <use xlink:href="#ArialMT-30" x="111.230469"/>
      </g>
     </g>
    </g>
   </g>
   <g id="matplotlib.axis_2">
    <g id="ytick_1">
     <g id="line2d_6">
      <defs>
       <path id="md9a9d24cca" d="M 0 0 
L -3 0 
" style="stroke: #000000; stroke-width: 0.5"/>
      </defs>
      <g>
       <use xlink:href="#md9a9d24cca" x="25.544375" y="68.607344" style="stroke: #000000; stroke-width: 0.5"/>
      </g>
     </g>
     <g id="text_6">
      <!-- −1.0 -->
      <g transform="translate(7.2 70.754687) scale(0.06 -0.06)">
       <defs>
        <path id="ArialMT-2212" d="M 3381 1997 
L 356 1997 
L 356 2522 
L 3381 2522 
L 3381 1997 
z
" transform="scale(0.015625)"/>
        <path id="ArialMT-2e" d="M 581 0 
L 581 641 
L 1222 641 
L 1222 0 
L 581 0 
z
" transform="scale(0.015625)"/>
       </defs>
       <use xlink:href="#ArialMT-2212"/>
       <use xlink:href="#ArialMT-31" x="58.398438"/>
       <use xlink:href="#ArialMT-2e" x="114.013672"/>
       <use xlink:href="#ArialMT-30" x="141.796875"/>
      </g>
     </g>
    </g>
    <g id="ytick_2">
     <g id="line2d_7">
      <g>
       <use xlink:href="#md9a9d24cca" x="25.544375" y="38.977344" style="stroke: #000000; stroke-width: 0.5"/>
      </g>
     </g>
     <g id="text_7">
      <!-- −0.5 -->
      <g transform="translate(7.2 41.124687) scale(0.06 -0.06)">
       <defs>
        <path id="ArialMT-35" d="M 266 1200 
L 856 1250 
Q 922 819 1161 601 
Q 1400 384 1738 384 
Q 2144 384 2425 690 
Q 2706 997 2706 1503 
Q 2706 1984 2436 2262 
Q 2166 2541 1728 2541 
Q 1456 2541 1237 2417 
Q 1019 2294 894 2097 
L 366 2166 
L 809 4519 
L 3088 4519 
L 3088 3981 
L 1259 3981 
L 1013 2750 
Q 1425 3038 1878 3038 
Q 2478 3038 2890 2622 
Q 3303 2206 3303 1553 
Q 3303 931 2941 478 
Q 2500 -78 1738 -78 
Q 1113 -78 717 272 
Q 322 622 266 1200 
z
" transform="scale(0.015625)"/>
       </defs>
       <use xlink:href="#ArialMT-2212"/>
       <use xlink:href="#ArialMT-30" x="58.398438"/>
       <use xlink:href="#ArialMT-2e" x="114.013672"/>
       <use xlink:href="#ArialMT-35" x="141.796875"/>
      </g>
     </g>
    </g>
    <g id="ytick_3">
     <g id="line2d_8">
      <g>
       <use xlink:href="#md9a9d24cca" x="25.544375" y="9.347344" style="stroke: #000000; stroke-width: 0.5"/>
      </g>
     </g>
     <g id="text_8">
      <!-- 0.0 -->
      <g transform="translate(10.704375 11.494687) scale(0.06 -0.06)">
       <use xlink:href="#ArialMT-30"/>
       <use xlink:href="#ArialMT-2e" x="55.615234"/>
       <use xlink:href="#ArialMT-30" x="83.398438"/>
      </g>
     </g>
    </g>
   </g>
   <g id="PathCollection_1">
    <defs>
     <path id="C0_0_114adcf721" d="M 0 1.581139 
C 0.419323 1.581139 0.821528 1.41454 1.118034 1.118034 
C 1.41454 0.821528 1.581139 0.419323 1.581139 -0 
C 1.581139 -0.419323 1.41454 -0.821528 1.118034 -1.118034 
C 0.821528 -1.41454 0.419323 -1.581139 0 -1.581139 
C -0.419323 -1.581139 -0.821528 -1.41454 -1.118034 -1.118034 
C -1.41454 -0.821528 -1.581139 -0.419323 -1.581139 0 
C -1.581139 0.419323 -1.41454 0.821528 -1.118034 1.118034 
C -0.821528 1.41454 -0.419323 1.581139 0 1.581139 
z
"/>
    </defs>
    <g clip-path="url(#p9b060ed29b)">
     <use xlink:href="#C0_0_114adcf721" x="25.544375" y="54.781986" style="fill: #c2c3df; stroke: #d9d9d9; stroke-width: 0.3"/>
    </g>
    <g clip-path="url(#p9b060ed29b)">
     <use xlink:href="#C0_0_114adcf721" x="26.146602" y="53.004186" style="fill: #c1c2df; stroke: #d9d9d9; stroke-width: 0.3"/>
    </g>
    <g clip-path="url(#p9b060ed29b)">
     <use xlink:href="#C0_0_114adcf721" x="26.748829" y="52.944926" style="fill: #c0c1de; stroke: #d9d9d9; stroke-width: 0.3"/>
    </g>
    <g clip-path="url(#p9b060ed29b)">
     <use xlink:href="#C0_0_114adcf721" x="27.351056" y="32.381706" style="fill: #bfc0de; stroke: #d9d9d9; stroke-width: 0.3"/>
    </g>
    <g clip-path="url(#p9b060ed29b)">
     <use xlink:href="#C0_0_114adcf721" x="27.953283" y="31.670586" style="fill: #bebedd; stroke: #d9d9d9; stroke-width: 0.3"/>
    </g>
    <g clip-path="url(#p9b060ed29b)">
     <use xlink:href="#C0_0_114adcf721" x="28.555509" y="29.300186" style="fill: #bdbedc; stroke: #d9d9d9; stroke-width: 0.3"/>
    </g>
    <g clip-path="url(#p9b060ed29b)">
     <use xlink:href="#C0_0_114adcf721" x="29.157736" y="47.730046" style="fill: #bcbddc; stroke: #d9d9d9; stroke-width: 0.3"/>
    </g>
    <g clip-path="url(#p9b060ed29b)">
     <use xlink:href="#C0_0_114adcf721" x="29.759963" y="38.248446" style="fill: #bbbbdb; stroke: #d9d9d9; stroke-width: 0.3"/>
    </g>
    <g clip-path="url(#p9b060ed29b)">
     <use xlink:href="#C0_0_114adcf721" x="30.36219" y="45.892986" style="fill: #babadb; stroke: #d9d9d9; stroke-width: 0.3"/>
    </g>
    <g clip-path="url(#p9b060ed29b)">
     <use xlink:href="#C0_0_114adcf721" x="30.964417" y="39.966986" style="fill: #b9b9da; stroke: #d9d9d9; stroke-width: 0.3"/>
    </g>
    <g clip-path="url(#p9b060ed29b)">
     <use xlink:href="#C0_0_114adcf721" x="31.566644" y="55.315326" style="fill: #b8b8d9; stroke: #d9d9d9; stroke-width: 0.3"/>
    </g>
    <g clip-path="url(#p9b060ed29b)">
     <use xlink:href="#C0_0_114adcf721" x="32.168871" y="28.826106" style="fill: #b7b7d9; stroke: #d9d9d9; stroke-width: 0.3"/>
    </g>
    <g clip-path="url(#p9b060ed29b)">
     <use xlink:href="#C0_0_114adcf721" x="32.771098" y="32.678006" style="fill: #b6b6d8; stroke: #d9d9d9; stroke-width: 0.3"/>
    </g>
    <g clip-path="url(#p9b060ed29b)">
     <use xlink:href="#C0_0_114adcf721" x="33.975551" y="28.114986" style="fill: #b5b5d7; stroke: #d9d9d9; stroke-width: 0.3"/>
    </g>
    <g clip-path="url(#p9b060ed29b)">
     <use xlink:href="#C0_0_114adcf721" x="34.577778" y="18.337086" style="fill: #b3b3d6; stroke: #d9d9d9; stroke-width: 0.3"/>
    </g>
    <g clip-path="url(#p9b060ed29b)">
     <use xlink:href="#C0_0_114adcf721" x="35.180005" y="27.877946" style="fill: #b2b2d5; stroke: #d9d9d9; stroke-width: 0.3"/>
    </g>
    <g clip-path="url(#p9b060ed29b)">
     <use xlink:href="#C0_0_114adcf721" x="35.782232" y="31.848366" style="fill: #b1b1d5; stroke: #d9d9d9; stroke-width: 0.3"/>
    </g>
    <g clip-path="url(#p9b060ed29b)">
     <use xlink:href="#C0_0_114adcf721" x="36.384459" y="51.404166" style="fill: #b0afd4; stroke: #d9d9d9; stroke-width: 0.3"/>
    </g>
    <g clip-path="url(#p9b060ed29b)">
     <use xlink:href="#C0_0_114adcf721" x="36.986686" y="30.129826" style="fill: #afaed4; stroke: #d9d9d9; stroke-width: 0.3"/>
    </g>
    <g clip-path="url(#p9b060ed29b)">
     <use xlink:href="#C0_0_114adcf721" x="37.588913" y="31.315026" style="fill: #aeadd3; stroke: #d9d9d9; stroke-width: 0.3"/>
    </g>
    <g clip-path="url(#p9b060ed29b)">
     <use xlink:href="#C0_0_114adcf721" x="38.19114" y="32.559486" style="fill: #aeacd2; stroke: #d9d9d9; stroke-width: 0.3"/>
    </g>
    <g clip-path="url(#p9b060ed29b)">
     <use xlink:href="#C0_0_114adcf721" x="38.793367" y="30.129826" style="fill: #adabd2; stroke: #d9d9d9; stroke-width: 0.3"/>
    </g>
    <g clip-path="url(#p9b060ed29b)">
     <use xlink:href="#C0_0_114adcf721" x="39.395593" y="28.885366" style="fill: #acaad1; stroke: #d9d9d9; stroke-width: 0.3"/>
    </g>
    <g clip-path="url(#p9b060ed29b)">
     <use xlink:href="#C0_0_114adcf721" x="39.99782" y="32.915046" style="fill: #aba9d0; stroke: #d9d9d9; stroke-width: 0.3"/>
    </g>
    <g clip-path="url(#p9b060ed29b)">
     <use xlink:href="#C0_0_114adcf721" x="40.600047" y="31.315026" style="fill: #a9a7cf; stroke: #d9d9d9; stroke-width: 0.3"/>
    </g>
    <g clip-path="url(#p9b060ed29b)">
     <use xlink:href="#C0_0_114adcf721" x="41.202274" y="19.344506" style="fill: #a8a6cf; stroke: #d9d9d9; stroke-width: 0.3"/>
    </g>
    <g clip-path="url(#p9b060ed29b)">
     <use xlink:href="#C0_0_114adcf721" x="41.804501" y="36.944726" style="fill: #a7a4ce; stroke: #d9d9d9; stroke-width: 0.3"/>
    </g>
    <g clip-path="url(#p9b060ed29b)">
     <use xlink:href="#C0_0_114adcf721" x="42.406728" y="43.996666" style="fill: #a6a3cd; stroke: #d9d9d9; stroke-width: 0.3"/>
    </g>
    <g clip-path="url(#p9b060ed29b)">
     <use xlink:href="#C0_0_114adcf721" x="43.008955" y="34.692846" style="fill: #a5a2cd; stroke: #d9d9d9; stroke-width: 0.3"/>
    </g>
    <g clip-path="url(#p9b060ed29b)">
     <use xlink:href="#C0_0_114adcf721" x="43.611182" y="34.040986" style="fill: #a4a1cc; stroke: #d9d9d9; stroke-width: 0.3"/>
    </g>
    <g clip-path="url(#p9b060ed29b)">
     <use xlink:href="#C0_0_114adcf721" x="44.213409" y="33.685426" style="fill: #a3a0cb; stroke: #d9d9d9; stroke-width: 0.3"/>
    </g>
    <g clip-path="url(#p9b060ed29b)">
     <use xlink:href="#C0_0_114adcf721" x="44.815636" y="28.766846" style="fill: #a29fcb; stroke: #d9d9d9; stroke-width: 0.3"/>
    </g>
    <g clip-path="url(#p9b060ed29b)">
     <use xlink:href="#C0_0_114adcf721" x="45.417862" y="28.055726" style="fill: #a19eca; stroke: #d9d9d9; stroke-width: 0.3"/>
    </g>
    <g clip-path="url(#p9b060ed29b)">
     <use xlink:href="#C0_0_114adcf721" x="46.020089" y="34.633586" style="fill: #9f9cc9; stroke: #d9d9d9; stroke-width: 0.3"/>
    </g>
    <g clip-path="url(#p9b060ed29b)">
     <use xlink:href="#C0_0_114adcf721" x="46.622316" y="34.396546" style="fill: #9e9bc8; stroke: #d9d9d9; stroke-width: 0.3"/>
    </g>
    <g clip-path="url(#p9b060ed29b)">
     <use xlink:href="#C0_0_114adcf721" x="47.224543" y="35.048406" style="fill: #9e9ac8; stroke: #d9d9d9; stroke-width: 0.3"/>
    </g>
    <g clip-path="url(#p9b060ed29b)">
     <use xlink:href="#C0_0_114adcf721" x="47.82677" y="28.233506" style="fill: #9d99c7; stroke: #d9d9d9; stroke-width: 0.3"/>
    </g>
    <g clip-path="url(#p9b060ed29b)">
     <use xlink:href="#C0_0_114adcf721" x="48.428997" y="32.855786" style="fill: #9c98c7; stroke: #d9d9d9; stroke-width: 0.3"/>
    </g>
    <g clip-path="url(#p9b060ed29b)">
     <use xlink:href="#C0_0_114adcf721" x="49.031224" y="29.063146" style="fill: #9b97c6; stroke: #d9d9d9; stroke-width: 0.3"/>
    </g>
    <g clip-path="url(#p9b060ed29b)">
     <use xlink:href="#C0_0_114adcf721" x="49.633451" y="47.611526" style="fill: #9a96c6; stroke: #d9d9d9; stroke-width: 0.3"/>
    </g>
    <g clip-path="url(#p9b060ed29b)">
     <use xlink:href="#C0_0_114adcf721" x="50.235678" y="30.900206" style="fill: #9995c6; stroke: #d9d9d9; stroke-width: 0.3"/>
    </g>
    <g clip-path="url(#p9b060ed29b)">
     <use xlink:href="#C0_0_114adcf721" x="50.837904" y="34.040986" style="fill: #9894c5; stroke: #d9d9d9; stroke-width: 0.3"/>
    </g>
    <g clip-path="url(#p9b060ed29b)">
     <use xlink:href="#C0_0_114adcf721" x="51.440131" y="44.115186" style="fill: #9793c5; stroke: #d9d9d9; stroke-width: 0.3"/>
    </g>
    <g clip-path="url(#p9b060ed29b)">
     <use xlink:href="#C0_0_114adcf721" x="52.042358" y="33.803946" style="fill: #9591c4; stroke: #d9d9d9; stroke-width: 0.3"/>
    </g>
    <g clip-path="url(#p9b060ed29b)">
     <use xlink:href="#C0_0_114adcf721" x="52.644585" y="32.263186" style="fill: #9490c3; stroke: #d9d9d9; stroke-width: 0.3"/>
    </g>
    <g clip-path="url(#p9b060ed29b)">
     <use xlink:href="#C0_0_114adcf721" x="53.246812" y="31.492806" style="fill: #9390c3; stroke: #d9d9d9; stroke-width: 0.3"/>
    </g>
    <g clip-path="url(#p9b060ed29b)">
     <use xlink:href="#C0_0_114adcf721" x="53.849039" y="35.344706" style="fill: #928fc3; stroke: #d9d9d9; stroke-width: 0.3"/>
    </g>
    <g clip-path="url(#p9b060ed29b)">
     <use xlink:href="#C0_0_114adcf721" x="54.451266" y="29.596486" style="fill: #918ec2; stroke: #d9d9d9; stroke-width: 0.3"/>
    </g>
    <g clip-path="url(#p9b060ed29b)">
     <use xlink:href="#C0_0_114adcf721" x="55.053493" y="32.915046" style="fill: #908dc2; stroke: #d9d9d9; stroke-width: 0.3"/>
    </g>
    <g clip-path="url(#p9b060ed29b)">
     <use xlink:href="#C0_0_114adcf721" x="55.65572" y="29.181666" style="fill: #8f8cc1; stroke: #d9d9d9; stroke-width: 0.3"/>
    </g>
    <g clip-path="url(#p9b060ed29b)">
     <use xlink:href="#C0_0_114adcf721" x="56.257946" y="40.915146" style="fill: #8e8bc1; stroke: #d9d9d9; stroke-width: 0.3"/>
    </g>
    <g clip-path="url(#p9b060ed29b)">
     <use xlink:href="#C0_0_114adcf721" x="56.860173" y="31.433546" style="fill: #8e8ac0; stroke: #d9d9d9; stroke-width: 0.3"/>
    </g>
    <g clip-path="url(#p9b060ed29b)">
     <use xlink:href="#C0_0_114adcf721" x="57.4624" y="28.944626" style="fill: #8d89c0; stroke: #d9d9d9; stroke-width: 0.3"/>
    </g>
    <g clip-path="url(#p9b060ed29b)">
     <use xlink:href="#C0_0_114adcf721" x="58.064627" y="33.566906" style="fill: #8b87bf; stroke: #d9d9d9; stroke-width: 0.3"/>
    </g>
    <g clip-path="url(#p9b060ed29b)">
     <use xlink:href="#C0_0_114adcf721" x="58.666854" y="28.885366" style="fill: #8a86bf; stroke: #d9d9d9; stroke-width: 0.3"/>
    </g>
    <g clip-path="url(#p9b060ed29b)">
     <use xlink:href="#C0_0_114adcf721" x="59.269081" y="34.218766" style="fill: #8986be; stroke: #d9d9d9; stroke-width: 0.3"/>
    </g>
    <g clip-path="url(#p9b060ed29b)">
     <use xlink:href="#C0_0_114adcf721" x="59.871308" y="49.744886" style="fill: #8885be; stroke: #d9d9d9; stroke-width: 0.3"/>
    </g>
    <g clip-path="url(#p9b060ed29b)">
     <use xlink:href="#C0_0_114adcf721" x="60.473535" y="34.278026" style="fill: #8784bd; stroke: #d9d9d9; stroke-width: 0.3"/>
    </g>
    <g clip-path="url(#p9b060ed29b)">
     <use xlink:href="#C0_0_114adcf721" x="61.075762" y="53.359746" style="fill: #8683bd; stroke: #d9d9d9; stroke-width: 0.3"/>
    </g>
    <g clip-path="url(#p9b060ed29b)">
     <use xlink:href="#C0_0_114adcf721" x="62.280215" y="35.048406" style="fill: #8582bc; stroke: #d9d9d9; stroke-width: 0.3"/>
    </g>
    <g clip-path="url(#p9b060ed29b)">
     <use xlink:href="#C0_0_114adcf721" x="62.882442" y="35.403966" style="fill: #8481bc; stroke: #d9d9d9; stroke-width: 0.3"/>
    </g>
    <g clip-path="url(#p9b060ed29b)">
     <use xlink:href="#C0_0_114adcf721" x="63.484669" y="32.381706" style="fill: #8380bb; stroke: #d9d9d9; stroke-width: 0.3"/>
    </g>
    <g clip-path="url(#p9b060ed29b)">
     <use xlink:href="#C0_0_114adcf721" x="64.086896" y="33.803946" style="fill: #817ebb; stroke: #d9d9d9; stroke-width: 0.3"/>
    </g>
    <g clip-path="url(#p9b060ed29b)">
     <use xlink:href="#C0_0_114adcf721" x="64.689123" y="44.055926" style="fill: #807dba; stroke: #d9d9d9; stroke-width: 0.3"/>
    </g>
    <g clip-path="url(#p9b060ed29b)">
     <use xlink:href="#C0_0_114adcf721" x="65.29135" y="31.907626" style="fill: #807cba; stroke: #d9d9d9; stroke-width: 0.3"/>
    </g>
    <g clip-path="url(#p9b060ed29b)">
     <use xlink:href="#C0_0_114adcf721" x="65.893577" y="29.774266" style="fill: #7f7bb9; stroke: #d9d9d9; stroke-width: 0.3"/>
    </g>
    <g clip-path="url(#p9b060ed29b)">
     <use xlink:href="#C0_0_114adcf721" x="66.495804" y="30.426126" style="fill: #7e79b8; stroke: #d9d9d9; stroke-width: 0.3"/>
    </g>
    <g clip-path="url(#p9b060ed29b)">
     <use xlink:href="#C0_0_114adcf721" x="67.09803" y="38.663266" style="fill: #7d78b7; stroke: #d9d9d9; stroke-width: 0.3"/>
    </g>
    <g clip-path="url(#p9b060ed29b)">
     <use xlink:href="#C0_0_114adcf721" x="67.700257" y="31.729846" style="fill: #7d77b7; stroke: #d9d9d9; stroke-width: 0.3"/>
    </g>
    <g clip-path="url(#p9b060ed29b)">
     <use xlink:href="#C0_0_114adcf721" x="68.302484" y="49.567106" style="fill: #7c75b6; stroke: #d9d9d9; stroke-width: 0.3"/>
    </g>
    <g clip-path="url(#p9b060ed29b)">
     <use xlink:href="#C0_0_114adcf721" x="68.904711" y="41.981826" style="fill: #7b74b5; stroke: #d9d9d9; stroke-width: 0.3"/>
    </g>
    <g clip-path="url(#p9b060ed29b)">
     <use xlink:href="#C0_0_114adcf721" x="69.506938" y="39.374386" style="fill: #7b72b4; stroke: #d9d9d9; stroke-width: 0.3"/>
    </g>
    <g clip-path="url(#p9b060ed29b)">
     <use xlink:href="#C0_0_114adcf721" x="70.109165" y="54.070866" style="fill: #7970b3; stroke: #d9d9d9; stroke-width: 0.3"/>
    </g>
    <g clip-path="url(#p9b060ed29b)">
     <use xlink:href="#C0_0_114adcf721" x="70.711392" y="33.981726" style="fill: #796eb2; stroke: #d9d9d9; stroke-width: 0.3"/>
    </g>
    <g clip-path="url(#p9b060ed29b)">
     <use xlink:href="#C0_0_114adcf721" x="71.313619" y="18.988946" style="fill: #786db2; stroke: #d9d9d9; stroke-width: 0.3"/>
    </g>
    <g clip-path="url(#p9b060ed29b)">
     <use xlink:href="#C0_0_114adcf721" x="71.915846" y="43.759626" style="fill: #776cb1; stroke: #d9d9d9; stroke-width: 0.3"/>
    </g>
    <g clip-path="url(#p9b060ed29b)">
     <use xlink:href="#C0_0_114adcf721" x="72.518072" y="40.263286" style="fill: #776ab0; stroke: #d9d9d9; stroke-width: 0.3"/>
    </g>
    <g clip-path="url(#p9b060ed29b)">
     <use xlink:href="#C0_0_114adcf721" x="73.120299" y="51.641206" style="fill: #7669af; stroke: #d9d9d9; stroke-width: 0.3"/>
    </g>
    <g clip-path="url(#p9b060ed29b)">
     <use xlink:href="#C0_0_114adcf721" x="73.722526" y="37.063246" style="fill: #7567af; stroke: #d9d9d9; stroke-width: 0.3"/>
    </g>
    <g clip-path="url(#p9b060ed29b)">
     <use xlink:href="#C0_0_114adcf721" x="74.324753" y="35.107666" style="fill: #7566ae; stroke: #d9d9d9; stroke-width: 0.3"/>
    </g>
    <g clip-path="url(#p9b060ed29b)">
     <use xlink:href="#C0_0_114adcf721" x="74.92698" y="22.663066" style="fill: #7465ad; stroke: #d9d9d9; stroke-width: 0.3"/>
    </g>
    <g clip-path="url(#p9b060ed29b)">
     <use xlink:href="#C0_0_114adcf721" x="75.529207" y="33.211346" style="fill: #7363ad; stroke: #d9d9d9; stroke-width: 0.3"/>
    </g>
    <g clip-path="url(#p9b060ed29b)">
     <use xlink:href="#C0_0_114adcf721" x="76.733661" y="57.033866" style="fill: #7261ab; stroke: #d9d9d9; stroke-width: 0.3"/>
    </g>
    <g clip-path="url(#p9b060ed29b)">
     <use xlink:href="#C0_0_114adcf721" x="77.335888" y="33.033566" style="fill: #715faa; stroke: #d9d9d9; stroke-width: 0.3"/>
    </g>
    <g clip-path="url(#p9b060ed29b)">
     <use xlink:href="#C0_0_114adcf721" x="77.938114" y="18.574126" style="fill: #705eaa; stroke: #d9d9d9; stroke-width: 0.3"/>
    </g>
    <g clip-path="url(#p9b060ed29b)">
     <use xlink:href="#C0_0_114adcf721" x="78.540341" y="44.352226" style="fill: #705ca9; stroke: #d9d9d9; stroke-width: 0.3"/>
    </g>
    <g clip-path="url(#p9b060ed29b)">
     <use xlink:href="#C0_0_114adcf721" x="79.142568" y="37.063246" style="fill: #6f5ba8; stroke: #d9d9d9; stroke-width: 0.3"/>
    </g>
    <g clip-path="url(#p9b060ed29b)">
     <use xlink:href="#C0_0_114adcf721" x="79.744795" y="29.477966" style="fill: #6e5aa8; stroke: #d9d9d9; stroke-width: 0.3"/>
    </g>
    <g clip-path="url(#p9b060ed29b)">
     <use xlink:href="#C0_0_114adcf721" x="80.347022" y="38.604006" style="fill: #6e58a7; stroke: #d9d9d9; stroke-width: 0.3"/>
    </g>
    <g clip-path="url(#p9b060ed29b)">
     <use xlink:href="#C0_0_114adcf721" x="80.949249" y="31.077986" style="fill: #6d57a6; stroke: #d9d9d9; stroke-width: 0.3"/>
    </g>
    <g clip-path="url(#p9b060ed29b)">
     <use xlink:href="#C0_0_114adcf721" x="81.551476" y="36.529906" style="fill: #6c55a5; stroke: #d9d9d9; stroke-width: 0.3"/>
    </g>
    <g clip-path="url(#p9b060ed29b)">
     <use xlink:href="#C0_0_114adcf721" x="82.153703" y="39.492906" style="fill: #6b53a4; stroke: #d9d9d9; stroke-width: 0.3"/>
    </g>
    <g clip-path="url(#p9b060ed29b)">
     <use xlink:href="#C0_0_114adcf721" x="82.75593" y="37.596586" style="fill: #6a51a3; stroke: #d9d9d9; stroke-width: 0.3"/>
    </g>
    <g clip-path="url(#p9b060ed29b)">
     <use xlink:href="#C0_0_114adcf721" x="83.358157" y="54.959766" style="fill: #6950a3; stroke: #d9d9d9; stroke-width: 0.3"/>
    </g>
    <g clip-path="url(#p9b060ed29b)">
     <use xlink:href="#C0_0_114adcf721" x="83.960383" y="55.493106" style="fill: #694fa2; stroke: #d9d9d9; stroke-width: 0.3"/>
    </g>
    <g clip-path="url(#p9b060ed29b)">
     <use xlink:href="#C0_0_114adcf721" x="84.56261" y="29.655746" style="fill: #684da1; stroke: #d9d9d9; stroke-width: 0.3"/>
    </g>
    <g clip-path="url(#p9b060ed29b)">
     <use xlink:href="#C0_0_114adcf721" x="85.164837" y="33.863206" style="fill: #674ca1; stroke: #d9d9d9; stroke-width: 0.3"/>
    </g>
    <g clip-path="url(#p9b060ed29b)">
     <use xlink:href="#C0_0_114adcf721" x="85.767064" y="53.893086" style="fill: #674ba0; stroke: #d9d9d9; stroke-width: 0.3"/>
    </g>
    <g clip-path="url(#p9b060ed29b)">
     <use xlink:href="#C0_0_114adcf721" x="86.369291" y="31.374286" style="fill: #66499f; stroke: #d9d9d9; stroke-width: 0.3"/>
    </g>
    <g clip-path="url(#p9b060ed29b)">
     <use xlink:href="#C0_0_114adcf721" x="86.971518" y="30.603906" style="fill: #65489f; stroke: #d9d9d9; stroke-width: 0.3"/>
    </g>
    <g clip-path="url(#p9b060ed29b)">
     <use xlink:href="#C0_0_114adcf721" x="87.573745" y="36.411386" style="fill: #65479e; stroke: #d9d9d9; stroke-width: 0.3"/>
    </g>
    <g clip-path="url(#p9b060ed29b)">
     <use xlink:href="#C0_0_114adcf721" x="88.175972" y="36.589166" style="fill: #63449d; stroke: #d9d9d9; stroke-width: 0.3"/>
    </g>
    <g clip-path="url(#p9b060ed29b)">
     <use xlink:href="#C0_0_114adcf721" x="88.778199" y="30.011306" style="fill: #63439c; stroke: #d9d9d9; stroke-width: 0.3"/>
    </g>
    <g clip-path="url(#p9b060ed29b)">
     <use xlink:href="#C0_0_114adcf721" x="89.380425" y="16.796326" style="fill: #62429c; stroke: #d9d9d9; stroke-width: 0.3"/>
    </g>
    <g clip-path="url(#p9b060ed29b)">
     <use xlink:href="#C0_0_114adcf721" x="89.982652" y="33.803946" style="fill: #61409b; stroke: #d9d9d9; stroke-width: 0.3"/>
    </g>
    <g clip-path="url(#p9b060ed29b)">
     <use xlink:href="#C0_0_114adcf721" x="90.584879" y="53.893086" style="fill: #613f9a; stroke: #d9d9d9; stroke-width: 0.3"/>
    </g>
    <g clip-path="url(#p9b060ed29b)">
     <use xlink:href="#C0_0_114adcf721" x="91.187106" y="48.855986" style="fill: #603e9a; stroke: #d9d9d9; stroke-width: 0.3"/>
    </g>
    <g clip-path="url(#p9b060ed29b)">
     <use xlink:href="#C0_0_114adcf721" x="91.789333" y="31.196506" style="fill: #5f3c99; stroke: #d9d9d9; stroke-width: 0.3"/>
    </g>
    <g clip-path="url(#p9b060ed29b)">
     <use xlink:href="#C0_0_114adcf721" x="92.39156" y="30.663166" style="fill: #5e3b98; stroke: #d9d9d9; stroke-width: 0.3"/>
    </g>
    <g clip-path="url(#p9b060ed29b)">
     <use xlink:href="#C0_0_114adcf721" x="92.993787" y="30.366866" style="fill: #5e3a98; stroke: #d9d9d9; stroke-width: 0.3"/>
    </g>
    <g clip-path="url(#p9b060ed29b)">
     <use xlink:href="#C0_0_114adcf721" x="93.596014" y="30.544646" style="fill: #5d3897; stroke: #d9d9d9; stroke-width: 0.3"/>
    </g>
    <g clip-path="url(#p9b060ed29b)">
     <use xlink:href="#C0_0_114adcf721" x="94.198241" y="30.011306" style="fill: #5c3696; stroke: #d9d9d9; stroke-width: 0.3"/>
    </g>
    <g clip-path="url(#p9b060ed29b)">
     <use xlink:href="#C0_0_114adcf721" x="94.800467" y="40.618846" style="fill: #5b3495; stroke: #d9d9d9; stroke-width: 0.3"/>
    </g>
    <g clip-path="url(#p9b060ed29b)">
     <use xlink:href="#C0_0_114adcf721" x="95.402694" y="35.937306" style="fill: #5a3395; stroke: #d9d9d9; stroke-width: 0.3"/>
    </g>
    <g clip-path="url(#p9b060ed29b)">
     <use xlink:href="#C0_0_114adcf721" x="96.004921" y="38.307706" style="fill: #5a3294; stroke: #d9d9d9; stroke-width: 0.3"/>
    </g>
    <g clip-path="url(#p9b060ed29b)">
     <use xlink:href="#C0_0_114adcf721" x="96.607148" y="49.093026" style="fill: #593093; stroke: #d9d9d9; stroke-width: 0.3"/>
    </g>
    <g clip-path="url(#p9b060ed29b)">
     <use xlink:href="#C0_0_114adcf721" x="97.209375" y="38.959566" style="fill: #582f93; stroke: #d9d9d9; stroke-width: 0.3"/>
    </g>
   </g>
   <g id="line2d_9">
    <path d="M 25.544375 23.907526 
L 97.209375 23.907526 
" clip-path="url(#p9b060ed29b)" style="fill: none; stroke-dasharray: 3.7,1.6; stroke-dashoffset: 0; stroke: #000000; stroke-opacity: 0.7"/>
   </g>
   <g id="patch_3">
    <path d="M 25.544375 68.607344 
L 25.544375 9.347344 
" style="fill: none; stroke: #000000; stroke-width: 0.5; stroke-linejoin: miter; stroke-linecap: square"/>
   </g>
   <g id="patch_4">
    <path d="M 25.544375 68.607344 
L 97.209375 68.607344 
" style="fill: none; stroke: #000000; stroke-width: 0.5; stroke-linejoin: miter; stroke-linecap: square"/>
   </g>
   <g id="legend_1">
    <g id="line2d_10">
     <path d="M 41.149688 59.914844 
L 47.149688 59.914844 
L 53.149688 59.914844 
" style="fill: none; stroke-dasharray: 3.7,1.6; stroke-dashoffset: 0; stroke: #000000; stroke-opacity: 0.7"/>
    </g>
    <g id="text_9">
     <!-- X0 = exp518 -->
     <g transform="translate(57.949688 62.014844) scale(0.06 -0.06)">
      <defs>
       <path id="ArialMT-58" d="M 28 0 
L 1800 2388 
L 238 4581 
L 959 4581 
L 1791 3406 
Q 2050 3041 2159 2844 
Q 2313 3094 2522 3366 
L 3444 4581 
L 4103 4581 
L 2494 2422 
L 4228 0 
L 3478 0 
L 2325 1634 
Q 2228 1775 2125 1941 
Q 1972 1691 1906 1597 
L 756 0 
L 28 0 
z
" transform="scale(0.015625)"/>
       <path id="ArialMT-20" transform="scale(0.015625)"/>
       <path id="ArialMT-3d" d="M 3381 2694 
L 356 2694 
L 356 3219 
L 3381 3219 
L 3381 2694 
z
M 3381 1303 
L 356 1303 
L 356 1828 
L 3381 1828 
L 3381 1303 
z
" transform="scale(0.015625)"/>
       <path id="ArialMT-65" d="M 2694 1069 
L 3275 997 
Q 3138 488 2766 206 
Q 2394 -75 1816 -75 
Q 1088 -75 661 373 
Q 234 822 234 1631 
Q 234 2469 665 2931 
Q 1097 3394 1784 3394 
Q 2450 3394 2872 2941 
Q 3294 2488 3294 1666 
Q 3294 1616 3291 1516 
L 816 1516 
Q 847 969 1125 678 
Q 1403 388 1819 388 
Q 2128 388 2347 550 
Q 2566 713 2694 1069 
z
M 847 1978 
L 2700 1978 
Q 2663 2397 2488 2606 
Q 2219 2931 1791 2931 
Q 1403 2931 1139 2672 
Q 875 2413 847 1978 
z
" transform="scale(0.015625)"/>
       <path id="ArialMT-78" d="M 47 0 
L 1259 1725 
L 138 3319 
L 841 3319 
L 1350 2541 
Q 1494 2319 1581 2169 
Q 1719 2375 1834 2534 
L 2394 3319 
L 3066 3319 
L 1919 1756 
L 3153 0 
L 2463 0 
L 1781 1031 
L 1600 1309 
L 728 0 
L 47 0 
z
" transform="scale(0.015625)"/>
       <path id="ArialMT-70" d="M 422 -1272 
L 422 3319 
L 934 3319 
L 934 2888 
Q 1116 3141 1344 3267 
Q 1572 3394 1897 3394 
Q 2322 3394 2647 3175 
Q 2972 2956 3137 2557 
Q 3303 2159 3303 1684 
Q 3303 1175 3120 767 
Q 2938 359 2589 142 
Q 2241 -75 1856 -75 
Q 1575 -75 1351 44 
Q 1128 163 984 344 
L 984 -1272 
L 422 -1272 
z
M 931 1641 
Q 931 1000 1190 694 
Q 1450 388 1819 388 
Q 2194 388 2461 705 
Q 2728 1022 2728 1688 
Q 2728 2322 2467 2637 
Q 2206 2953 1844 2953 
Q 1484 2953 1207 2617 
Q 931 2281 931 1641 
z
" transform="scale(0.015625)"/>
       <path id="ArialMT-38" d="M 1131 2484 
Q 781 2613 612 2850 
Q 444 3088 444 3419 
Q 444 3919 803 4259 
Q 1163 4600 1759 4600 
Q 2359 4600 2725 4251 
Q 3091 3903 3091 3403 
Q 3091 3084 2923 2848 
Q 2756 2613 2416 2484 
Q 2838 2347 3058 2040 
Q 3278 1734 3278 1309 
Q 3278 722 2862 322 
Q 2447 -78 1769 -78 
Q 1091 -78 675 323 
Q 259 725 259 1325 
Q 259 1772 486 2073 
Q 713 2375 1131 2484 
z
M 1019 3438 
Q 1019 3113 1228 2906 
Q 1438 2700 1772 2700 
Q 2097 2700 2305 2904 
Q 2513 3109 2513 3406 
Q 2513 3716 2298 3927 
Q 2084 4138 1766 4138 
Q 1444 4138 1231 3931 
Q 1019 3725 1019 3438 
z
M 838 1322 
Q 838 1081 952 856 
Q 1066 631 1291 507 
Q 1516 384 1775 384 
Q 2178 384 2440 643 
Q 2703 903 2703 1303 
Q 2703 1709 2433 1975 
Q 2163 2241 1756 2241 
Q 1359 2241 1098 1978 
Q 838 1716 838 1322 
z
" transform="scale(0.015625)"/>
      </defs>
      <use xlink:href="#ArialMT-58"/>
      <use xlink:href="#ArialMT-30" x="66.699219"/>
      <use xlink:href="#ArialMT-20" x="122.314453"/>
      <use xlink:href="#ArialMT-3d" x="150.097656"/>
      <use xlink:href="#ArialMT-20" x="208.496094"/>
      <use xlink:href="#ArialMT-65" x="236.279297"/>
      <use xlink:href="#ArialMT-78" x="291.894531"/>
      <use xlink:href="#ArialMT-70" x="341.894531"/>
      <use xlink:href="#ArialMT-35" x="397.509766"/>
      <use xlink:href="#ArialMT-31" x="453.125"/>
      <use xlink:href="#ArialMT-38" x="508.740234"/>
     </g>
    </g>
   </g>
  </g>
 </g>
 <defs>
  <clipPath id="p9b060ed29b">
   <rect x="25.544375" y="9.347344" width="71.665" height="59.26"/>
  </clipPath>
 </defs>
</svg>
