<?xml version="1.0" encoding="utf-8" standalone="no"?>
<!DOCTYPE svg PUBLIC "-//W3C//DTD SVG 1.1//EN"
  "http://www.w3.org/Graphics/SVG/1.1/DTD/svg11.dtd">
<svg xmlns:xlink="http://www.w3.org/1999/xlink" width="109.414219pt" height="87.794531pt" viewBox="0 0 109.414219 87.794531" xmlns="http://www.w3.org/2000/svg" version="1.1">
 <metadata>
  <rdf:RDF xmlns:dc="http://purl.org/dc/elements/1.1/" xmlns:cc="http://creativecommons.org/ns#" xmlns:rdf="http://www.w3.org/1999/02/22-rdf-syntax-ns#">
   <cc:Work>
    <dc:type rdf:resource="http://purl.org/dc/dcmitype/StillImage"/>
    <dc:date>2026-03-21T21:15:17.598818</dc:date>
    <dc:format>image/svg+xml</dc:format>
    <dc:creator>
     <cc:Agent>
      <dc:title>Matplotlib v3.9.4, https://matplotlib.org/</dc:title>
     </cc:Agent>
    </dc:creator>
   </cc:Work>
  </rdf:RDF>
 </metadata>
 <defs>
  <style type="text/css">*{stroke-linejoin: round; stroke-linecap: butt}</style>
 </defs>
 <g id="figure_1">
  <g id="patch_1">
   <path d="M 0 87.794531 
L 109.414219 87.794531 
L 109.414219 0 
L 0 0 
z
" style="fill: #ffffff"/>
  </g>
  <g id="axes_1">
   <g id="patch_2">
    <path d="M 25.544375 68.607344 
L 97.209375 68.607344 
L 97.209375 9.347344 
L 25.544375 9.347344 
z
" style="fill: #ffffff"/>
   </g>
   <g id="matplotlib.axis_1">
    <g id="xtick_1">
     <g id="line2d_1">
      <defs>
       <path id="mca19d42b5c" d="M 0 0 
L 0 3 
" style="stroke: #000000; stroke-width: 0.5"/>
      </defs>
      <g>
       <use xlink:href="#mca19d42b5c" x="25.544375" y="68.607344" style="stroke: #000000; stroke-width: 0.5"/>
      </g>
     </g>
     <g id="text_1">
      <!-- 1 -->
      <g transform="translate(23.876094 79.402031) scale(0.06 -0.06)">
       <defs>
        <path id="ArialMT-31" d="M 2384 0 
L 1822 0 
L 1822 3584 
Q 1619 3391 1289 3197 
Q 959 3003 697 2906 
L 697 3450 
Q 1169 3672 1522 3987 
Q 1875 4303 2022 4600 
L 2384 4600 
L 2384 0 
z
" transform="scale(0.015625)"/>
       </defs>
       <use xlink:href="#ArialMT-31"/>
      </g>
     </g>
    </g>
    <g id="xtick_2">
     <g id="line2d_2">
      <g>
       <use xlink:href="#mca19d42b5c" x="43.008955" y="68.607344" style="stroke: #000000; stroke-width: 0.5"/>
      </g>
     </g>
     <g id="text_2">
      <!-- 30 -->
      <g transform="translate(39.672392 79.402031) scale(0.06 -0.06)">
       <defs>
        <path id="ArialMT-33" d="M 269 1209 
L 831 1284 
Q 928 806 1161 595 
Q 1394 384 1728 384 
Q 2125 384 2398 659 
Q 2672 934 2672 1341 
Q 2672 1728 2419 1979 
Q 2166 2231 1775 2231 
Q 1616 2231 1378 2169 
L 1441 2663 
Q 1497 2656 1531 2656 
Q 1891 2656 2178 2843 
Q 2466 3031 2466 3422 
Q 2466 3731 2256 3934 
Q 2047 4138 1716 4138 
Q 1388 4138 1169 3931 
Q 950 3725 888 3313 
L 325 3413 
Q 428 3978 793 4289 
Q 1159 4600 1703 4600 
Q 2078 4600 2393 4439 
Q 2709 4278 2876 4000 
Q 3044 3722 3044 3409 
Q 3044 3113 2884 2869 
Q 2725 2625 2413 2481 
Q 2819 2388 3044 2092 
Q 3269 1797 3269 1353 
Q 3269 753 2831 336 
Q 2394 -81 1725 -81 
Q 1122 -81 723 278 
Q 325 638 269 1209 
z
" transform="scale(0.015625)"/>
        <path id="ArialMT-30" d="M 266 2259 
Q 266 3072 433 3567 
Q 600 4063 929 4331 
Q 1259 4600 1759 4600 
Q 2128 4600 2406 4451 
Q 2684 4303 2865 4023 
Q 3047 3744 3150 3342 
Q 3253 2941 3253 2259 
Q 3253 1453 3087 958 
Q 2922 463 2592 192 
Q 2263 -78 1759 -78 
Q 1097 -78 719 397 
Q 266 969 266 2259 
z
M 844 2259 
Q 844 1131 1108 757 
Q 1372 384 1759 384 
Q 2147 384 2411 759 
Q 2675 1134 2675 2259 
Q 2675 3391 2411 3762 
Q 2147 4134 1753 4134 
Q 1366 4134 1134 3806 
Q 844 3388 844 2259 
z
" transform="scale(0.015625)"/>
       </defs>
       <use xlink:href="#ArialMT-33"/>
       <use xlink:href="#ArialMT-30" x="55.615234"/>
      </g>
     </g>
    </g>
    <g id="xtick_3">
     <g id="line2d_3">
      <g>
       <use xlink:href="#mca19d42b5c" x="61.075762" y="68.607344" style="stroke: #000000; stroke-width: 0.5"/>
      </g>
     </g>
     <g id="text_3">
      <!-- 60 -->
      <g transform="translate(57.739199 79.402031) scale(0.06 -0.06)">
       <defs>
        <path id="ArialMT-36" d="M 3184 3459 
L 2625 3416 
Q 2550 3747 2413 3897 
Q 2184 4138 1850 4138 
Q 1581 4138 1378 3988 
Q 1113 3794 959 3422 
Q 806 3050 800 2363 
Q 1003 2672 1297 2822 
Q 1591 2972 1913 2972 
Q 2475 2972 2870 2558 
Q 3266 2144 3266 1488 
Q 3266 1056 3080 686 
Q 2894 316 2569 119 
Q 2244 -78 1831 -78 
Q 1128 -78 684 439 
Q 241 956 241 2144 
Q 241 3472 731 4075 
Q 1159 4600 1884 4600 
Q 2425 4600 2770 4297 
Q 3116 3994 3184 3459 
z
M 888 1484 
Q 888 1194 1011 928 
Q 1134 663 1356 523 
Q 1578 384 1822 384 
Q 2178 384 2434 671 
Q 2691 959 2691 1453 
Q 2691 1928 2437 2201 
Q 2184 2475 1800 2475 
Q 1419 2475 1153 2201 
Q 888 1928 888 1484 
z
" transform="scale(0.015625)"/>
       </defs>
       <use xlink:href="#ArialMT-36"/>
       <use xlink:href="#ArialMT-30" x="55.615234"/>
      </g>
     </g>
    </g>
    <g id="xtick_4">
     <g id="line2d_4">
      <g>
       <use xlink:href="#mca19d42b5c" x="79.142568" y="68.607344" style="stroke: #000000; stroke-width: 0.5"/>
      </g>
     </g>
     <g id="text_4">
      <!-- 90 -->
      <g transform="translate(75.806006 79.402031) scale(0.06 -0.06)">
       <defs>
        <path id="ArialMT-39" d="M 350 1059 
L 891 1109 
Q 959 728 1153 556 
Q 1347 384 1650 384 
Q 1909 384 2104 503 
Q 2300 622 2425 820 
Q 2550 1019 2634 1356 
Q 2719 1694 2719 2044 
Q 2719 2081 2716 2156 
Q 2547 1888 2255 1720 
Q 1963 1553 1622 1553 
Q 1053 1553 659 1965 
Q 266 2378 266 3053 
Q 266 3750 677 4175 
Q 1088 4600 1706 4600 
Q 2153 4600 2523 4359 
Q 2894 4119 3086 3673 
Q 3278 3228 3278 2384 
Q 3278 1506 3087 986 
Q 2897 466 2520 194 
Q 2144 -78 1638 -78 
Q 1100 -78 759 220 
Q 419 519 350 1059 
z
M 2653 3081 
Q 2653 3566 2395 3850 
Q 2138 4134 1775 4134 
Q 1400 4134 1122 3828 
Q 844 3522 844 3034 
Q 844 2597 1108 2323 
Q 1372 2050 1759 2050 
Q 2150 2050 2401 2323 
Q 2653 2597 2653 3081 
z
" transform="scale(0.015625)"/>
       </defs>
       <use xlink:href="#ArialMT-39"/>
       <use xlink:href="#ArialMT-30" x="55.615234"/>
      </g>
     </g>
    </g>
    <g id="xtick_5">
     <g id="line2d_5">
      <g>
       <use xlink:href="#mca19d42b5c" x="97.209375" y="68.607344" style="stroke: #000000; stroke-width: 0.5"/>
      </g>
     </g>
     <g id="text_5">
      <!-- 120 -->
      <g transform="translate(92.204531 79.402031) scale(0.06 -0.06)">
       <defs>
        <path id="ArialMT-32" d="M 3222 541 
L 3222 0 
L 194 0 
Q 188 203 259 391 
Q 375 700 629 1000 
Q 884 1300 1366 1694 
Q 2113 2306 2375 2664 
Q 2638 3022 2638 3341 
Q 2638 3675 2398 3904 
Q 2159 4134 1775 4134 
Q 1369 4134 1125 3890 
Q 881 3647 878 3216 
L 300 3275 
Q 359 3922 746 4261 
Q 1134 4600 1788 4600 
Q 2447 4600 2831 4234 
Q 3216 3869 3216 3328 
Q 3216 3053 3103 2787 
Q 2991 2522 2730 2228 
Q 2469 1934 1863 1422 
Q 1356 997 1212 845 
Q 1069 694 975 541 
L 3222 541 
z
" transform="scale(0.015625)"/>
       </defs>
       <use xlink:href="#ArialMT-31"/>
       <use xlink:href="#ArialMT-32" x="55.615234"/>
       <use xlink:href="#ArialMT-30" x="111.230469"/>
      </g>
     </g>
    </g>
   </g>
   <g id="matplotlib.axis_2">
    <g id="ytick_1">
     <g id="line2d_6">
      <defs>
       <path id="m906095d090" d="M 0 0 
L -3 0 
" style="stroke: #000000; stroke-width: 0.5"/>
      </defs>
      <g>
       <use xlink:href="#m906095d090" x="25.544375" y="68.607344" style="stroke: #000000; stroke-width: 0.5"/>
      </g>
     </g>
     <g id="text_6">
      <!-- −1.0 -->
      <g transform="translate(7.2 70.754687) scale(0.06 -0.06)">
       <defs>
        <path id="ArialMT-2212" d="M 3381 1997 
L 356 1997 
L 356 2522 
L 3381 2522 
L 3381 1997 
z
" transform="scale(0.015625)"/>
        <path id="ArialMT-2e" d="M 581 0 
L 581 641 
L 1222 641 
L 1222 0 
L 581 0 
z
" transform="scale(0.015625)"/>
       </defs>
       <use xlink:href="#ArialMT-2212"/>
       <use xlink:href="#ArialMT-31" x="58.398438"/>
       <use xlink:href="#ArialMT-2e" x="114.013672"/>
       <use xlink:href="#ArialMT-30" x="141.796875"/>
      </g>
     </g>
    </g>
    <g id="ytick_2">
     <g id="line2d_7">
      <g>
       <use xlink:href="#m906095d090" x="25.544375" y="38.977344" style="stroke: #000000; stroke-width: 0.5"/>
      </g>
     </g>
     <g id="text_7">
      <!-- −0.5 -->
      <g transform="translate(7.2 41.124687) scale(0.06 -0.06)">
       <defs>
        <path id="ArialMT-35" d="M 266 1200 
L 856 1250 
Q 922 819 1161 601 
Q 1400 384 1738 384 
Q 2144 384 2425 690 
Q 2706 997 2706 1503 
Q 2706 1984 2436 2262 
Q 2166 2541 1728 2541 
Q 1456 2541 1237 2417 
Q 1019 2294 894 2097 
L 366 2166 
L 809 4519 
L 3088 4519 
L 3088 3981 
L 1259 3981 
L 1013 2750 
Q 1425 3038 1878 3038 
Q 2478 3038 2890 2622 
Q 3303 2206 3303 1553 
Q 3303 931 2941 478 
Q 2500 -78 1738 -78 
Q 1113 -78 717 272 
Q 322 622 266 1200 
z
" transform="scale(0.015625)"/>
       </defs>
       <use xlink:href="#ArialMT-2212"/>
       <use xlink:href="#ArialMT-30" x="58.398438"/>
       <use xlink:href="#ArialMT-2e" x="114.013672"/>
       <use xlink:href="#ArialMT-35" x="141.796875"/>
      </g>
     </g>
    </g>
    <g id="ytick_3">
     <g id="line2d_8">
      <g>
       <use xlink:href="#m906095d090" x="25.544375" y="9.347344" style="stroke: #000000; stroke-width: 0.5"/>
      </g>
     </g>
     <g id="text_8">
      <!-- 0.0 -->
      <g transform="translate(10.704375 11.494687) scale(0.06 -0.06)">
       <use xlink:href="#ArialMT-30"/>
       <use xlink:href="#ArialMT-2e" x="55.615234"/>
       <use xlink:href="#ArialMT-30" x="83.398438"/>
      </g>
     </g>
    </g>
   </g>
   <g id="PathCollection_1">
    <defs>
     <path id="C0_0_dae3429762" d="M 0 1.581139 
C 0.419323 1.581139 0.821528 1.41454 1.118034 1.118034 
C 1.41454 0.821528 1.581139 0.419323 1.581139 -0 
C 1.581139 -0.419323 1.41454 -0.821528 1.118034 -1.118034 
C 0.821528 -1.41454 0.419323 -1.581139 0 -1.581139 
C -0.419323 -1.581139 -0.821528 -1.41454 -1.118034 -1.118034 
C -1.41454 -0.821528 -1.581139 -0.419323 -1.581139 0 
C -1.581139 0.419323 -1.41454 0.821528 -1.118034 1.118034 
C -0.821528 1.41454 -0.419323 1.581139 0 1.581139 
z
"/>
    </defs>
    <g clip-path="url(#p6174b8bd0d)">
     <use xlink:href="#C0_0_dae3429762" x="25.544375" y="53.300486" style="fill: #c3c3c3; stroke: #d9d9d9; stroke-width: 0.3"/>
    </g>
    <g clip-path="url(#p6174b8bd0d)">
     <use xlink:href="#C0_0_dae3429762" x="26.146602" y="30.366866" style="fill: #c2c2c2; stroke: #d9d9d9; stroke-width: 0.3"/>
    </g>
    <g clip-path="url(#p6174b8bd0d)">
     <use xlink:href="#C0_0_dae3429762" x="26.748829" y="45.359646" style="fill: #c1c1c1; stroke: #d9d9d9; stroke-width: 0.3"/>
    </g>
    <g clip-path="url(#p6174b8bd0d)">
     <use xlink:href="#C0_0_dae3429762" x="27.351056" y="47.611526" style="fill: #c0c0c0; stroke: #d9d9d9; stroke-width: 0.3"/>
    </g>
    <g clip-path="url(#p6174b8bd0d)">
     <use xlink:href="#C0_0_dae3429762" x="27.953283" y="28.233506" style="fill: #c0c0c0; stroke: #d9d9d9; stroke-width: 0.3"/>
    </g>
    <g clip-path="url(#p6174b8bd0d)">
     <use xlink:href="#C0_0_dae3429762" x="28.555509" y="38.781786" style="fill: #bfbfbf; stroke: #d9d9d9; stroke-width: 0.3"/>
    </g>
    <g clip-path="url(#p6174b8bd0d)">
     <use xlink:href="#C0_0_dae3429762" x="29.157736" y="27.285346" style="fill: #bebebe; stroke: #d9d9d9; stroke-width: 0.3"/>
    </g>
    <g clip-path="url(#p6174b8bd0d)">
     <use xlink:href="#C0_0_dae3429762" x="29.759963" y="27.226086" style="fill: #bebebe; stroke: #d9d9d9; stroke-width: 0.3"/>
    </g>
    <g clip-path="url(#p6174b8bd0d)">
     <use xlink:href="#C0_0_dae3429762" x="30.36219" y="41.270706" style="fill: #bdbdbd; stroke: #d9d9d9; stroke-width: 0.3"/>
    </g>
    <g clip-path="url(#p6174b8bd0d)">
     <use xlink:href="#C0_0_dae3429762" x="30.964417" y="25.922366" style="fill: #bdbdbd; stroke: #d9d9d9; stroke-width: 0.3"/>
    </g>
    <g clip-path="url(#p6174b8bd0d)">
     <use xlink:href="#C0_0_dae3429762" x="31.566644" y="27.700166" style="fill: #bbbbbb; stroke: #d9d9d9; stroke-width: 0.3"/>
    </g>
    <g clip-path="url(#p6174b8bd0d)">
     <use xlink:href="#C0_0_dae3429762" x="32.168871" y="49.152286" style="fill: #bababa; stroke: #d9d9d9; stroke-width: 0.3"/>
    </g>
    <g clip-path="url(#p6174b8bd0d)">
     <use xlink:href="#C0_0_dae3429762" x="32.771098" y="39.789206" style="fill: #b9b9b9; stroke: #d9d9d9; stroke-width: 0.3"/>
    </g>
    <g clip-path="url(#p6174b8bd0d)">
     <use xlink:href="#C0_0_dae3429762" x="33.373325" y="51.404166" style="fill: #b8b8b8; stroke: #d9d9d9; stroke-width: 0.3"/>
    </g>
    <g clip-path="url(#p6174b8bd0d)">
     <use xlink:href="#C0_0_dae3429762" x="33.975551" y="31.255766" style="fill: #b8b8b8; stroke: #d9d9d9; stroke-width: 0.3"/>
    </g>
    <g clip-path="url(#p6174b8bd0d)">
     <use xlink:href="#C0_0_dae3429762" x="34.577778" y="58.100546" style="fill: #b6b6b6; stroke: #d9d9d9; stroke-width: 0.3"/>
    </g>
    <g clip-path="url(#p6174b8bd0d)">
     <use xlink:href="#C0_0_dae3429762" x="35.180005" y="43.700366" style="fill: #b5b5b5; stroke: #d9d9d9; stroke-width: 0.3"/>
    </g>
    <g clip-path="url(#p6174b8bd0d)">
     <use xlink:href="#C0_0_dae3429762" x="35.782232" y="54.544946" style="fill: #b4b4b4; stroke: #d9d9d9; stroke-width: 0.3"/>
    </g>
    <g clip-path="url(#p6174b8bd0d)">
     <use xlink:href="#C0_0_dae3429762" x="36.384459" y="28.529806" style="fill: #b3b3b3; stroke: #d9d9d9; stroke-width: 0.3"/>
    </g>
    <g clip-path="url(#p6174b8bd0d)">
     <use xlink:href="#C0_0_dae3429762" x="36.986686" y="40.500326" style="fill: #b3b3b3; stroke: #d9d9d9; stroke-width: 0.3"/>
    </g>
    <g clip-path="url(#p6174b8bd0d)">
     <use xlink:href="#C0_0_dae3429762" x="37.588913" y="51.522686" style="fill: #b2b2b2; stroke: #d9d9d9; stroke-width: 0.3"/>
    </g>
    <g clip-path="url(#p6174b8bd0d)">
     <use xlink:href="#C0_0_dae3429762" x="38.19114" y="50.456006" style="fill: #b0b0b0; stroke: #d9d9d9; stroke-width: 0.3"/>
    </g>
    <g clip-path="url(#p6174b8bd0d)">
     <use xlink:href="#C0_0_dae3429762" x="38.793367" y="37.715106" style="fill: #afafaf; stroke: #d9d9d9; stroke-width: 0.3"/>
    </g>
    <g clip-path="url(#p6174b8bd0d)">
     <use xlink:href="#C0_0_dae3429762" x="39.395593" y="46.307806" style="fill: #aeaeae; stroke: #d9d9d9; stroke-width: 0.3"/>
    </g>
    <g clip-path="url(#p6174b8bd0d)">
     <use xlink:href="#C0_0_dae3429762" x="39.99782" y="41.804046" style="fill: #adadad; stroke: #d9d9d9; stroke-width: 0.3"/>
    </g>
    <g clip-path="url(#p6174b8bd0d)">
     <use xlink:href="#C0_0_dae3429762" x="40.600047" y="33.152086" style="fill: #adadad; stroke: #d9d9d9; stroke-width: 0.3"/>
    </g>
    <g clip-path="url(#p6174b8bd0d)">
     <use xlink:href="#C0_0_dae3429762" x="41.202274" y="30.485386" style="fill: #ababab; stroke: #d9d9d9; stroke-width: 0.3"/>
    </g>
    <g clip-path="url(#p6174b8bd0d)">
     <use xlink:href="#C0_0_dae3429762" x="41.804501" y="43.581846" style="fill: #aaaaaa; stroke: #d9d9d9; stroke-width: 0.3"/>
    </g>
    <g clip-path="url(#p6174b8bd0d)">
     <use xlink:href="#C0_0_dae3429762" x="42.406728" y="33.981726" style="fill: #a9a9a9; stroke: #d9d9d9; stroke-width: 0.3"/>
    </g>
    <g clip-path="url(#p6174b8bd0d)">
     <use xlink:href="#C0_0_dae3429762" x="43.008955" y="46.130026" style="fill: #a8a8a8; stroke: #d9d9d9; stroke-width: 0.3"/>
    </g>
    <g clip-path="url(#p6174b8bd0d)">
     <use xlink:href="#C0_0_dae3429762" x="43.611182" y="50.811566" style="fill: #a8a8a8; stroke: #d9d9d9; stroke-width: 0.3"/>
    </g>
    <g clip-path="url(#p6174b8bd0d)">
     <use xlink:href="#C0_0_dae3429762" x="44.213409" y="34.574326" style="fill: #a7a7a7; stroke: #d9d9d9; stroke-width: 0.3"/>
    </g>
    <g clip-path="url(#p6174b8bd0d)">
     <use xlink:href="#C0_0_dae3429762" x="44.815636" y="59.996866" style="fill: #a5a5a5; stroke: #d9d9d9; stroke-width: 0.3"/>
    </g>
    <g clip-path="url(#p6174b8bd0d)">
     <use xlink:href="#C0_0_dae3429762" x="45.417862" y="51.048606" style="fill: #a4a4a4; stroke: #d9d9d9; stroke-width: 0.3"/>
    </g>
    <g clip-path="url(#p6174b8bd0d)">
     <use xlink:href="#C0_0_dae3429762" x="46.020089" y="27.403866" style="fill: #a3a3a3; stroke: #d9d9d9; stroke-width: 0.3"/>
    </g>
    <g clip-path="url(#p6174b8bd0d)">
     <use xlink:href="#C0_0_dae3429762" x="46.622316" y="43.107766" style="fill: #a3a3a3; stroke: #d9d9d9; stroke-width: 0.3"/>
    </g>
    <g clip-path="url(#p6174b8bd0d)">
     <use xlink:href="#C0_0_dae3429762" x="47.82677" y="33.981726" style="fill: #a2a2a2; stroke: #d9d9d9; stroke-width: 0.3"/>
    </g>
    <g clip-path="url(#p6174b8bd0d)">
     <use xlink:href="#C0_0_dae3429762" x="48.428997" y="33.863206" style="fill: #a0a0a0; stroke: #d9d9d9; stroke-width: 0.3"/>
    </g>
    <g clip-path="url(#p6174b8bd0d)">
     <use xlink:href="#C0_0_dae3429762" x="49.031224" y="41.211446" style="fill: #9f9f9f; stroke: #d9d9d9; stroke-width: 0.3"/>
    </g>
    <g clip-path="url(#p6174b8bd0d)">
     <use xlink:href="#C0_0_dae3429762" x="49.633451" y="32.500226" style="fill: #9e9e9e; stroke: #d9d9d9; stroke-width: 0.3"/>
    </g>
    <g clip-path="url(#p6174b8bd0d)">
     <use xlink:href="#C0_0_dae3429762" x="50.235678" y="29.833526" style="fill: #9d9d9d; stroke: #d9d9d9; stroke-width: 0.3"/>
    </g>
    <g clip-path="url(#p6174b8bd0d)">
     <use xlink:href="#C0_0_dae3429762" x="50.837904" y="34.396546" style="fill: #9d9d9d; stroke: #d9d9d9; stroke-width: 0.3"/>
    </g>
    <g clip-path="url(#p6174b8bd0d)">
     <use xlink:href="#C0_0_dae3429762" x="51.440131" y="46.189286" style="fill: #9c9c9c; stroke: #d9d9d9; stroke-width: 0.3"/>
    </g>
    <g clip-path="url(#p6174b8bd0d)">
     <use xlink:href="#C0_0_dae3429762" x="52.042358" y="49.922666" style="fill: #9a9a9a; stroke: #d9d9d9; stroke-width: 0.3"/>
    </g>
    <g clip-path="url(#p6174b8bd0d)">
     <use xlink:href="#C0_0_dae3429762" x="52.644585" y="34.989146" style="fill: #999999; stroke: #d9d9d9; stroke-width: 0.3"/>
    </g>
    <g clip-path="url(#p6174b8bd0d)">
     <use xlink:href="#C0_0_dae3429762" x="53.246812" y="29.477966" style="fill: #989898; stroke: #d9d9d9; stroke-width: 0.3"/>
    </g>
    <g clip-path="url(#p6174b8bd0d)">
     <use xlink:href="#C0_0_dae3429762" x="53.849039" y="33.033566" style="fill: #989898; stroke: #d9d9d9; stroke-width: 0.3"/>
    </g>
    <g clip-path="url(#p6174b8bd0d)">
     <use xlink:href="#C0_0_dae3429762" x="54.451266" y="28.707586" style="fill: #979797; stroke: #d9d9d9; stroke-width: 0.3"/>
    </g>
    <g clip-path="url(#p6174b8bd0d)">
     <use xlink:href="#C0_0_dae3429762" x="55.053493" y="46.485586" style="fill: #959595; stroke: #d9d9d9; stroke-width: 0.3"/>
    </g>
    <g clip-path="url(#p6174b8bd0d)">
     <use xlink:href="#C0_0_dae3429762" x="55.65572" y="41.389226" style="fill: #949494; stroke: #d9d9d9; stroke-width: 0.3"/>
    </g>
    <g clip-path="url(#p6174b8bd0d)">
     <use xlink:href="#C0_0_dae3429762" x="56.257946" y="45.004086" style="fill: #939393; stroke: #d9d9d9; stroke-width: 0.3"/>
    </g>
    <g clip-path="url(#p6174b8bd0d)">
     <use xlink:href="#C0_0_dae3429762" x="56.860173" y="35.937306" style="fill: #939393; stroke: #d9d9d9; stroke-width: 0.3"/>
    </g>
    <g clip-path="url(#p6174b8bd0d)">
     <use xlink:href="#C0_0_dae3429762" x="57.4624" y="57.626466" style="fill: #929292; stroke: #d9d9d9; stroke-width: 0.3"/>
    </g>
    <g clip-path="url(#p6174b8bd0d)">
     <use xlink:href="#C0_0_dae3429762" x="58.064627" y="32.974306" style="fill: #919191; stroke: #d9d9d9; stroke-width: 0.3"/>
    </g>
    <g clip-path="url(#p6174b8bd0d)">
     <use xlink:href="#C0_0_dae3429762" x="58.666854" y="37.300286" style="fill: #909090; stroke: #d9d9d9; stroke-width: 0.3"/>
    </g>
    <g clip-path="url(#p6174b8bd0d)">
     <use xlink:href="#C0_0_dae3429762" x="59.269081" y="28.411286" style="fill: #8f8f8f; stroke: #d9d9d9; stroke-width: 0.3"/>
    </g>
    <g clip-path="url(#p6174b8bd0d)">
     <use xlink:href="#C0_0_dae3429762" x="59.871308" y="27.344606" style="fill: #8f8f8f; stroke: #d9d9d9; stroke-width: 0.3"/>
    </g>
    <g clip-path="url(#p6174b8bd0d)">
     <use xlink:href="#C0_0_dae3429762" x="60.473535" y="27.463126" style="fill: #8e8e8e; stroke: #d9d9d9; stroke-width: 0.3"/>
    </g>
    <g clip-path="url(#p6174b8bd0d)">
     <use xlink:href="#C0_0_dae3429762" x="61.075762" y="35.700266" style="fill: #8d8d8d; stroke: #d9d9d9; stroke-width: 0.3"/>
    </g>
    <g clip-path="url(#p6174b8bd0d)">
     <use xlink:href="#C0_0_dae3429762" x="61.677988" y="59.996866" style="fill: #8c8c8c; stroke: #d9d9d9; stroke-width: 0.3"/>
    </g>
    <g clip-path="url(#p6174b8bd0d)">
     <use xlink:href="#C0_0_dae3429762" x="62.280215" y="27.581646" style="fill: #8a8a8a; stroke: #d9d9d9; stroke-width: 0.3"/>
    </g>
    <g clip-path="url(#p6174b8bd0d)">
     <use xlink:href="#C0_0_dae3429762" x="62.882442" y="31.433546" style="fill: #898989; stroke: #d9d9d9; stroke-width: 0.3"/>
    </g>
    <g clip-path="url(#p6174b8bd0d)">
     <use xlink:href="#C0_0_dae3429762" x="63.484669" y="29.181666" style="fill: #898989; stroke: #d9d9d9; stroke-width: 0.3"/>
    </g>
    <g clip-path="url(#p6174b8bd0d)">
     <use xlink:href="#C0_0_dae3429762" x="64.086896" y="30.959466" style="fill: #888888; stroke: #d9d9d9; stroke-width: 0.3"/>
    </g>
    <g clip-path="url(#p6174b8bd0d)">
     <use xlink:href="#C0_0_dae3429762" x="64.689123" y="27.344606" style="fill: #878787; stroke: #d9d9d9; stroke-width: 0.3"/>
    </g>
    <g clip-path="url(#p6174b8bd0d)">
     <use xlink:href="#C0_0_dae3429762" x="65.29135" y="55.730146" style="fill: #868686; stroke: #d9d9d9; stroke-width: 0.3"/>
    </g>
    <g clip-path="url(#p6174b8bd0d)">
     <use xlink:href="#C0_0_dae3429762" x="65.893577" y="40.204026" style="fill: #858585; stroke: #d9d9d9; stroke-width: 0.3"/>
    </g>
    <g clip-path="url(#p6174b8bd0d)">
     <use xlink:href="#C0_0_dae3429762" x="66.495804" y="38.900306" style="fill: #858585; stroke: #d9d9d9; stroke-width: 0.3"/>
    </g>
    <g clip-path="url(#p6174b8bd0d)">
     <use xlink:href="#C0_0_dae3429762" x="67.09803" y="45.774466" style="fill: #848484; stroke: #d9d9d9; stroke-width: 0.3"/>
    </g>
    <g clip-path="url(#p6174b8bd0d)">
     <use xlink:href="#C0_0_dae3429762" x="67.700257" y="48.263386" style="fill: #838383; stroke: #d9d9d9; stroke-width: 0.3"/>
    </g>
    <g clip-path="url(#p6174b8bd0d)">
     <use xlink:href="#C0_0_dae3429762" x="68.302484" y="45.774466" style="fill: #828282; stroke: #d9d9d9; stroke-width: 0.3"/>
    </g>
    <g clip-path="url(#p6174b8bd0d)">
     <use xlink:href="#C0_0_dae3429762" x="68.904711" y="38.959566" style="fill: #818181; stroke: #d9d9d9; stroke-width: 0.3"/>
    </g>
    <g clip-path="url(#p6174b8bd0d)">
     <use xlink:href="#C0_0_dae3429762" x="69.506938" y="38.129926" style="fill: #818181; stroke: #d9d9d9; stroke-width: 0.3"/>
    </g>
    <g clip-path="url(#p6174b8bd0d)">
     <use xlink:href="#C0_0_dae3429762" x="70.109165" y="42.752206" style="fill: #7f7f7f; stroke: #d9d9d9; stroke-width: 0.3"/>
    </g>
    <g clip-path="url(#p6174b8bd0d)">
     <use xlink:href="#C0_0_dae3429762" x="70.711392" y="53.478266" style="fill: #7e7e7e; stroke: #d9d9d9; stroke-width: 0.3"/>
    </g>
    <g clip-path="url(#p6174b8bd0d)">
     <use xlink:href="#C0_0_dae3429762" x="71.313619" y="30.248346" style="fill: #7d7d7d; stroke: #d9d9d9; stroke-width: 0.3"/>
    </g>
    <g clip-path="url(#p6174b8bd0d)">
     <use xlink:href="#C0_0_dae3429762" x="71.915846" y="50.218966" style="fill: #7c7c7c; stroke: #d9d9d9; stroke-width: 0.3"/>
    </g>
    <g clip-path="url(#p6174b8bd0d)">
     <use xlink:href="#C0_0_dae3429762" x="72.518072" y="31.137246" style="fill: #7c7c7c; stroke: #d9d9d9; stroke-width: 0.3"/>
    </g>
    <g clip-path="url(#p6174b8bd0d)">
     <use xlink:href="#C0_0_dae3429762" x="73.120299" y="30.544646" style="fill: #7b7b7b; stroke: #d9d9d9; stroke-width: 0.3"/>
    </g>
    <g clip-path="url(#p6174b8bd0d)">
     <use xlink:href="#C0_0_dae3429762" x="73.722526" y="31.789106" style="fill: #7a7a7a; stroke: #d9d9d9; stroke-width: 0.3"/>
    </g>
    <g clip-path="url(#p6174b8bd0d)">
     <use xlink:href="#C0_0_dae3429762" x="74.324753" y="44.767046" style="fill: #797979; stroke: #d9d9d9; stroke-width: 0.3"/>
    </g>
    <g clip-path="url(#p6174b8bd0d)">
     <use xlink:href="#C0_0_dae3429762" x="74.92698" y="27.996466" style="fill: #787878; stroke: #d9d9d9; stroke-width: 0.3"/>
    </g>
    <g clip-path="url(#p6174b8bd0d)">
     <use xlink:href="#C0_0_dae3429762" x="75.529207" y="32.855786" style="fill: #777777; stroke: #d9d9d9; stroke-width: 0.3"/>
    </g>
    <g clip-path="url(#p6174b8bd0d)">
     <use xlink:href="#C0_0_dae3429762" x="76.131434" y="35.818786" style="fill: #777777; stroke: #d9d9d9; stroke-width: 0.3"/>
    </g>
    <g clip-path="url(#p6174b8bd0d)">
     <use xlink:href="#C0_0_dae3429762" x="76.733661" y="41.448486" style="fill: #767676; stroke: #d9d9d9; stroke-width: 0.3"/>
    </g>
    <g clip-path="url(#p6174b8bd0d)">
     <use xlink:href="#C0_0_dae3429762" x="77.335888" y="53.774566" style="fill: #757575; stroke: #d9d9d9; stroke-width: 0.3"/>
    </g>
    <g clip-path="url(#p6174b8bd0d)">
     <use xlink:href="#C0_0_dae3429762" x="77.938114" y="36.233606" style="fill: #737373; stroke: #d9d9d9; stroke-width: 0.3"/>
    </g>
    <g clip-path="url(#p6174b8bd0d)">
     <use xlink:href="#C0_0_dae3429762" x="78.540341" y="30.426126" style="fill: #727272; stroke: #d9d9d9; stroke-width: 0.3"/>
    </g>
    <g clip-path="url(#p6174b8bd0d)">
     <use xlink:href="#C0_0_dae3429762" x="79.142568" y="30.248346" style="fill: #727272; stroke: #d9d9d9; stroke-width: 0.3"/>
    </g>
    <g clip-path="url(#p6174b8bd0d)">
     <use xlink:href="#C0_0_dae3429762" x="79.744795" y="30.959466" style="fill: #717171; stroke: #d9d9d9; stroke-width: 0.3"/>
    </g>
    <g clip-path="url(#p6174b8bd0d)">
     <use xlink:href="#C0_0_dae3429762" x="80.347022" y="47.137446" style="fill: #707070; stroke: #d9d9d9; stroke-width: 0.3"/>
    </g>
    <g clip-path="url(#p6174b8bd0d)">
     <use xlink:href="#C0_0_dae3429762" x="80.949249" y="34.337286" style="fill: #6f6f6f; stroke: #d9d9d9; stroke-width: 0.3"/>
    </g>
    <g clip-path="url(#p6174b8bd0d)">
     <use xlink:href="#C0_0_dae3429762" x="81.551476" y="31.137246" style="fill: #6e6e6e; stroke: #d9d9d9; stroke-width: 0.3"/>
    </g>
    <g clip-path="url(#p6174b8bd0d)">
     <use xlink:href="#C0_0_dae3429762" x="82.153703" y="46.604106" style="fill: #6e6e6e; stroke: #d9d9d9; stroke-width: 0.3"/>
    </g>
    <g clip-path="url(#p6174b8bd0d)">
     <use xlink:href="#C0_0_dae3429762" x="82.75593" y="57.448686" style="fill: #6d6d6d; stroke: #d9d9d9; stroke-width: 0.3"/>
    </g>
    <g clip-path="url(#p6174b8bd0d)">
     <use xlink:href="#C0_0_dae3429762" x="83.358157" y="57.982026" style="fill: #6c6c6c; stroke: #d9d9d9; stroke-width: 0.3"/>
    </g>
    <g clip-path="url(#p6174b8bd0d)">
     <use xlink:href="#C0_0_dae3429762" x="83.960383" y="63.967286" style="fill: #6b6b6b; stroke: #d9d9d9; stroke-width: 0.3"/>
    </g>
    <g clip-path="url(#p6174b8bd0d)">
     <use xlink:href="#C0_0_dae3429762" x="84.56261" y="63.789506" style="fill: #6a6a6a; stroke: #d9d9d9; stroke-width: 0.3"/>
    </g>
    <g clip-path="url(#p6174b8bd0d)">
     <use xlink:href="#C0_0_dae3429762" x="85.164837" y="65.448786" style="fill: #6a6a6a; stroke: #d9d9d9; stroke-width: 0.3"/>
    </g>
    <g clip-path="url(#p6174b8bd0d)">
     <use xlink:href="#C0_0_dae3429762" x="85.767064" y="51.226386" style="fill: #696969; stroke: #d9d9d9; stroke-width: 0.3"/>
    </g>
    <g clip-path="url(#p6174b8bd0d)">
     <use xlink:href="#C0_0_dae3429762" x="86.369291" y="38.900306" style="fill: #686868; stroke: #d9d9d9; stroke-width: 0.3"/>
    </g>
    <g clip-path="url(#p6174b8bd0d)">
     <use xlink:href="#C0_0_dae3429762" x="86.971518" y="28.826106" style="fill: #676767; stroke: #d9d9d9; stroke-width: 0.3"/>
    </g>
    <g clip-path="url(#p6174b8bd0d)">
     <use xlink:href="#C0_0_dae3429762" x="87.573745" y="33.152086" style="fill: #666666; stroke: #d9d9d9; stroke-width: 0.3"/>
    </g>
    <g clip-path="url(#p6174b8bd0d)">
     <use xlink:href="#C0_0_dae3429762" x="88.175972" y="27.996466" style="fill: #656565; stroke: #d9d9d9; stroke-width: 0.3"/>
    </g>
    <g clip-path="url(#p6174b8bd0d)">
     <use xlink:href="#C0_0_dae3429762" x="88.778199" y="28.529806" style="fill: #656565; stroke: #d9d9d9; stroke-width: 0.3"/>
    </g>
    <g clip-path="url(#p6174b8bd0d)">
     <use xlink:href="#C0_0_dae3429762" x="89.380425" y="29.596486" style="fill: #646464; stroke: #d9d9d9; stroke-width: 0.3"/>
    </g>
    <g clip-path="url(#p6174b8bd0d)">
     <use xlink:href="#C0_0_dae3429762" x="89.982652" y="41.211446" style="fill: #636363; stroke: #d9d9d9; stroke-width: 0.3"/>
    </g>
    <g clip-path="url(#p6174b8bd0d)">
     <use xlink:href="#C0_0_dae3429762" x="90.584879" y="39.907726" style="fill: #626262; stroke: #d9d9d9; stroke-width: 0.3"/>
    </g>
    <g clip-path="url(#p6174b8bd0d)">
     <use xlink:href="#C0_0_dae3429762" x="91.187106" y="28.292766" style="fill: #616161; stroke: #d9d9d9; stroke-width: 0.3"/>
    </g>
    <g clip-path="url(#p6174b8bd0d)">
     <use xlink:href="#C0_0_dae3429762" x="91.789333" y="26.811266" style="fill: #616161; stroke: #d9d9d9; stroke-width: 0.3"/>
    </g>
    <g clip-path="url(#p6174b8bd0d)">
     <use xlink:href="#C0_0_dae3429762" x="92.39156" y="29.655746" style="fill: #606060; stroke: #d9d9d9; stroke-width: 0.3"/>
    </g>
    <g clip-path="url(#p6174b8bd0d)">
     <use xlink:href="#C0_0_dae3429762" x="92.993787" y="26.337186" style="fill: #5f5f5f; stroke: #d9d9d9; stroke-width: 0.3"/>
    </g>
    <g clip-path="url(#p6174b8bd0d)">
     <use xlink:href="#C0_0_dae3429762" x="93.596014" y="26.574226" style="fill: #5e5e5e; stroke: #d9d9d9; stroke-width: 0.3"/>
    </g>
    <g clip-path="url(#p6174b8bd0d)">
     <use xlink:href="#C0_0_dae3429762" x="94.198241" y="29.359446" style="fill: #5d5d5d; stroke: #d9d9d9; stroke-width: 0.3"/>
    </g>
    <g clip-path="url(#p6174b8bd0d)">
     <use xlink:href="#C0_0_dae3429762" x="94.800467" y="30.959466" style="fill: #5d5d5d; stroke: #d9d9d9; stroke-width: 0.3"/>
    </g>
    <g clip-path="url(#p6174b8bd0d)">
     <use xlink:href="#C0_0_dae3429762" x="95.402694" y="24.322346" style="fill: #5c5c5c; stroke: #d9d9d9; stroke-width: 0.3"/>
    </g>
    <g clip-path="url(#p6174b8bd0d)">
     <use xlink:href="#C0_0_dae3429762" x="96.004921" y="37.241026" style="fill: #5b5b5b; stroke: #d9d9d9; stroke-width: 0.3"/>
    </g>
    <g clip-path="url(#p6174b8bd0d)">
     <use xlink:href="#C0_0_dae3429762" x="96.607148" y="35.641006" style="fill: #5a5a5a; stroke: #d9d9d9; stroke-width: 0.3"/>
    </g>
    <g clip-path="url(#p6174b8bd0d)">
     <use xlink:href="#C0_0_dae3429762" x="97.209375" y="24.144566" style="fill: #585858; stroke: #d9d9d9; stroke-width: 0.3"/>
    </g>
    <g clip-path="url(#p6174b8bd0d)">
     <use xlink:href="#C0_0_dae3429762" x="97.811602" y="27.937206" style="fill: #575757; stroke: #d9d9d9; stroke-width: 0.3"/>
    </g>
    <g clip-path="url(#p6174b8bd0d)">
     <use xlink:href="#C0_0_dae3429762" x="98.413829" y="27.344606" style="fill: #575757; stroke: #d9d9d9; stroke-width: 0.3"/>
    </g>
    <g clip-path="url(#p6174b8bd0d)">
     <use xlink:href="#C0_0_dae3429762" x="99.016056" y="26.989046" style="fill: #565656; stroke: #d9d9d9; stroke-width: 0.3"/>
    </g>
    <g clip-path="url(#p6174b8bd0d)">
     <use xlink:href="#C0_0_dae3429762" x="99.618283" y="26.929786" style="fill: #555555; stroke: #d9d9d9; stroke-width: 0.3"/>
    </g>
    <g clip-path="url(#p6174b8bd0d)">
     <use xlink:href="#C0_0_dae3429762" x="100.220509" y="26.989046" style="fill: #545454; stroke: #d9d9d9; stroke-width: 0.3"/>
    </g>
    <g clip-path="url(#p6174b8bd0d)">
     <use xlink:href="#C0_0_dae3429762" x="100.822736" y="32.263186" style="fill: #535353; stroke: #d9d9d9; stroke-width: 0.3"/>
    </g>
    <g clip-path="url(#p6174b8bd0d)">
     <use xlink:href="#C0_0_dae3429762" x="101.424963" y="46.900406" style="fill: #535353; stroke: #d9d9d9; stroke-width: 0.3"/>
    </g>
    <g clip-path="url(#p6174b8bd0d)">
     <use xlink:href="#C0_0_dae3429762" x="102.02719" y="28.114986" style="fill: #525252; stroke: #d9d9d9; stroke-width: 0.3"/>
    </g>
    <g clip-path="url(#p6174b8bd0d)">
     <use xlink:href="#C0_0_dae3429762" x="102.629417" y="29.300186" style="fill: #515151; stroke: #d9d9d9; stroke-width: 0.3"/>
    </g>
    <g clip-path="url(#p6174b8bd0d)">
     <use xlink:href="#C0_0_dae3429762" x="103.231644" y="27.877946" style="fill: #505050; stroke: #d9d9d9; stroke-width: 0.3"/>
    </g>
    <g clip-path="url(#p6174b8bd0d)">
     <use xlink:href="#C0_0_dae3429762" x="103.833871" y="26.396446" style="fill: #4e4e4e; stroke: #d9d9d9; stroke-width: 0.3"/>
    </g>
    <g clip-path="url(#p6174b8bd0d)">
     <use xlink:href="#C0_0_dae3429762" x="104.436098" y="40.204026" style="fill: #4e4e4e; stroke: #d9d9d9; stroke-width: 0.3"/>
    </g>
    <g clip-path="url(#p6174b8bd0d)">
     <use xlink:href="#C0_0_dae3429762" x="105.038325" y="28.944626" style="fill: #4d4d4d; stroke: #d9d9d9; stroke-width: 0.3"/>
    </g>
    <g clip-path="url(#p6174b8bd0d)">
     <use xlink:href="#C0_0_dae3429762" x="105.640551" y="32.915046" style="fill: #4b4b4b; stroke: #d9d9d9; stroke-width: 0.3"/>
    </g>
    <g clip-path="url(#p6174b8bd0d)">
     <use xlink:href="#C0_0_dae3429762" x="106.242778" y="28.352026" style="fill: #4a4a4a; stroke: #d9d9d9; stroke-width: 0.3"/>
    </g>
    <g clip-path="url(#p6174b8bd0d)">
     <use xlink:href="#C0_0_dae3429762" x="106.845005" y="27.937206" style="fill: #484848; stroke: #d9d9d9; stroke-width: 0.3"/>
    </g>
    <g clip-path="url(#p6174b8bd0d)">
     <use xlink:href="#C0_0_dae3429762" x="107.447232" y="26.692746" style="fill: #484848; stroke: #d9d9d9; stroke-width: 0.3"/>
    </g>
    <g clip-path="url(#p6174b8bd0d)">
     <use xlink:href="#C0_0_dae3429762" x="108.049459" y="25.744586" style="fill: #474747; stroke: #d9d9d9; stroke-width: 0.3"/>
    </g>
    <g clip-path="url(#p6174b8bd0d)">
     <use xlink:href="#C0_0_dae3429762" x="108.651686" y="23.551966" style="fill: #464646; stroke: #d9d9d9; stroke-width: 0.3"/>
    </g>
    <g clip-path="url(#p6174b8bd0d)">
     <use xlink:href="#C0_0_dae3429762" x="109.253913" y="23.077886" style="fill: #444444; stroke: #d9d9d9; stroke-width: 0.3"/>
    </g>
    <g clip-path="url(#p6174b8bd0d)">
     <use xlink:href="#C0_0_dae3429762" x="109.85614" y="37.241026" style="fill: #434343; stroke: #d9d9d9; stroke-width: 0.3"/>
    </g>
    <g clip-path="url(#p6174b8bd0d)">
     <use xlink:href="#C0_0_dae3429762" x="110.458367" y="43.107766" style="fill: #414141; stroke: #d9d9d9; stroke-width: 0.3"/>
    </g>
    <g clip-path="url(#p6174b8bd0d)">
     <use xlink:href="#C0_0_dae3429762" x="111.060593" y="28.411286" style="fill: #414141; stroke: #d9d9d9; stroke-width: 0.3"/>
    </g>
    <g clip-path="url(#p6174b8bd0d)">
     <use xlink:href="#C0_0_dae3429762" x="111.66282" y="25.507546" style="fill: #404040; stroke: #d9d9d9; stroke-width: 0.3"/>
    </g>
    <g clip-path="url(#p6174b8bd0d)">
     <use xlink:href="#C0_0_dae3429762" x="112.265047" y="23.077886" style="fill: #3f3f3f; stroke: #d9d9d9; stroke-width: 0.3"/>
    </g>
    <g clip-path="url(#p6174b8bd0d)">
     <use xlink:href="#C0_0_dae3429762" x="112.867274" y="28.589066" style="fill: #3d3d3d; stroke: #d9d9d9; stroke-width: 0.3"/>
    </g>
    <g clip-path="url(#p6174b8bd0d)">
     <use xlink:href="#C0_0_dae3429762" x="113.469501" y="29.715006" style="fill: #3c3c3c; stroke: #d9d9d9; stroke-width: 0.3"/>
    </g>
    <g clip-path="url(#p6174b8bd0d)">
     <use xlink:href="#C0_0_dae3429762" x="114.071728" y="32.678006" style="fill: #3c3c3c; stroke: #d9d9d9; stroke-width: 0.3"/>
    </g>
    <g clip-path="url(#p6174b8bd0d)">
     <use xlink:href="#C0_0_dae3429762" x="114.673955" y="32.144666" style="fill: #3a3a3a; stroke: #d9d9d9; stroke-width: 0.3"/>
    </g>
    <g clip-path="url(#p6174b8bd0d)">
     <use xlink:href="#C0_0_dae3429762" x="115.276182" y="27.759426" style="fill: #393939; stroke: #d9d9d9; stroke-width: 0.3"/>
    </g>
    <g clip-path="url(#p6174b8bd0d)">
     <use xlink:href="#C0_0_dae3429762" x="115.878409" y="37.655846" style="fill: #383838; stroke: #d9d9d9; stroke-width: 0.3"/>
    </g>
    <g clip-path="url(#p6174b8bd0d)">
     <use xlink:href="#C0_0_dae3429762" x="116.480636" y="26.100146" style="fill: #363636; stroke: #d9d9d9; stroke-width: 0.3"/>
    </g>
    <g clip-path="url(#p6174b8bd0d)">
     <use xlink:href="#C0_0_dae3429762" x="117.082862" y="27.522386" style="fill: #363636; stroke: #d9d9d9; stroke-width: 0.3"/>
    </g>
    <g clip-path="url(#p6174b8bd0d)">
     <use xlink:href="#C0_0_dae3429762" x="117.685089" y="40.322546" style="fill: #353535; stroke: #d9d9d9; stroke-width: 0.3"/>
    </g>
    <g clip-path="url(#p6174b8bd0d)">
     <use xlink:href="#C0_0_dae3429762" x="118.287316" y="27.640906" style="fill: #333333; stroke: #d9d9d9; stroke-width: 0.3"/>
    </g>
    <g clip-path="url(#p6174b8bd0d)">
     <use xlink:href="#C0_0_dae3429762" x="118.889543" y="33.092826" style="fill: #323232; stroke: #d9d9d9; stroke-width: 0.3"/>
    </g>
    <g clip-path="url(#p6174b8bd0d)">
     <use xlink:href="#C0_0_dae3429762" x="119.49177" y="27.996466" style="fill: #303030; stroke: #d9d9d9; stroke-width: 0.3"/>
    </g>
    <g clip-path="url(#p6174b8bd0d)">
     <use xlink:href="#C0_0_dae3429762" x="120.093997" y="25.922366" style="fill: #303030; stroke: #d9d9d9; stroke-width: 0.3"/>
    </g>
    <g clip-path="url(#p6174b8bd0d)">
     <use xlink:href="#C0_0_dae3429762" x="120.696224" y="41.567006" style="fill: #2f2f2f; stroke: #d9d9d9; stroke-width: 0.3"/>
    </g>
    <g clip-path="url(#p6174b8bd0d)">
     <use xlink:href="#C0_0_dae3429762" x="121.298451" y="25.566806" style="fill: #2e2e2e; stroke: #d9d9d9; stroke-width: 0.3"/>
    </g>
   </g>
   <g id="patch_3">
    <path d="M 25.544375 68.607344 
L 25.544375 9.347344 
" style="fill: none; stroke: #000000; stroke-width: 0.5; stroke-linejoin: miter; stroke-linecap: square"/>
   </g>
   <g id="patch_4">
    <path d="M 25.544375 68.607344 
L 97.209375 68.607344 
" style="fill: none; stroke: #000000; stroke-width: 0.5; stroke-linejoin: miter; stroke-linecap: square"/>
   </g>
   <g id="legend_1"/>
  </g>
 </g>
 <defs>
  <clipPath id="p6174b8bd0d">
   <rect x="25.544375" y="9.347344" width="71.665" height="59.26"/>
  </clipPath>
 </defs>
</svg>
