<?xml version="1.0" encoding="utf-8" standalone="no"?>
<!DOCTYPE svg PUBLIC "-//W3C//DTD SVG 1.1//EN"
  "http://www.w3.org/Graphics/SVG/1.1/DTD/svg11.dtd">
<svg xmlns:xlink="http://www.w3.org/1999/xlink" width="201.6pt" height="244.8pt" viewBox="0 0 201.6 244.8" xmlns="http://www.w3.org/2000/svg" version="1.1">
 <metadata>
  <rdf:RDF xmlns:dc="http://purl.org/dc/elements/1.1/" xmlns:cc="http://creativecommons.org/ns#" xmlns:rdf="http://www.w3.org/1999/02/22-rdf-syntax-ns#">
   <cc:Work>
    <dc:type rdf:resource="http://purl.org/dc/dcmitype/StillImage"/>
    <dc:date>2026-03-21T21:50:46.499609</dc:date>
    <dc:format>image/svg+xml</dc:format>
    <dc:creator>
     <cc:Agent>
      <dc:title>Matplotlib v3.9.4, https://matplotlib.org/</dc:title>
     </cc:Agent>
    </dc:creator>
   </cc:Work>
  </rdf:RDF>
 </metadata>
 <defs>
  <style type="text/css">*{stroke-linejoin: round; stroke-linecap: butt}</style>
 </defs>
 <g id="figure_1">
  <g id="patch_1">
   <path d="M 0 244.8 
L 201.6 244.8 
L 201.6 0 
L 0 0 
z
" style="fill: #ffffff"/>
  </g>
  <g id="axes_1">
   <g id="patch_2">
    <path d="M 46.46 209.32 
L 190.8 209.32 
L 190.8 10.8 
L 46.46 10.8 
z
" style="fill: #ffffff"/>
   </g>
   <g id="PolyCollection_1">
    <path d="M 53.020909 110.584475 
L 53.020909 163.136128 
L 54.1925 127.635743 
L 55.364091 123.413496 
L 56.535682 114.977449 
L 57.707273 114.354146 
L 58.878864 114.354146 
L 60.050455 109.187075 
L 61.222045 107.457112 
L 62.393636 104.163695 
L 63.565227 103.672967 
L 64.736818 103.706531 
L 65.908409 101.545089 
L 67.08 99.646618 
L 68.251591 99.646618 
L 69.423182 96.545187 
L 70.594773 96.385687 
L 71.766364 95.283628 
L 72.937955 94.832388 
L 74.109545 94.720379 
L 75.281136 90.857424 
L 76.452727 90.855586 
L 77.624318 90.855586 
L 78.795909 88.997094 
L 79.9675 88.762757 
L 81.139091 88.75833 
L 82.310682 88.419183 
L 83.482273 87.844802 
L 84.653864 87.883339 
L 85.825455 87.883339 
L 86.997045 87.380459 
L 88.168636 87.043161 
L 89.340227 86.588582 
L 90.511818 86.377461 
L 91.683409 83.984006 
L 92.855 83.465564 
L 94.026591 82.7842 
L 95.198182 82.128153 
L 96.369773 82.117413 
L 97.541364 81.145936 
L 98.712955 81.055884 
L 99.884545 81.014843 
L 101.056136 81.014843 
L 102.227727 80.984392 
L 103.399318 80.944836 
L 104.570909 80.19366 
L 105.7425 79.326976 
L 106.914091 79.326976 
L 108.085682 78.414152 
L 109.257273 76.125768 
L 110.428864 76.125768 
L 111.600455 75.745473 
L 112.772045 75.816933 
L 113.943636 75.523037 
L 115.115227 75.16381 
L 116.286818 75.340742 
L 117.458409 75.340742 
L 118.63 75.340742 
L 119.801591 75.340742 
L 120.973182 75.340742 
L 122.144773 75.340742 
L 123.316364 75.340742 
L 124.487955 75.340742 
L 125.659545 75.094746 
L 126.831136 74.938627 
L 128.002727 74.396666 
L 129.174318 74.295247 
L 130.345909 74.295247 
L 131.5175 74.295247 
L 132.689091 74.274035 
L 133.860682 74.138943 
L 135.032273 74.170757 
L 136.203864 73.932914 
L 137.375455 73.750287 
L 138.547045 73.750287 
L 139.718636 73.750287 
L 140.890227 73.668298 
L 142.061818 73.668298 
L 143.233409 73.566982 
L 144.405 73.566982 
L 145.576591 73.566982 
L 146.748182 73.566982 
L 147.919773 73.566982 
L 149.091364 73.566982 
L 150.262955 73.566982 
L 151.434545 73.227186 
L 152.606136 72.576335 
L 153.777727 72.372804 
L 154.949318 72.372804 
L 156.120909 72.372804 
L 157.2925 72.372804 
L 158.464091 72.372804 
L 159.635682 72.372804 
L 160.807273 72.260121 
L 161.978864 72.321049 
L 163.150455 72.321049 
L 164.322045 72.321049 
L 165.493636 71.835555 
L 166.665227 71.835555 
L 167.836818 71.835555 
L 169.008409 71.835555 
L 170.18 71.835555 
L 171.351591 71.835555 
L 172.523182 71.835555 
L 173.694773 71.835555 
L 174.866364 71.835555 
L 176.037955 71.486439 
L 177.209545 71.486439 
L 178.381136 71.486439 
L 179.552727 71.486439 
L 180.724318 71.480958 
L 181.895909 71.480958 
L 183.0675 71.480958 
L 184.239091 71.480958 
L 184.239091 65.231157 
L 184.239091 65.231157 
L 183.0675 65.231157 
L 181.895909 65.231157 
L 180.724318 65.231157 
L 179.552727 65.238893 
L 178.381136 65.238893 
L 177.209545 65.238893 
L 176.037955 65.238893 
L 174.866364 65.230184 
L 173.694773 65.230184 
L 172.523182 65.230184 
L 171.351591 65.230184 
L 170.18 65.230184 
L 169.008409 65.230184 
L 167.836818 65.230184 
L 166.665227 65.230184 
L 165.493636 65.230184 
L 164.322045 65.995697 
L 163.150455 65.995697 
L 161.978864 65.995697 
L 160.807273 66.22022 
L 159.635682 66.23036 
L 158.464091 66.23036 
L 157.2925 66.23036 
L 156.120909 66.23036 
L 154.949318 66.23036 
L 153.777727 66.23036 
L 152.606136 67.002499 
L 151.434545 67.433774 
L 150.262955 67.999798 
L 149.091364 67.999798 
L 147.919773 67.999798 
L 146.748182 67.999798 
L 145.576591 67.999798 
L 144.405 67.999798 
L 143.233409 67.999798 
L 142.061818 68.21042 
L 140.890227 68.21042 
L 139.718636 68.257253 
L 138.547045 68.257253 
L 137.375455 68.257253 
L 136.203864 68.304208 
L 135.032273 68.352376 
L 133.860682 68.436451 
L 132.689091 68.482339 
L 131.5175 68.56626 
L 130.345909 68.56626 
L 129.174318 68.56626 
L 128.002727 68.576886 
L 126.831136 68.681882 
L 125.659545 68.729621 
L 124.487955 68.782751 
L 123.316364 68.782751 
L 122.144773 68.782751 
L 120.973182 68.782751 
L 119.801591 68.782751 
L 118.63 68.782751 
L 117.458409 68.782751 
L 116.286818 68.782751 
L 115.115227 69.309546 
L 113.943636 69.759854 
L 112.772045 69.763967 
L 111.600455 71.005602 
L 110.428864 71.07898 
L 109.257273 71.07898 
L 108.085682 70.438643 
L 106.914091 70.449941 
L 105.7425 70.449941 
L 104.570909 70.114609 
L 103.399318 70.276472 
L 102.227727 70.338692 
L 101.056136 70.379211 
L 99.884545 70.379211 
L 98.712955 70.78259 
L 97.541364 70.779673 
L 96.369773 70.612851 
L 95.198182 70.638205 
L 94.026591 70.446201 
L 92.855 71.297991 
L 91.683409 71.995987 
L 90.511818 72.398995 
L 89.340227 72.387665 
L 88.168636 74.437234 
L 86.997045 74.527479 
L 85.825455 75.871724 
L 84.653864 75.871724 
L 83.482273 76.46327 
L 82.310682 76.287962 
L 81.139091 76.222728 
L 79.9675 76.296386 
L 78.795909 76.845657 
L 77.624318 76.400953 
L 76.452727 76.400953 
L 75.281136 76.434904 
L 74.109545 79.346031 
L 72.937955 79.695931 
L 71.766364 79.978681 
L 70.594773 79.775427 
L 69.423182 81.052592 
L 68.251591 81.964366 
L 67.08 81.964366 
L 65.908409 82.967591 
L 64.736818 84.761095 
L 63.565227 85.382746 
L 62.393636 85.414524 
L 61.222045 86.994785 
L 60.050455 89.376042 
L 58.878864 87.955178 
L 57.707273 87.955178 
L 56.535682 90.663758 
L 55.364091 95.652645 
L 54.1925 114.320339 
L 53.020909 110.584475 
z
" clip-path="url(#p6fee3112bc)" style="fill: #1f77b4; fill-opacity: 0.2"/>
   </g>
   <g id="matplotlib.axis_1">
    <g id="xtick_1">
     <g id="line2d_1">
      <defs>
       <path id="mc8c807ac86" d="M 0 0 
L 0 3.5 
" style="stroke: #000000; stroke-width: 0.8"/>
      </defs>
      <g>
       <use xlink:href="#mc8c807ac86" x="51.849318" y="209.32" style="stroke: #000000; stroke-width: 0.8"/>
      </g>
     </g>
     <g id="text_1">
      <!-- 0 -->
      <g transform="translate(49.940568 220.879063) scale(0.06 -0.06)">
       <defs>
        <path id="DejaVuSans-30" d="M 2034 4250 
Q 1547 4250 1301 3770 
Q 1056 3291 1056 2328 
Q 1056 1369 1301 889 
Q 1547 409 2034 409 
Q 2525 409 2770 889 
Q 3016 1369 3016 2328 
Q 3016 3291 2770 3770 
Q 2525 4250 2034 4250 
z
M 2034 4750 
Q 2819 4750 3233 4129 
Q 3647 3509 3647 2328 
Q 3647 1150 3233 529 
Q 2819 -91 2034 -91 
Q 1250 -91 836 529 
Q 422 1150 422 2328 
Q 422 3509 836 4129 
Q 1250 4750 2034 4750 
z
" transform="scale(0.015625)"/>
       </defs>
       <use xlink:href="#DejaVuSans-30"/>
      </g>
     </g>
    </g>
    <g id="xtick_2">
     <g id="line2d_2">
      <g>
       <use xlink:href="#mc8c807ac86" x="75.281136" y="209.32" style="stroke: #000000; stroke-width: 0.8"/>
      </g>
     </g>
     <g id="text_2">
      <!-- 20 -->
      <g transform="translate(71.463636 220.879063) scale(0.06 -0.06)">
       <defs>
        <path id="DejaVuSans-32" d="M 1228 531 
L 3431 531 
L 3431 0 
L 469 0 
L 469 531 
Q 828 903 1448 1529 
Q 2069 2156 2228 2338 
Q 2531 2678 2651 2914 
Q 2772 3150 2772 3378 
Q 2772 3750 2511 3984 
Q 2250 4219 1831 4219 
Q 1534 4219 1204 4116 
Q 875 4013 500 3803 
L 500 4441 
Q 881 4594 1212 4672 
Q 1544 4750 1819 4750 
Q 2544 4750 2975 4387 
Q 3406 4025 3406 3419 
Q 3406 3131 3298 2873 
Q 3191 2616 2906 2266 
Q 2828 2175 2409 1742 
Q 1991 1309 1228 531 
z
" transform="scale(0.015625)"/>
       </defs>
       <use xlink:href="#DejaVuSans-32"/>
       <use xlink:href="#DejaVuSans-30" x="63.623047"/>
      </g>
     </g>
    </g>
    <g id="xtick_3">
     <g id="line2d_3">
      <g>
       <use xlink:href="#mc8c807ac86" x="98.712955" y="209.32" style="stroke: #000000; stroke-width: 0.8"/>
      </g>
     </g>
     <g id="text_3">
      <!-- 40 -->
      <g transform="translate(94.895455 220.879063) scale(0.06 -0.06)">
       <defs>
        <path id="DejaVuSans-34" d="M 2419 4116 
L 825 1625 
L 2419 1625 
L 2419 4116 
z
M 2253 4666 
L 3047 4666 
L 3047 1625 
L 3713 1625 
L 3713 1100 
L 3047 1100 
L 3047 0 
L 2419 0 
L 2419 1100 
L 313 1100 
L 313 1709 
L 2253 4666 
z
" transform="scale(0.015625)"/>
       </defs>
       <use xlink:href="#DejaVuSans-34"/>
       <use xlink:href="#DejaVuSans-30" x="63.623047"/>
      </g>
     </g>
    </g>
    <g id="xtick_4">
     <g id="line2d_4">
      <g>
       <use xlink:href="#mc8c807ac86" x="122.144773" y="209.32" style="stroke: #000000; stroke-width: 0.8"/>
      </g>
     </g>
     <g id="text_4">
      <!-- 60 -->
      <g transform="translate(118.327273 220.879063) scale(0.06 -0.06)">
       <defs>
        <path id="DejaVuSans-36" d="M 2113 2584 
Q 1688 2584 1439 2293 
Q 1191 2003 1191 1497 
Q 1191 994 1439 701 
Q 1688 409 2113 409 
Q 2538 409 2786 701 
Q 3034 994 3034 1497 
Q 3034 2003 2786 2293 
Q 2538 2584 2113 2584 
z
M 3366 4563 
L 3366 3988 
Q 3128 4100 2886 4159 
Q 2644 4219 2406 4219 
Q 1781 4219 1451 3797 
Q 1122 3375 1075 2522 
Q 1259 2794 1537 2939 
Q 1816 3084 2150 3084 
Q 2853 3084 3261 2657 
Q 3669 2231 3669 1497 
Q 3669 778 3244 343 
Q 2819 -91 2113 -91 
Q 1303 -91 875 529 
Q 447 1150 447 2328 
Q 447 3434 972 4092 
Q 1497 4750 2381 4750 
Q 2619 4750 2861 4703 
Q 3103 4656 3366 4563 
z
" transform="scale(0.015625)"/>
       </defs>
       <use xlink:href="#DejaVuSans-36"/>
       <use xlink:href="#DejaVuSans-30" x="63.623047"/>
      </g>
     </g>
    </g>
    <g id="xtick_5">
     <g id="line2d_5">
      <g>
       <use xlink:href="#mc8c807ac86" x="145.576591" y="209.32" style="stroke: #000000; stroke-width: 0.8"/>
      </g>
     </g>
     <g id="text_5">
      <!-- 80 -->
      <g transform="translate(141.759091 220.879063) scale(0.06 -0.06)">
       <defs>
        <path id="DejaVuSans-38" d="M 2034 2216 
Q 1584 2216 1326 1975 
Q 1069 1734 1069 1313 
Q 1069 891 1326 650 
Q 1584 409 2034 409 
Q 2484 409 2743 651 
Q 3003 894 3003 1313 
Q 3003 1734 2745 1975 
Q 2488 2216 2034 2216 
z
M 1403 2484 
Q 997 2584 770 2862 
Q 544 3141 544 3541 
Q 544 4100 942 4425 
Q 1341 4750 2034 4750 
Q 2731 4750 3128 4425 
Q 3525 4100 3525 3541 
Q 3525 3141 3298 2862 
Q 3072 2584 2669 2484 
Q 3125 2378 3379 2068 
Q 3634 1759 3634 1313 
Q 3634 634 3220 271 
Q 2806 -91 2034 -91 
Q 1263 -91 848 271 
Q 434 634 434 1313 
Q 434 1759 690 2068 
Q 947 2378 1403 2484 
z
M 1172 3481 
Q 1172 3119 1398 2916 
Q 1625 2713 2034 2713 
Q 2441 2713 2670 2916 
Q 2900 3119 2900 3481 
Q 2900 3844 2670 4047 
Q 2441 4250 2034 4250 
Q 1625 4250 1398 4047 
Q 1172 3844 1172 3481 
z
" transform="scale(0.015625)"/>
       </defs>
       <use xlink:href="#DejaVuSans-38"/>
       <use xlink:href="#DejaVuSans-30" x="63.623047"/>
      </g>
     </g>
    </g>
    <g id="xtick_6">
     <g id="line2d_6">
      <g>
       <use xlink:href="#mc8c807ac86" x="169.008409" y="209.32" style="stroke: #000000; stroke-width: 0.8"/>
      </g>
     </g>
     <g id="text_6">
      <!-- 100 -->
      <g transform="translate(163.282159 220.879063) scale(0.06 -0.06)">
       <defs>
        <path id="DejaVuSans-31" d="M 794 531 
L 1825 531 
L 1825 4091 
L 703 3866 
L 703 4441 
L 1819 4666 
L 2450 4666 
L 2450 531 
L 3481 531 
L 3481 0 
L 794 0 
L 794 531 
z
" transform="scale(0.015625)"/>
       </defs>
       <use xlink:href="#DejaVuSans-31"/>
       <use xlink:href="#DejaVuSans-30" x="63.623047"/>
       <use xlink:href="#DejaVuSans-30" x="127.246094"/>
      </g>
     </g>
    </g>
    <g id="text_7">
     <!-- Trial index -->
     <g transform="translate(100.791484 231.445781) scale(0.07 -0.07)">
      <defs>
       <path id="DejaVuSans-54" d="M -19 4666 
L 3928 4666 
L 3928 4134 
L 2272 4134 
L 2272 0 
L 1638 0 
L 1638 4134 
L -19 4134 
L -19 4666 
z
" transform="scale(0.015625)"/>
       <path id="DejaVuSans-72" d="M 2631 2963 
Q 2534 3019 2420 3045 
Q 2306 3072 2169 3072 
Q 1681 3072 1420 2755 
Q 1159 2438 1159 1844 
L 1159 0 
L 581 0 
L 581 3500 
L 1159 3500 
L 1159 2956 
Q 1341 3275 1631 3429 
Q 1922 3584 2338 3584 
Q 2397 3584 2469 3576 
Q 2541 3569 2628 3553 
L 2631 2963 
z
" transform="scale(0.015625)"/>
       <path id="DejaVuSans-69" d="M 603 3500 
L 1178 3500 
L 1178 0 
L 603 0 
L 603 3500 
z
M 603 4863 
L 1178 4863 
L 1178 4134 
L 603 4134 
L 603 4863 
z
" transform="scale(0.015625)"/>
       <path id="DejaVuSans-61" d="M 2194 1759 
Q 1497 1759 1228 1600 
Q 959 1441 959 1056 
Q 959 750 1161 570 
Q 1363 391 1709 391 
Q 2188 391 2477 730 
Q 2766 1069 2766 1631 
L 2766 1759 
L 2194 1759 
z
M 3341 1997 
L 3341 0 
L 2766 0 
L 2766 531 
Q 2569 213 2275 61 
Q 1981 -91 1556 -91 
Q 1019 -91 701 211 
Q 384 513 384 1019 
Q 384 1609 779 1909 
Q 1175 2209 1959 2209 
L 2766 2209 
L 2766 2266 
Q 2766 2663 2505 2880 
Q 2244 3097 1772 3097 
Q 1472 3097 1187 3025 
Q 903 2953 641 2809 
L 641 3341 
Q 956 3463 1253 3523 
Q 1550 3584 1831 3584 
Q 2591 3584 2966 3190 
Q 3341 2797 3341 1997 
z
" transform="scale(0.015625)"/>
       <path id="DejaVuSans-6c" d="M 603 4863 
L 1178 4863 
L 1178 0 
L 603 0 
L 603 4863 
z
" transform="scale(0.015625)"/>
       <path id="DejaVuSans-20" transform="scale(0.015625)"/>
       <path id="DejaVuSans-6e" d="M 3513 2113 
L 3513 0 
L 2938 0 
L 2938 2094 
Q 2938 2591 2744 2837 
Q 2550 3084 2163 3084 
Q 1697 3084 1428 2787 
Q 1159 2491 1159 1978 
L 1159 0 
L 581 0 
L 581 3500 
L 1159 3500 
L 1159 2956 
Q 1366 3272 1645 3428 
Q 1925 3584 2291 3584 
Q 2894 3584 3203 3211 
Q 3513 2838 3513 2113 
z
" transform="scale(0.015625)"/>
       <path id="DejaVuSans-64" d="M 2906 2969 
L 2906 4863 
L 3481 4863 
L 3481 0 
L 2906 0 
L 2906 525 
Q 2725 213 2448 61 
Q 2172 -91 1784 -91 
Q 1150 -91 751 415 
Q 353 922 353 1747 
Q 353 2572 751 3078 
Q 1150 3584 1784 3584 
Q 2172 3584 2448 3432 
Q 2725 3281 2906 2969 
z
M 947 1747 
Q 947 1113 1208 752 
Q 1469 391 1925 391 
Q 2381 391 2643 752 
Q 2906 1113 2906 1747 
Q 2906 2381 2643 2742 
Q 2381 3103 1925 3103 
Q 1469 3103 1208 2742 
Q 947 2381 947 1747 
z
" transform="scale(0.015625)"/>
       <path id="DejaVuSans-65" d="M 3597 1894 
L 3597 1613 
L 953 1613 
Q 991 1019 1311 708 
Q 1631 397 2203 397 
Q 2534 397 2845 478 
Q 3156 559 3463 722 
L 3463 178 
Q 3153 47 2828 -22 
Q 2503 -91 2169 -91 
Q 1331 -91 842 396 
Q 353 884 353 1716 
Q 353 2575 817 3079 
Q 1281 3584 2069 3584 
Q 2775 3584 3186 3129 
Q 3597 2675 3597 1894 
z
M 3022 2063 
Q 3016 2534 2758 2815 
Q 2500 3097 2075 3097 
Q 1594 3097 1305 2825 
Q 1016 2553 972 2059 
L 3022 2063 
z
" transform="scale(0.015625)"/>
       <path id="DejaVuSans-78" d="M 3513 3500 
L 2247 1797 
L 3578 0 
L 2900 0 
L 1881 1375 
L 863 0 
L 184 0 
L 1544 1831 
L 300 3500 
L 978 3500 
L 1906 2253 
L 2834 3500 
L 3513 3500 
z
" transform="scale(0.015625)"/>
      </defs>
      <use xlink:href="#DejaVuSans-54"/>
      <use xlink:href="#DejaVuSans-72" x="46.333984"/>
      <use xlink:href="#DejaVuSans-69" x="87.447266"/>
      <use xlink:href="#DejaVuSans-61" x="115.230469"/>
      <use xlink:href="#DejaVuSans-6c" x="176.509766"/>
      <use xlink:href="#DejaVuSans-20" x="204.292969"/>
      <use xlink:href="#DejaVuSans-69" x="236.080078"/>
      <use xlink:href="#DejaVuSans-6e" x="263.863281"/>
      <use xlink:href="#DejaVuSans-64" x="327.242188"/>
      <use xlink:href="#DejaVuSans-65" x="390.71875"/>
      <use xlink:href="#DejaVuSans-78" x="450.492188"/>
     </g>
    </g>
   </g>
   <g id="matplotlib.axis_2">
    <g id="ytick_1">
     <g id="line2d_7">
      <defs>
       <path id="mbd666a2ba8" d="M 0 0 
L -3.5 0 
" style="stroke: #000000; stroke-width: 0.8"/>
      </defs>
      <g>
       <use xlink:href="#mbd666a2ba8" x="46.46" y="184.613029" style="stroke: #000000; stroke-width: 0.8"/>
      </g>
     </g>
     <g id="text_8">
      <!-- −0.8 -->
      <g transform="translate(24.890313 186.892561) scale(0.06 -0.06)">
       <defs>
        <path id="DejaVuSans-2212" d="M 678 2272 
L 4684 2272 
L 4684 1741 
L 678 1741 
L 678 2272 
z
" transform="scale(0.015625)"/>
        <path id="DejaVuSans-2e" d="M 684 794 
L 1344 794 
L 1344 0 
L 684 0 
L 684 794 
z
" transform="scale(0.015625)"/>
       </defs>
       <use xlink:href="#DejaVuSans-2212"/>
       <use xlink:href="#DejaVuSans-30" x="83.789062"/>
       <use xlink:href="#DejaVuSans-2e" x="147.412109"/>
       <use xlink:href="#DejaVuSans-38" x="179.199219"/>
      </g>
     </g>
    </g>
    <g id="ytick_2">
     <g id="line2d_8">
      <g>
       <use xlink:href="#mbd666a2ba8" x="46.46" y="159.194335" style="stroke: #000000; stroke-width: 0.8"/>
      </g>
     </g>
     <g id="text_9">
      <!-- −0.7 -->
      <g transform="translate(24.890313 161.473867) scale(0.06 -0.06)">
       <defs>
        <path id="DejaVuSans-37" d="M 525 4666 
L 3525 4666 
L 3525 4397 
L 1831 0 
L 1172 0 
L 2766 4134 
L 525 4134 
L 525 4666 
z
" transform="scale(0.015625)"/>
       </defs>
       <use xlink:href="#DejaVuSans-2212"/>
       <use xlink:href="#DejaVuSans-30" x="83.789062"/>
       <use xlink:href="#DejaVuSans-2e" x="147.412109"/>
       <use xlink:href="#DejaVuSans-37" x="179.199219"/>
      </g>
     </g>
    </g>
    <g id="ytick_3">
     <g id="line2d_9">
      <g>
       <use xlink:href="#mbd666a2ba8" x="46.46" y="133.775641" style="stroke: #000000; stroke-width: 0.8"/>
      </g>
     </g>
     <g id="text_10">
      <!-- −0.6 -->
      <g transform="translate(24.890313 136.055173) scale(0.06 -0.06)">
       <use xlink:href="#DejaVuSans-2212"/>
       <use xlink:href="#DejaVuSans-30" x="83.789062"/>
       <use xlink:href="#DejaVuSans-2e" x="147.412109"/>
       <use xlink:href="#DejaVuSans-36" x="179.199219"/>
      </g>
     </g>
    </g>
    <g id="ytick_4">
     <g id="line2d_10">
      <g>
       <use xlink:href="#mbd666a2ba8" x="46.46" y="108.356948" style="stroke: #000000; stroke-width: 0.8"/>
      </g>
     </g>
     <g id="text_11">
      <!-- −0.5 -->
      <g transform="translate(24.890313 110.636479) scale(0.06 -0.06)">
       <defs>
        <path id="DejaVuSans-35" d="M 691 4666 
L 3169 4666 
L 3169 4134 
L 1269 4134 
L 1269 2991 
Q 1406 3038 1543 3061 
Q 1681 3084 1819 3084 
Q 2600 3084 3056 2656 
Q 3513 2228 3513 1497 
Q 3513 744 3044 326 
Q 2575 -91 1722 -91 
Q 1428 -91 1123 -41 
Q 819 9 494 109 
L 494 744 
Q 775 591 1075 516 
Q 1375 441 1709 441 
Q 2250 441 2565 725 
Q 2881 1009 2881 1497 
Q 2881 1984 2565 2268 
Q 2250 2553 1709 2553 
Q 1456 2553 1204 2497 
Q 953 2441 691 2322 
L 691 4666 
z
" transform="scale(0.015625)"/>
       </defs>
       <use xlink:href="#DejaVuSans-2212"/>
       <use xlink:href="#DejaVuSans-30" x="83.789062"/>
       <use xlink:href="#DejaVuSans-2e" x="147.412109"/>
       <use xlink:href="#DejaVuSans-35" x="179.199219"/>
      </g>
     </g>
    </g>
    <g id="ytick_5">
     <g id="line2d_11">
      <g>
       <use xlink:href="#mbd666a2ba8" x="46.46" y="82.938254" style="stroke: #000000; stroke-width: 0.8"/>
      </g>
     </g>
     <g id="text_12">
      <!-- −0.4 -->
      <g transform="translate(24.890313 85.217785) scale(0.06 -0.06)">
       <use xlink:href="#DejaVuSans-2212"/>
       <use xlink:href="#DejaVuSans-30" x="83.789062"/>
       <use xlink:href="#DejaVuSans-2e" x="147.412109"/>
       <use xlink:href="#DejaVuSans-34" x="179.199219"/>
      </g>
     </g>
    </g>
    <g id="ytick_6">
     <g id="line2d_12">
      <g>
       <use xlink:href="#mbd666a2ba8" x="46.46" y="57.51956" style="stroke: #000000; stroke-width: 0.8"/>
      </g>
     </g>
     <g id="text_13">
      <!-- −0.3 -->
      <g transform="translate(24.890313 59.799091) scale(0.06 -0.06)">
       <defs>
        <path id="DejaVuSans-33" d="M 2597 2516 
Q 3050 2419 3304 2112 
Q 3559 1806 3559 1356 
Q 3559 666 3084 287 
Q 2609 -91 1734 -91 
Q 1441 -91 1130 -33 
Q 819 25 488 141 
L 488 750 
Q 750 597 1062 519 
Q 1375 441 1716 441 
Q 2309 441 2620 675 
Q 2931 909 2931 1356 
Q 2931 1769 2642 2001 
Q 2353 2234 1838 2234 
L 1294 2234 
L 1294 2753 
L 1863 2753 
Q 2328 2753 2575 2939 
Q 2822 3125 2822 3475 
Q 2822 3834 2567 4026 
Q 2313 4219 1838 4219 
Q 1578 4219 1281 4162 
Q 984 4106 628 3988 
L 628 4550 
Q 988 4650 1302 4700 
Q 1616 4750 1894 4750 
Q 2613 4750 3031 4423 
Q 3450 4097 3450 3541 
Q 3450 3153 3228 2886 
Q 3006 2619 2597 2516 
z
" transform="scale(0.015625)"/>
       </defs>
       <use xlink:href="#DejaVuSans-2212"/>
       <use xlink:href="#DejaVuSans-30" x="83.789062"/>
       <use xlink:href="#DejaVuSans-2e" x="147.412109"/>
       <use xlink:href="#DejaVuSans-33" x="179.199219"/>
      </g>
     </g>
    </g>
    <g id="ytick_7">
     <g id="line2d_13">
      <g>
       <use xlink:href="#mbd666a2ba8" x="46.46" y="32.100866" style="stroke: #000000; stroke-width: 0.8"/>
      </g>
     </g>
     <g id="text_14">
      <!-- −0.2 -->
      <g transform="translate(24.890313 34.380397) scale(0.06 -0.06)">
       <use xlink:href="#DejaVuSans-2212"/>
       <use xlink:href="#DejaVuSans-30" x="83.789062"/>
       <use xlink:href="#DejaVuSans-2e" x="147.412109"/>
       <use xlink:href="#DejaVuSans-32" x="179.199219"/>
      </g>
     </g>
    </g>
    <g id="text_15">
     <!-- Best-so-far $η_{50}$ (V) -->
     <g transform="translate(19.420312 141.91) rotate(-90) scale(0.07 -0.07)">
      <defs>
       <path id="DejaVuSans-42" d="M 1259 2228 
L 1259 519 
L 2272 519 
Q 2781 519 3026 730 
Q 3272 941 3272 1375 
Q 3272 1813 3026 2020 
Q 2781 2228 2272 2228 
L 1259 2228 
z
M 1259 4147 
L 1259 2741 
L 2194 2741 
Q 2656 2741 2882 2914 
Q 3109 3088 3109 3444 
Q 3109 3797 2882 3972 
Q 2656 4147 2194 4147 
L 1259 4147 
z
M 628 4666 
L 2241 4666 
Q 2963 4666 3353 4366 
Q 3744 4066 3744 3513 
Q 3744 3084 3544 2831 
Q 3344 2578 2956 2516 
Q 3422 2416 3680 2098 
Q 3938 1781 3938 1306 
Q 3938 681 3513 340 
Q 3088 0 2303 0 
L 628 0 
L 628 4666 
z
" transform="scale(0.015625)"/>
       <path id="DejaVuSans-73" d="M 2834 3397 
L 2834 2853 
Q 2591 2978 2328 3040 
Q 2066 3103 1784 3103 
Q 1356 3103 1142 2972 
Q 928 2841 928 2578 
Q 928 2378 1081 2264 
Q 1234 2150 1697 2047 
L 1894 2003 
Q 2506 1872 2764 1633 
Q 3022 1394 3022 966 
Q 3022 478 2636 193 
Q 2250 -91 1575 -91 
Q 1294 -91 989 -36 
Q 684 19 347 128 
L 347 722 
Q 666 556 975 473 
Q 1284 391 1588 391 
Q 1994 391 2212 530 
Q 2431 669 2431 922 
Q 2431 1156 2273 1281 
Q 2116 1406 1581 1522 
L 1381 1569 
Q 847 1681 609 1914 
Q 372 2147 372 2553 
Q 372 3047 722 3315 
Q 1072 3584 1716 3584 
Q 2034 3584 2315 3537 
Q 2597 3491 2834 3397 
z
" transform="scale(0.015625)"/>
       <path id="DejaVuSans-74" d="M 1172 4494 
L 1172 3500 
L 2356 3500 
L 2356 3053 
L 1172 3053 
L 1172 1153 
Q 1172 725 1289 603 
Q 1406 481 1766 481 
L 2356 481 
L 2356 0 
L 1766 0 
Q 1100 0 847 248 
Q 594 497 594 1153 
L 594 3053 
L 172 3053 
L 172 3500 
L 594 3500 
L 594 4494 
L 1172 4494 
z
" transform="scale(0.015625)"/>
       <path id="DejaVuSans-2d" d="M 313 2009 
L 1997 2009 
L 1997 1497 
L 313 1497 
L 313 2009 
z
" transform="scale(0.015625)"/>
       <path id="DejaVuSans-6f" d="M 1959 3097 
Q 1497 3097 1228 2736 
Q 959 2375 959 1747 
Q 959 1119 1226 758 
Q 1494 397 1959 397 
Q 2419 397 2687 759 
Q 2956 1122 2956 1747 
Q 2956 2369 2687 2733 
Q 2419 3097 1959 3097 
z
M 1959 3584 
Q 2709 3584 3137 3096 
Q 3566 2609 3566 1747 
Q 3566 888 3137 398 
Q 2709 -91 1959 -91 
Q 1206 -91 779 398 
Q 353 888 353 1747 
Q 353 2609 779 3096 
Q 1206 3584 1959 3584 
z
" transform="scale(0.015625)"/>
       <path id="DejaVuSans-66" d="M 2375 4863 
L 2375 4384 
L 1825 4384 
Q 1516 4384 1395 4259 
Q 1275 4134 1275 3809 
L 1275 3500 
L 2222 3500 
L 2222 3053 
L 1275 3053 
L 1275 0 
L 697 0 
L 697 3053 
L 147 3053 
L 147 3500 
L 697 3500 
L 697 3744 
Q 697 4328 969 4595 
Q 1241 4863 1831 4863 
L 2375 4863 
z
" transform="scale(0.015625)"/>
       <path id="DejaVuSans-Oblique-3b7" d="M 3703 2113 
L 3034 -1331 
L 2459 -1331 
L 3125 2094 
Q 3222 2591 3075 2838 
Q 2931 3084 2544 3084 
Q 2078 3084 1750 2788 
Q 1425 2491 1325 1978 
L 941 0 
L 363 0 
L 1044 3500 
L 1622 3500 
L 1516 2956 
Q 1781 3272 2094 3428 
Q 2403 3584 2769 3584 
Q 3372 3584 3609 3213 
Q 3844 2838 3703 2113 
z
" transform="scale(0.015625)"/>
       <path id="DejaVuSans-28" d="M 1984 4856 
Q 1566 4138 1362 3434 
Q 1159 2731 1159 2009 
Q 1159 1288 1364 580 
Q 1569 -128 1984 -844 
L 1484 -844 
Q 1016 -109 783 600 
Q 550 1309 550 2009 
Q 550 2706 781 3412 
Q 1013 4119 1484 4856 
L 1984 4856 
z
" transform="scale(0.015625)"/>
       <path id="DejaVuSans-56" d="M 1831 0 
L 50 4666 
L 709 4666 
L 2188 738 
L 3669 4666 
L 4325 4666 
L 2547 0 
L 1831 0 
z
" transform="scale(0.015625)"/>
       <path id="DejaVuSans-29" d="M 513 4856 
L 1013 4856 
Q 1481 4119 1714 3412 
Q 1947 2706 1947 2009 
Q 1947 1309 1714 600 
Q 1481 -109 1013 -844 
L 513 -844 
Q 928 -128 1133 580 
Q 1338 1288 1338 2009 
Q 1338 2731 1133 3434 
Q 928 4138 513 4856 
z
" transform="scale(0.015625)"/>
      </defs>
      <use xlink:href="#DejaVuSans-42" transform="translate(0 0.015625)"/>
      <use xlink:href="#DejaVuSans-65" transform="translate(68.603516 0.015625)"/>
      <use xlink:href="#DejaVuSans-73" transform="translate(130.126953 0.015625)"/>
      <use xlink:href="#DejaVuSans-74" transform="translate(182.226562 0.015625)"/>
      <use xlink:href="#DejaVuSans-2d" transform="translate(221.435547 0.015625)"/>
      <use xlink:href="#DejaVuSans-73" transform="translate(257.519531 0.015625)"/>
      <use xlink:href="#DejaVuSans-6f" transform="translate(309.619141 0.015625)"/>
      <use xlink:href="#DejaVuSans-2d" transform="translate(370.800781 0.015625)"/>
      <use xlink:href="#DejaVuSans-66" transform="translate(406.884766 0.015625)"/>
      <use xlink:href="#DejaVuSans-61" transform="translate(442.089844 0.015625)"/>
      <use xlink:href="#DejaVuSans-72" transform="translate(503.369141 0.015625)"/>
      <use xlink:href="#DejaVuSans-20" transform="translate(544.482422 0.015625)"/>
      <use xlink:href="#DejaVuSans-Oblique-3b7" transform="translate(576.269531 0.015625)"/>
      <use xlink:href="#DejaVuSans-35" transform="translate(639.648438 -16.390625) scale(0.7)"/>
      <use xlink:href="#DejaVuSans-30" transform="translate(684.18457 -16.390625) scale(0.7)"/>
      <use xlink:href="#DejaVuSans-20" transform="translate(731.455078 0.015625)"/>
      <use xlink:href="#DejaVuSans-28" transform="translate(763.242188 0.015625)"/>
      <use xlink:href="#DejaVuSans-56" transform="translate(802.255859 0.015625)"/>
      <use xlink:href="#DejaVuSans-29" transform="translate(870.664062 0.015625)"/>
     </g>
    </g>
   </g>
   <g id="line2d_14">
    <path d="M 53.020909 89.470858 
L 54.1925 89.470858 
L 55.364091 70.406837 
L 56.535682 70.406837 
L 57.707273 70.406837 
L 58.878864 56.680743 
L 60.050455 56.680743 
L 61.222045 31.516236 
L 62.393636 31.516236 
L 63.565227 31.516236 
L 64.736818 31.516236 
L 65.908409 31.516236 
L 67.08 31.516236 
L 68.251591 31.516236 
L 69.423182 31.516236 
L 70.594773 31.516236 
L 71.766364 31.516236 
L 72.937955 31.516236 
L 74.109545 31.516236 
L 75.281136 31.516236 
L 76.452727 31.516236 
L 77.624318 31.516236 
L 78.795909 31.516236 
L 79.9675 31.516236 
L 81.139091 31.516236 
L 82.310682 31.516236 
L 83.482273 31.516236 
L 84.653864 31.516236 
L 85.825455 31.516236 
L 86.997045 31.516236 
L 88.168636 31.516236 
L 89.340227 31.516236 
L 90.511818 31.516236 
L 91.683409 31.516236 
L 92.855 31.516236 
L 94.026591 31.516236 
L 95.198182 31.516236 
L 96.369773 31.516236 
L 97.541364 31.516236 
L 98.712955 31.516236 
L 99.884545 31.516236 
L 101.056136 31.516236 
L 102.227727 31.516236 
L 103.399318 31.516236 
L 104.570909 31.516236 
L 105.7425 31.516236 
L 106.914091 31.516236 
L 108.085682 31.516236 
L 109.257273 31.516236 
L 110.428864 31.516236 
L 111.600455 31.516236 
L 112.772045 31.516236 
L 113.943636 31.516236 
L 115.115227 29.228553 
L 116.286818 29.228553 
L 117.458409 29.228553 
L 118.63 25.669936 
L 119.801591 25.669936 
L 120.973182 25.669936 
L 122.144773 25.669936 
L 123.316364 25.669936 
L 124.487955 22.111319 
L 125.659545 22.111319 
L 126.831136 22.111319 
L 128.002727 22.111319 
L 129.174318 22.111319 
L 130.345909 22.111319 
L 131.5175 22.111319 
L 132.689091 22.111319 
L 133.860682 22.111319 
L 135.032273 22.111319 
L 136.203864 22.111319 
L 137.375455 22.111319 
L 138.547045 22.111319 
L 139.718636 22.111319 
L 140.890227 22.111319 
L 142.061818 22.111319 
L 143.233409 22.111319 
L 144.405 22.111319 
L 145.576591 22.111319 
L 146.748182 22.111319 
L 147.919773 22.111319 
L 149.091364 22.111319 
L 150.262955 22.111319 
L 151.434545 22.111319 
L 152.606136 22.111319 
L 153.777727 22.111319 
L 154.949318 21.857132 
L 156.120909 21.857132 
L 157.2925 21.857132 
L 158.464091 21.857132 
L 159.635682 21.857132 
L 160.807273 21.857132 
L 161.978864 21.857132 
L 163.150455 21.857132 
L 164.322045 21.857132 
L 165.493636 21.602945 
L 166.665227 21.602945 
L 167.836818 21.602945 
L 169.008409 21.602945 
L 170.18 21.602945 
L 171.351591 21.602945 
L 172.523182 21.602945 
L 173.694773 21.602945 
L 174.866364 21.602945 
L 176.037955 21.602945 
L 177.209545 21.602945 
L 178.381136 21.602945 
L 179.552727 21.602945 
L 180.724318 21.602945 
L 181.895909 21.602945 
L 183.0675 21.602945 
" clip-path="url(#p6fee3112bc)" style="fill: none; stroke: #0000ff; stroke-width: 2; stroke-linecap: square"/>
   </g>
   <g id="line2d_15">
    <path d="M 53.020909 200.296364 
L 54.1925 129.12402 
L 55.364091 102.180205 
L 56.535682 102.180205 
L 57.707273 77.524072 
L 58.878864 77.524072 
L 60.050455 77.524072 
L 61.222045 62.018668 
L 62.393636 62.018668 
L 63.565227 62.018668 
L 64.736818 62.018668 
L 65.908409 62.018668 
L 67.08 62.018668 
L 68.251591 62.018668 
L 69.423182 62.018668 
L 70.594773 62.018668 
L 71.766364 61.510294 
L 72.937955 61.510294 
L 74.109545 61.510294 
L 75.281136 61.510294 
L 76.452727 61.510294 
L 77.624318 61.510294 
L 78.795909 22.111319 
L 79.9675 22.111319 
L 81.139091 22.111319 
L 82.310682 22.111319 
L 83.482273 22.111319 
L 84.653864 22.111319 
L 85.825455 22.111319 
L 86.997045 22.111319 
L 88.168636 22.111319 
L 89.340227 22.111319 
L 90.511818 22.111319 
L 91.683409 22.111319 
L 92.855 22.111319 
L 94.026591 22.111319 
L 95.198182 22.111319 
L 96.369773 22.111319 
L 97.541364 22.111319 
L 98.712955 22.111319 
L 99.884545 22.111319 
L 101.056136 22.111319 
L 102.227727 22.111319 
L 103.399318 22.111319 
L 104.570909 22.111319 
L 105.7425 22.111319 
L 106.914091 22.111319 
L 108.085682 22.111319 
L 109.257273 22.111319 
L 110.428864 22.111319 
L 111.600455 22.111319 
L 112.772045 22.111319 
L 113.943636 22.111319 
L 115.115227 22.111319 
L 116.286818 22.111319 
L 117.458409 22.111319 
L 118.63 22.111319 
L 119.801591 22.111319 
L 120.973182 22.111319 
L 122.144773 22.111319 
L 123.316364 22.111319 
L 124.487955 22.111319 
L 125.659545 22.111319 
L 126.831136 22.111319 
L 128.002727 22.111319 
L 129.174318 22.111319 
L 130.345909 22.111319 
L 131.5175 22.111319 
L 132.689091 22.111319 
L 133.860682 22.111319 
L 135.032273 22.111319 
L 136.203864 22.111319 
L 137.375455 22.111319 
L 138.547045 22.111319 
L 139.718636 22.111319 
L 140.890227 22.111319 
L 142.061818 22.111319 
L 143.233409 22.111319 
L 144.405 22.111319 
L 145.576591 22.111319 
L 146.748182 22.111319 
L 147.919773 22.111319 
L 149.091364 22.111319 
L 150.262955 22.111319 
L 151.434545 22.111319 
L 152.606136 22.111319 
L 153.777727 22.111319 
L 154.949318 22.111319 
L 156.120909 22.111319 
L 157.2925 22.111319 
L 158.464091 22.111319 
L 159.635682 22.111319 
L 160.807273 22.111319 
L 161.978864 22.111319 
L 163.150455 22.111319 
L 164.322045 22.111319 
L 165.493636 22.111319 
L 166.665227 22.111319 
L 167.836818 22.111319 
L 169.008409 22.111319 
L 170.18 22.111319 
L 171.351591 22.111319 
L 172.523182 22.111319 
L 173.694773 22.111319 
L 174.866364 22.111319 
L 176.037955 22.111319 
L 177.209545 22.111319 
L 178.381136 22.111319 
L 179.552727 22.111319 
L 180.724318 22.111319 
L 181.895909 22.111319 
L 183.0675 22.111319 
" clip-path="url(#p6fee3112bc)" style="fill: none; stroke: #ffa500; stroke-width: 2; stroke-linecap: square"/>
   </g>
   <g id="line2d_16">
    <path d="M 53.020909 85.658054 
L 54.1925 71.423585 
L 55.364091 71.423585 
L 56.535682 67.356594 
L 57.707273 55.663995 
L 58.878864 55.663995 
L 60.050455 55.663995 
L 61.222045 55.663995 
L 62.393636 55.663995 
L 63.565227 55.663995 
L 64.736818 55.663995 
L 65.908409 55.663995 
L 67.08 54.39306 
L 68.251591 54.39306 
L 69.423182 54.39306 
L 70.594773 54.39306 
L 71.766364 54.39306 
L 72.937955 54.39306 
L 74.109545 54.39306 
L 75.281136 45.24233 
L 76.452727 45.24233 
L 77.624318 45.24233 
L 78.795909 45.24233 
L 79.9675 45.24233 
L 81.139091 45.24233 
L 82.310682 45.24233 
L 83.482273 45.24233 
L 84.653864 45.24233 
L 85.825455 45.24233 
L 86.997045 45.24233 
L 88.168636 45.24233 
L 89.340227 45.24233 
L 90.511818 45.24233 
L 91.683409 41.9379 
L 92.855 41.9379 
L 94.026591 41.9379 
L 95.198182 41.9379 
L 96.369773 41.429526 
L 97.541364 41.429526 
L 98.712955 41.429526 
L 99.884545 41.429526 
L 101.056136 41.429526 
L 102.227727 41.429526 
L 103.399318 41.429526 
L 104.570909 41.429526 
L 105.7425 41.429526 
L 106.914091 41.429526 
L 108.085682 41.429526 
L 109.257273 41.429526 
L 110.428864 41.429526 
L 111.600455 41.429526 
L 112.772045 41.429526 
L 113.943636 41.429526 
L 115.115227 41.429526 
L 116.286818 41.429526 
L 117.458409 41.429526 
L 118.63 41.429526 
L 119.801591 41.429526 
L 120.973182 41.429526 
L 122.144773 41.429526 
L 123.316364 41.429526 
L 124.487955 41.429526 
L 125.659545 41.429526 
L 126.831136 41.429526 
L 128.002727 41.429526 
L 129.174318 41.429526 
L 130.345909 41.429526 
L 131.5175 41.429526 
L 132.689091 41.429526 
L 133.860682 41.429526 
L 135.032273 41.429526 
L 136.203864 41.429526 
L 137.375455 41.429526 
L 138.547045 41.429526 
L 139.718636 41.429526 
L 140.890227 41.429526 
L 142.061818 41.429526 
L 143.233409 41.429526 
L 144.405 41.429526 
L 145.576591 41.429526 
L 146.748182 41.429526 
L 147.919773 41.429526 
L 149.091364 41.429526 
L 150.262955 41.429526 
L 151.434545 41.429526 
L 152.606136 41.429526 
L 153.777727 41.429526 
L 154.949318 41.429526 
L 156.120909 41.429526 
L 157.2925 41.429526 
L 158.464091 41.429526 
L 159.635682 41.429526 
L 160.807273 41.429526 
L 161.978864 41.429526 
L 163.150455 41.429526 
L 164.322045 41.429526 
L 165.493636 41.429526 
L 166.665227 41.429526 
L 167.836818 41.429526 
L 169.008409 41.429526 
L 170.18 41.429526 
L 171.351591 41.429526 
L 172.523182 41.429526 
L 173.694773 41.429526 
L 174.866364 41.429526 
L 176.037955 41.429526 
L 177.209545 41.429526 
L 178.381136 41.429526 
L 179.552727 41.429526 
L 180.724318 41.429526 
L 181.895909 41.429526 
L 183.0675 41.429526 
" clip-path="url(#p6fee3112bc)" style="fill: none; stroke: #008000; stroke-width: 2; stroke-linecap: square"/>
   </g>
   <g id="line2d_17">
    <path d="M 53.020909 176.148604 
L 54.1925 168.522996 
L 55.364091 168.268809 
L 56.535682 80.065941 
L 57.707273 77.015698 
L 58.878864 66.84822 
L 60.050455 66.84822 
L 61.222045 66.84822 
L 62.393636 66.84822 
L 63.565227 66.84822 
L 64.736818 66.84822 
L 65.908409 64.814725 
L 67.08 64.814725 
L 68.251591 61.764481 
L 69.423182 19.823636 
L 70.594773 19.823636 
L 71.766364 19.823636 
L 72.937955 19.823636 
L 74.109545 19.823636 
L 75.281136 19.823636 
L 76.452727 19.823636 
L 77.624318 19.823636 
L 78.795909 19.823636 
L 79.9675 19.823636 
L 81.139091 19.823636 
L 82.310682 19.823636 
L 83.482273 19.823636 
L 84.653864 19.823636 
L 85.825455 19.823636 
L 86.997045 19.823636 
L 88.168636 19.823636 
L 89.340227 19.823636 
L 90.511818 19.823636 
L 91.683409 19.823636 
L 92.855 19.823636 
L 94.026591 19.823636 
L 95.198182 19.823636 
L 96.369773 19.823636 
L 97.541364 19.823636 
L 98.712955 19.823636 
L 99.884545 19.823636 
L 101.056136 19.823636 
L 102.227727 19.823636 
L 103.399318 19.823636 
L 104.570909 19.823636 
L 105.7425 19.823636 
L 106.914091 19.823636 
L 108.085682 19.823636 
L 109.257273 19.823636 
L 110.428864 19.823636 
L 111.600455 19.823636 
L 112.772045 19.823636 
L 113.943636 19.823636 
L 115.115227 19.823636 
L 116.286818 19.823636 
L 117.458409 19.823636 
L 118.63 19.823636 
L 119.801591 19.823636 
L 120.973182 19.823636 
L 122.144773 19.823636 
L 123.316364 19.823636 
L 124.487955 19.823636 
L 125.659545 19.823636 
L 126.831136 19.823636 
L 128.002727 19.823636 
L 129.174318 19.823636 
L 130.345909 19.823636 
L 131.5175 19.823636 
L 132.689091 19.823636 
L 133.860682 19.823636 
L 135.032273 19.823636 
L 136.203864 19.823636 
L 137.375455 19.823636 
L 138.547045 19.823636 
L 139.718636 19.823636 
L 140.890227 19.823636 
L 142.061818 19.823636 
L 143.233409 19.823636 
L 144.405 19.823636 
L 145.576591 19.823636 
L 146.748182 19.823636 
L 147.919773 19.823636 
L 149.091364 19.823636 
L 150.262955 19.823636 
L 151.434545 19.823636 
L 152.606136 19.823636 
L 153.777727 19.823636 
L 154.949318 19.823636 
L 156.120909 19.823636 
L 157.2925 19.823636 
L 158.464091 19.823636 
L 159.635682 19.823636 
L 160.807273 19.823636 
L 161.978864 19.823636 
L 163.150455 19.823636 
L 164.322045 19.823636 
L 165.493636 19.823636 
L 166.665227 19.823636 
L 167.836818 19.823636 
L 169.008409 19.823636 
L 170.18 19.823636 
L 171.351591 19.823636 
L 172.523182 19.823636 
L 173.694773 19.823636 
L 174.866364 19.823636 
L 176.037955 19.823636 
L 177.209545 19.823636 
L 178.381136 19.823636 
L 179.552727 19.823636 
L 180.724318 19.823636 
L 181.895909 19.823636 
L 183.0675 19.823636 
" clip-path="url(#p6fee3112bc)" style="fill: none; stroke: #800080; stroke-width: 2; stroke-linecap: square"/>
   </g>
   <g id="line2d_18">
    <path d="M 53.020909 136.860302 
L 54.1925 120.978041 
L 55.364091 109.53307 
L 56.535682 102.820603 
L 57.707273 101.154662 
L 58.878864 101.154662 
L 60.050455 99.281559 
L 61.222045 97.225949 
L 62.393636 94.78911 
L 63.565227 94.527856 
L 64.736818 94.233813 
L 65.908409 92.25634 
L 67.08 90.805492 
L 68.251591 90.805492 
L 69.423182 88.798889 
L 70.594773 88.080557 
L 71.766364 87.631154 
L 72.937955 87.264159 
L 74.109545 87.033205 
L 75.281136 83.646164 
L 76.452727 83.628269 
L 77.624318 83.628269 
L 78.795909 82.921376 
L 79.9675 82.529572 
L 81.139091 82.490529 
L 82.310682 82.353573 
L 83.482273 82.154036 
L 84.653864 81.877531 
L 85.825455 81.877531 
L 86.997045 80.953969 
L 88.168636 80.740197 
L 89.340227 79.488123 
L 90.511818 79.388228 
L 91.683409 77.989996 
L 92.855 77.381778 
L 94.026591 76.615201 
L 95.198182 76.383179 
L 96.369773 76.365132 
L 97.541364 75.962805 
L 98.712955 75.919237 
L 99.884545 75.697027 
L 101.056136 75.697027 
L 102.227727 75.661542 
L 103.399318 75.610654 
L 104.570909 75.154134 
L 105.7425 74.888458 
L 106.914091 74.888458 
L 108.085682 74.426397 
L 109.257273 73.602374 
L 110.428864 73.602374 
L 111.600455 73.375537 
L 112.772045 72.79045 
L 113.943636 72.641446 
L 115.115227 72.236678 
L 116.286818 72.061747 
L 117.458409 72.061747 
L 118.63 72.061747 
L 119.801591 72.061747 
L 120.973182 72.061747 
L 122.144773 72.061747 
L 123.316364 72.061747 
L 124.487955 72.061747 
L 125.659545 71.912183 
L 126.831136 71.810254 
L 128.002727 71.486776 
L 129.174318 71.430753 
L 130.345909 71.430753 
L 131.5175 71.430753 
L 132.689091 71.378187 
L 133.860682 71.287697 
L 135.032273 71.261566 
L 136.203864 71.118561 
L 137.375455 71.00377 
L 138.547045 71.00377 
L 139.718636 71.00377 
L 140.890227 70.939359 
L 142.061818 70.939359 
L 143.233409 70.78339 
L 144.405 70.78339 
L 145.576591 70.78339 
L 146.748182 70.78339 
L 147.919773 70.78339 
L 149.091364 70.78339 
L 150.262955 70.78339 
L 151.434545 70.33048 
L 152.606136 69.789417 
L 153.777727 69.301582 
L 154.949318 69.301582 
L 156.120909 69.301582 
L 157.2925 69.301582 
L 158.464091 69.301582 
L 159.635682 69.301582 
L 160.807273 69.24017 
L 161.978864 69.158373 
L 163.150455 69.158373 
L 164.322045 69.158373 
L 165.493636 68.53287 
L 166.665227 68.53287 
L 167.836818 68.53287 
L 169.008409 68.53287 
L 170.18 68.53287 
L 171.351591 68.53287 
L 172.523182 68.53287 
L 173.694773 68.53287 
L 174.866364 68.53287 
L 176.037955 68.362666 
L 177.209545 68.362666 
L 178.381136 68.362666 
L 179.552727 68.362666 
L 180.724318 68.356057 
L 181.895909 68.356057 
L 183.0675 68.356057 
L 184.239091 68.356057 
" clip-path="url(#p6fee3112bc)" style="fill: none; stroke: #000000; stroke-width: 2; stroke-linecap: square"/>
   </g>
   <g id="patch_3">
    <path d="M 46.46 209.32 
L 46.46 10.8 
" style="fill: none; stroke: #000000; stroke-width: 0.8; stroke-linejoin: miter; stroke-linecap: square"/>
   </g>
   <g id="patch_4">
    <path d="M 190.8 209.32 
L 190.8 10.8 
" style="fill: none; stroke: #000000; stroke-width: 0.8; stroke-linejoin: miter; stroke-linecap: square"/>
   </g>
   <g id="patch_5">
    <path d="M 46.46 209.32 
L 190.8 209.32 
" style="fill: none; stroke: #000000; stroke-width: 0.8; stroke-linejoin: miter; stroke-linecap: square"/>
   </g>
   <g id="patch_6">
    <path d="M 46.46 10.8 
L 190.8 10.8 
" style="fill: none; stroke: #000000; stroke-width: 0.8; stroke-linejoin: miter; stroke-linecap: square"/>
   </g>
   <g id="legend_1">
    <g id="line2d_19">
     <path d="M 111.916875 166.030938 
L 117.916875 166.030938 
L 123.916875 166.030938 
" style="fill: none; stroke: #0000ff; stroke-width: 2; stroke-linecap: square"/>
    </g>
    <g id="text_16">
     <!-- Campaign 1 -->
     <g transform="translate(128.716875 168.130938) scale(0.06 -0.06)">
      <defs>
       <path id="ArialMT-43" d="M 3763 1606 
L 4369 1453 
Q 4178 706 3683 314 
Q 3188 -78 2472 -78 
Q 1731 -78 1267 223 
Q 803 525 561 1097 
Q 319 1669 319 2325 
Q 319 3041 592 3573 
Q 866 4106 1370 4382 
Q 1875 4659 2481 4659 
Q 3169 4659 3637 4309 
Q 4106 3959 4291 3325 
L 3694 3184 
Q 3534 3684 3231 3912 
Q 2928 4141 2469 4141 
Q 1941 4141 1586 3887 
Q 1231 3634 1087 3207 
Q 944 2781 944 2328 
Q 944 1744 1114 1308 
Q 1284 872 1643 656 
Q 2003 441 2422 441 
Q 2931 441 3284 734 
Q 3638 1028 3763 1606 
z
" transform="scale(0.015625)"/>
       <path id="ArialMT-61" d="M 2588 409 
Q 2275 144 1986 34 
Q 1697 -75 1366 -75 
Q 819 -75 525 192 
Q 231 459 231 875 
Q 231 1119 342 1320 
Q 453 1522 633 1644 
Q 813 1766 1038 1828 
Q 1203 1872 1538 1913 
Q 2219 1994 2541 2106 
Q 2544 2222 2544 2253 
Q 2544 2597 2384 2738 
Q 2169 2928 1744 2928 
Q 1347 2928 1158 2789 
Q 969 2650 878 2297 
L 328 2372 
Q 403 2725 575 2942 
Q 747 3159 1072 3276 
Q 1397 3394 1825 3394 
Q 2250 3394 2515 3294 
Q 2781 3194 2906 3042 
Q 3031 2891 3081 2659 
Q 3109 2516 3109 2141 
L 3109 1391 
Q 3109 606 3145 398 
Q 3181 191 3288 0 
L 2700 0 
Q 2613 175 2588 409 
z
M 2541 1666 
Q 2234 1541 1622 1453 
Q 1275 1403 1131 1340 
Q 988 1278 909 1158 
Q 831 1038 831 891 
Q 831 666 1001 516 
Q 1172 366 1500 366 
Q 1825 366 2078 508 
Q 2331 650 2450 897 
Q 2541 1088 2541 1459 
L 2541 1666 
z
" transform="scale(0.015625)"/>
       <path id="ArialMT-6d" d="M 422 0 
L 422 3319 
L 925 3319 
L 925 2853 
Q 1081 3097 1340 3245 
Q 1600 3394 1931 3394 
Q 2300 3394 2536 3241 
Q 2772 3088 2869 2813 
Q 3263 3394 3894 3394 
Q 4388 3394 4653 3120 
Q 4919 2847 4919 2278 
L 4919 0 
L 4359 0 
L 4359 2091 
Q 4359 2428 4304 2576 
Q 4250 2725 4106 2815 
Q 3963 2906 3769 2906 
Q 3419 2906 3187 2673 
Q 2956 2441 2956 1928 
L 2956 0 
L 2394 0 
L 2394 2156 
Q 2394 2531 2256 2718 
Q 2119 2906 1806 2906 
Q 1569 2906 1367 2781 
Q 1166 2656 1075 2415 
Q 984 2175 984 1722 
L 984 0 
L 422 0 
z
" transform="scale(0.015625)"/>
       <path id="ArialMT-70" d="M 422 -1272 
L 422 3319 
L 934 3319 
L 934 2888 
Q 1116 3141 1344 3267 
Q 1572 3394 1897 3394 
Q 2322 3394 2647 3175 
Q 2972 2956 3137 2557 
Q 3303 2159 3303 1684 
Q 3303 1175 3120 767 
Q 2938 359 2589 142 
Q 2241 -75 1856 -75 
Q 1575 -75 1351 44 
Q 1128 163 984 344 
L 984 -1272 
L 422 -1272 
z
M 931 1641 
Q 931 1000 1190 694 
Q 1450 388 1819 388 
Q 2194 388 2461 705 
Q 2728 1022 2728 1688 
Q 2728 2322 2467 2637 
Q 2206 2953 1844 2953 
Q 1484 2953 1207 2617 
Q 931 2281 931 1641 
z
" transform="scale(0.015625)"/>
       <path id="ArialMT-69" d="M 425 3934 
L 425 4581 
L 988 4581 
L 988 3934 
L 425 3934 
z
M 425 0 
L 425 3319 
L 988 3319 
L 988 0 
L 425 0 
z
" transform="scale(0.015625)"/>
       <path id="ArialMT-67" d="M 319 -275 
L 866 -356 
Q 900 -609 1056 -725 
Q 1266 -881 1628 -881 
Q 2019 -881 2231 -725 
Q 2444 -569 2519 -288 
Q 2563 -116 2559 434 
Q 2191 0 1641 0 
Q 956 0 581 494 
Q 206 988 206 1678 
Q 206 2153 378 2554 
Q 550 2956 876 3175 
Q 1203 3394 1644 3394 
Q 2231 3394 2613 2919 
L 2613 3319 
L 3131 3319 
L 3131 450 
Q 3131 -325 2973 -648 
Q 2816 -972 2473 -1159 
Q 2131 -1347 1631 -1347 
Q 1038 -1347 672 -1080 
Q 306 -813 319 -275 
z
M 784 1719 
Q 784 1066 1043 766 
Q 1303 466 1694 466 
Q 2081 466 2343 764 
Q 2606 1063 2606 1700 
Q 2606 2309 2336 2618 
Q 2066 2928 1684 2928 
Q 1309 2928 1046 2623 
Q 784 2319 784 1719 
z
" transform="scale(0.015625)"/>
       <path id="ArialMT-6e" d="M 422 0 
L 422 3319 
L 928 3319 
L 928 2847 
Q 1294 3394 1984 3394 
Q 2284 3394 2536 3286 
Q 2788 3178 2913 3003 
Q 3038 2828 3088 2588 
Q 3119 2431 3119 2041 
L 3119 0 
L 2556 0 
L 2556 2019 
Q 2556 2363 2490 2533 
Q 2425 2703 2258 2804 
Q 2091 2906 1866 2906 
Q 1506 2906 1245 2678 
Q 984 2450 984 1813 
L 984 0 
L 422 0 
z
" transform="scale(0.015625)"/>
       <path id="ArialMT-20" transform="scale(0.015625)"/>
       <path id="ArialMT-31" d="M 2384 0 
L 1822 0 
L 1822 3584 
Q 1619 3391 1289 3197 
Q 959 3003 697 2906 
L 697 3450 
Q 1169 3672 1522 3987 
Q 1875 4303 2022 4600 
L 2384 4600 
L 2384 0 
z
" transform="scale(0.015625)"/>
      </defs>
      <use xlink:href="#ArialMT-43"/>
      <use xlink:href="#ArialMT-61" x="72.216797"/>
      <use xlink:href="#ArialMT-6d" x="127.832031"/>
      <use xlink:href="#ArialMT-70" x="211.132812"/>
      <use xlink:href="#ArialMT-61" x="266.748047"/>
      <use xlink:href="#ArialMT-69" x="322.363281"/>
      <use xlink:href="#ArialMT-67" x="344.580078"/>
      <use xlink:href="#ArialMT-6e" x="400.195312"/>
      <use xlink:href="#ArialMT-20" x="455.810547"/>
      <use xlink:href="#ArialMT-31" x="483.59375"/>
     </g>
    </g>
    <g id="line2d_20">
     <path d="M 111.916875 174.661563 
L 117.916875 174.661563 
L 123.916875 174.661563 
" style="fill: none; stroke: #ffa500; stroke-width: 2; stroke-linecap: square"/>
    </g>
    <g id="text_17">
     <!-- Campaign 2 -->
     <g transform="translate(128.716875 176.761562) scale(0.06 -0.06)">
      <defs>
       <path id="ArialMT-32" d="M 3222 541 
L 3222 0 
L 194 0 
Q 188 203 259 391 
Q 375 700 629 1000 
Q 884 1300 1366 1694 
Q 2113 2306 2375 2664 
Q 2638 3022 2638 3341 
Q 2638 3675 2398 3904 
Q 2159 4134 1775 4134 
Q 1369 4134 1125 3890 
Q 881 3647 878 3216 
L 300 3275 
Q 359 3922 746 4261 
Q 1134 4600 1788 4600 
Q 2447 4600 2831 4234 
Q 3216 3869 3216 3328 
Q 3216 3053 3103 2787 
Q 2991 2522 2730 2228 
Q 2469 1934 1863 1422 
Q 1356 997 1212 845 
Q 1069 694 975 541 
L 3222 541 
z
" transform="scale(0.015625)"/>
      </defs>
      <use xlink:href="#ArialMT-43"/>
      <use xlink:href="#ArialMT-61" x="72.216797"/>
      <use xlink:href="#ArialMT-6d" x="127.832031"/>
      <use xlink:href="#ArialMT-70" x="211.132812"/>
      <use xlink:href="#ArialMT-61" x="266.748047"/>
      <use xlink:href="#ArialMT-69" x="322.363281"/>
      <use xlink:href="#ArialMT-67" x="344.580078"/>
      <use xlink:href="#ArialMT-6e" x="400.195312"/>
      <use xlink:href="#ArialMT-20" x="455.810547"/>
      <use xlink:href="#ArialMT-32" x="483.59375"/>
     </g>
    </g>
    <g id="line2d_21">
     <path d="M 111.916875 183.292188 
L 117.916875 183.292188 
L 123.916875 183.292188 
" style="fill: none; stroke: #008000; stroke-width: 2; stroke-linecap: square"/>
    </g>
    <g id="text_18">
     <!-- Campaign 3 -->
     <g transform="translate(128.716875 185.392188) scale(0.06 -0.06)">
      <defs>
       <path id="ArialMT-33" d="M 269 1209 
L 831 1284 
Q 928 806 1161 595 
Q 1394 384 1728 384 
Q 2125 384 2398 659 
Q 2672 934 2672 1341 
Q 2672 1728 2419 1979 
Q 2166 2231 1775 2231 
Q 1616 2231 1378 2169 
L 1441 2663 
Q 1497 2656 1531 2656 
Q 1891 2656 2178 2843 
Q 2466 3031 2466 3422 
Q 2466 3731 2256 3934 
Q 2047 4138 1716 4138 
Q 1388 4138 1169 3931 
Q 950 3725 888 3313 
L 325 3413 
Q 428 3978 793 4289 
Q 1159 4600 1703 4600 
Q 2078 4600 2393 4439 
Q 2709 4278 2876 4000 
Q 3044 3722 3044 3409 
Q 3044 3113 2884 2869 
Q 2725 2625 2413 2481 
Q 2819 2388 3044 2092 
Q 3269 1797 3269 1353 
Q 3269 753 2831 336 
Q 2394 -81 1725 -81 
Q 1122 -81 723 278 
Q 325 638 269 1209 
z
" transform="scale(0.015625)"/>
      </defs>
      <use xlink:href="#ArialMT-43"/>
      <use xlink:href="#ArialMT-61" x="72.216797"/>
      <use xlink:href="#ArialMT-6d" x="127.832031"/>
      <use xlink:href="#ArialMT-70" x="211.132812"/>
      <use xlink:href="#ArialMT-61" x="266.748047"/>
      <use xlink:href="#ArialMT-69" x="322.363281"/>
      <use xlink:href="#ArialMT-67" x="344.580078"/>
      <use xlink:href="#ArialMT-6e" x="400.195312"/>
      <use xlink:href="#ArialMT-20" x="455.810547"/>
      <use xlink:href="#ArialMT-33" x="483.59375"/>
     </g>
    </g>
    <g id="line2d_22">
     <path d="M 111.916875 191.922812 
L 117.916875 191.922812 
L 123.916875 191.922812 
" style="fill: none; stroke: #800080; stroke-width: 2; stroke-linecap: square"/>
    </g>
    <g id="text_19">
     <!-- Campaign 4 -->
     <g transform="translate(128.716875 194.022812) scale(0.06 -0.06)">
      <defs>
       <path id="ArialMT-34" d="M 2069 0 
L 2069 1097 
L 81 1097 
L 81 1613 
L 2172 4581 
L 2631 4581 
L 2631 1613 
L 3250 1613 
L 3250 1097 
L 2631 1097 
L 2631 0 
L 2069 0 
z
M 2069 1613 
L 2069 3678 
L 634 1613 
L 2069 1613 
z
" transform="scale(0.015625)"/>
      </defs>
      <use xlink:href="#ArialMT-43"/>
      <use xlink:href="#ArialMT-61" x="72.216797"/>
      <use xlink:href="#ArialMT-6d" x="127.832031"/>
      <use xlink:href="#ArialMT-70" x="211.132812"/>
      <use xlink:href="#ArialMT-61" x="266.748047"/>
      <use xlink:href="#ArialMT-69" x="322.363281"/>
      <use xlink:href="#ArialMT-67" x="344.580078"/>
      <use xlink:href="#ArialMT-6e" x="400.195312"/>
      <use xlink:href="#ArialMT-20" x="455.810547"/>
      <use xlink:href="#ArialMT-34" x="483.59375"/>
     </g>
    </g>
    <g id="line2d_23">
     <path d="M 111.916875 200.557188 
L 117.916875 200.557188 
L 123.916875 200.557188 
" style="fill: none; stroke: #000000; stroke-width: 2; stroke-linecap: square"/>
    </g>
    <g id="text_20">
     <!-- Dragonfly BO (mean) -->
     <g transform="translate(128.716875 202.657188) scale(0.06 -0.06)">
      <defs>
       <path id="ArialMT-44" d="M 494 0 
L 494 4581 
L 2072 4581 
Q 2606 4581 2888 4516 
Q 3281 4425 3559 4188 
Q 3922 3881 4101 3404 
Q 4281 2928 4281 2316 
Q 4281 1794 4159 1391 
Q 4038 988 3847 723 
Q 3656 459 3429 307 
Q 3203 156 2883 78 
Q 2563 0 2147 0 
L 494 0 
z
M 1100 541 
L 2078 541 
Q 2531 541 2789 625 
Q 3047 709 3200 863 
Q 3416 1078 3536 1442 
Q 3656 1806 3656 2325 
Q 3656 3044 3420 3430 
Q 3184 3816 2847 3947 
Q 2603 4041 2063 4041 
L 1100 4041 
L 1100 541 
z
" transform="scale(0.015625)"/>
       <path id="ArialMT-72" d="M 416 0 
L 416 3319 
L 922 3319 
L 922 2816 
Q 1116 3169 1280 3281 
Q 1444 3394 1641 3394 
Q 1925 3394 2219 3213 
L 2025 2691 
Q 1819 2813 1613 2813 
Q 1428 2813 1281 2702 
Q 1134 2591 1072 2394 
Q 978 2094 978 1738 
L 978 0 
L 416 0 
z
" transform="scale(0.015625)"/>
       <path id="ArialMT-6f" d="M 213 1659 
Q 213 2581 725 3025 
Q 1153 3394 1769 3394 
Q 2453 3394 2887 2945 
Q 3322 2497 3322 1706 
Q 3322 1066 3130 698 
Q 2938 331 2570 128 
Q 2203 -75 1769 -75 
Q 1072 -75 642 372 
Q 213 819 213 1659 
z
M 791 1659 
Q 791 1022 1069 705 
Q 1347 388 1769 388 
Q 2188 388 2466 706 
Q 2744 1025 2744 1678 
Q 2744 2294 2464 2611 
Q 2184 2928 1769 2928 
Q 1347 2928 1069 2612 
Q 791 2297 791 1659 
z
" transform="scale(0.015625)"/>
       <path id="ArialMT-66" d="M 556 0 
L 556 2881 
L 59 2881 
L 59 3319 
L 556 3319 
L 556 3672 
Q 556 4006 616 4169 
Q 697 4388 901 4523 
Q 1106 4659 1475 4659 
Q 1713 4659 2000 4603 
L 1916 4113 
Q 1741 4144 1584 4144 
Q 1328 4144 1222 4034 
Q 1116 3925 1116 3625 
L 1116 3319 
L 1763 3319 
L 1763 2881 
L 1116 2881 
L 1116 0 
L 556 0 
z
" transform="scale(0.015625)"/>
       <path id="ArialMT-6c" d="M 409 0 
L 409 4581 
L 972 4581 
L 972 0 
L 409 0 
z
" transform="scale(0.015625)"/>
       <path id="ArialMT-79" d="M 397 -1278 
L 334 -750 
Q 519 -800 656 -800 
Q 844 -800 956 -737 
Q 1069 -675 1141 -563 
Q 1194 -478 1313 -144 
Q 1328 -97 1363 -6 
L 103 3319 
L 709 3319 
L 1400 1397 
Q 1534 1031 1641 628 
Q 1738 1016 1872 1384 
L 2581 3319 
L 3144 3319 
L 1881 -56 
Q 1678 -603 1566 -809 
Q 1416 -1088 1222 -1217 
Q 1028 -1347 759 -1347 
Q 597 -1347 397 -1278 
z
" transform="scale(0.015625)"/>
       <path id="ArialMT-42" d="M 469 0 
L 469 4581 
L 2188 4581 
Q 2713 4581 3030 4442 
Q 3347 4303 3526 4014 
Q 3706 3725 3706 3409 
Q 3706 3116 3547 2856 
Q 3388 2597 3066 2438 
Q 3481 2316 3704 2022 
Q 3928 1728 3928 1328 
Q 3928 1006 3792 729 
Q 3656 453 3456 303 
Q 3256 153 2954 76 
Q 2653 0 2216 0 
L 469 0 
z
M 1075 2656 
L 2066 2656 
Q 2469 2656 2644 2709 
Q 2875 2778 2992 2937 
Q 3109 3097 3109 3338 
Q 3109 3566 3000 3739 
Q 2891 3913 2687 3977 
Q 2484 4041 1991 4041 
L 1075 4041 
L 1075 2656 
z
M 1075 541 
L 2216 541 
Q 2509 541 2628 563 
Q 2838 600 2978 687 
Q 3119 775 3209 942 
Q 3300 1109 3300 1328 
Q 3300 1584 3169 1773 
Q 3038 1963 2805 2039 
Q 2572 2116 2134 2116 
L 1075 2116 
L 1075 541 
z
" transform="scale(0.015625)"/>
       <path id="ArialMT-4f" d="M 309 2231 
Q 309 3372 921 4017 
Q 1534 4663 2503 4663 
Q 3138 4663 3647 4359 
Q 4156 4056 4423 3514 
Q 4691 2972 4691 2284 
Q 4691 1588 4409 1038 
Q 4128 488 3612 205 
Q 3097 -78 2500 -78 
Q 1853 -78 1343 234 
Q 834 547 571 1087 
Q 309 1628 309 2231 
z
M 934 2222 
Q 934 1394 1379 917 
Q 1825 441 2497 441 
Q 3181 441 3623 922 
Q 4066 1403 4066 2288 
Q 4066 2847 3877 3264 
Q 3688 3681 3323 3911 
Q 2959 4141 2506 4141 
Q 1863 4141 1398 3698 
Q 934 3256 934 2222 
z
" transform="scale(0.015625)"/>
       <path id="ArialMT-28" d="M 1497 -1347 
Q 1031 -759 709 28 
Q 388 816 388 1659 
Q 388 2403 628 3084 
Q 909 3875 1497 4659 
L 1900 4659 
Q 1522 4009 1400 3731 
Q 1209 3300 1100 2831 
Q 966 2247 966 1656 
Q 966 153 1900 -1347 
L 1497 -1347 
z
" transform="scale(0.015625)"/>
       <path id="ArialMT-65" d="M 2694 1069 
L 3275 997 
Q 3138 488 2766 206 
Q 2394 -75 1816 -75 
Q 1088 -75 661 373 
Q 234 822 234 1631 
Q 234 2469 665 2931 
Q 1097 3394 1784 3394 
Q 2450 3394 2872 2941 
Q 3294 2488 3294 1666 
Q 3294 1616 3291 1516 
L 816 1516 
Q 847 969 1125 678 
Q 1403 388 1819 388 
Q 2128 388 2347 550 
Q 2566 713 2694 1069 
z
M 847 1978 
L 2700 1978 
Q 2663 2397 2488 2606 
Q 2219 2931 1791 2931 
Q 1403 2931 1139 2672 
Q 875 2413 847 1978 
z
" transform="scale(0.015625)"/>
       <path id="ArialMT-29" d="M 791 -1347 
L 388 -1347 
Q 1322 153 1322 1656 
Q 1322 2244 1188 2822 
Q 1081 3291 891 3722 
Q 769 4003 388 4659 
L 791 4659 
Q 1378 3875 1659 3084 
Q 1900 2403 1900 1659 
Q 1900 816 1576 28 
Q 1253 -759 791 -1347 
z
" transform="scale(0.015625)"/>
      </defs>
      <use xlink:href="#ArialMT-44"/>
      <use xlink:href="#ArialMT-72" x="72.216797"/>
      <use xlink:href="#ArialMT-61" x="105.517578"/>
      <use xlink:href="#ArialMT-67" x="161.132812"/>
      <use xlink:href="#ArialMT-6f" x="216.748047"/>
      <use xlink:href="#ArialMT-6e" x="272.363281"/>
      <use xlink:href="#ArialMT-66" x="327.978516"/>
      <use xlink:href="#ArialMT-6c" x="355.761719"/>
      <use xlink:href="#ArialMT-79" x="377.978516"/>
      <use xlink:href="#ArialMT-20" x="427.978516"/>
      <use xlink:href="#ArialMT-42" x="455.761719"/>
      <use xlink:href="#ArialMT-4f" x="522.460938"/>
      <use xlink:href="#ArialMT-20" x="600.244141"/>
      <use xlink:href="#ArialMT-28" x="628.027344"/>
      <use xlink:href="#ArialMT-6d" x="661.328125"/>
      <use xlink:href="#ArialMT-65" x="744.628906"/>
      <use xlink:href="#ArialMT-61" x="800.244141"/>
      <use xlink:href="#ArialMT-6e" x="855.859375"/>
      <use xlink:href="#ArialMT-29" x="911.474609"/>
     </g>
    </g>
   </g>
  </g>
 </g>
 <defs>
  <clipPath id="p6fee3112bc">
   <rect x="46.46" y="10.8" width="144.34" height="198.52"/>
  </clipPath>
 </defs>
</svg>
