<?xml version="1.0" encoding="utf-8" standalone="no"?>
<!DOCTYPE svg PUBLIC "-//W3C//DTD SVG 1.1//EN"
  "http://www.w3.org/Graphics/SVG/1.1/DTD/svg11.dtd">
<svg xmlns:xlink="http://www.w3.org/1999/xlink" width="158.4pt" height="129.6pt" viewBox="0 0 158.4 129.6" xmlns="http://www.w3.org/2000/svg" version="1.1">
 <metadata>
  <rdf:RDF xmlns:dc="http://purl.org/dc/elements/1.1/" xmlns:cc="http://creativecommons.org/ns#" xmlns:rdf="http://www.w3.org/1999/02/22-rdf-syntax-ns#">
   <cc:Work>
    <dc:type rdf:resource="http://purl.org/dc/dcmitype/StillImage"/>
    <dc:date>2026-03-22T13:56:06.967656</dc:date>
    <dc:format>image/svg+xml</dc:format>
    <dc:creator>
     <cc:Agent>
      <dc:title>Matplotlib v3.9.4, https://matplotlib.org/</dc:title>
     </cc:Agent>
    </dc:creator>
   </cc:Work>
  </rdf:RDF>
 </metadata>
 <defs>
  <style type="text/css">*{stroke-linejoin: round; stroke-linecap: butt}</style>
 </defs>
 <g id="figure_1">
  <g id="patch_1">
   <path d="M 0 129.6 
L 158.4 129.6 
L 158.4 0 
L 0 0 
z
" style="fill: #ffffff"/>
  </g>
  <g id="axes_1">
   <g id="patch_2">
    <path d="M 45.96 94.62 
L 147.6 94.62 
L 147.6 13.32 
L 45.96 13.32 
z
" style="fill: #ffffff"/>
   </g>
   <g id="PolyCollection_1">
    <path d="M 50.58 54.68246 
L 50.58 71.490756 
L 51.405 60.136194 
L 52.23 58.785737 
L 53.055 56.087523 
L 53.88 55.888164 
L 54.705 55.888164 
L 55.53 54.235511 
L 56.355 53.682194 
L 57.18 52.628816 
L 58.005 52.47186 
L 58.83 52.482595 
L 59.655 51.791273 
L 60.48 51.184059 
L 61.305 51.184059 
L 62.13 50.192087 
L 62.955 50.141072 
L 63.78 49.788586 
L 64.605 49.64426 
L 65.43 49.608435 
L 66.255 48.372894 
L 67.08 48.372306 
L 67.905 48.372306 
L 68.73 47.77788 
L 69.555 47.702929 
L 70.38 47.701513 
L 71.205 47.593039 
L 72.03 47.409327 
L 72.855 47.421653 
L 73.68 47.421653 
L 74.505 47.26081 
L 75.33 47.152927 
L 76.155 47.007533 
L 76.98 46.940008 
L 77.805 46.174477 
L 78.63 46.008657 
L 79.455 45.790727 
L 80.28 45.580895 
L 81.105 45.57746 
L 81.93 45.266739 
L 82.755 45.237937 
L 83.58 45.22481 
L 84.405 45.22481 
L 85.23 45.21507 
L 86.055 45.202419 
L 86.88 44.96216 
L 87.705 44.684957 
L 88.53 44.684957 
L 89.355 44.392996 
L 90.18 43.661072 
L 91.005 43.661072 
L 91.83 43.539437 
L 92.655 43.562293 
L 93.48 43.468292 
L 94.305 43.353396 
L 95.13 43.409987 
L 95.955 43.409987 
L 96.78 43.409987 
L 97.605 43.409987 
L 98.43 43.409987 
L 99.255 43.409987 
L 100.08 43.409987 
L 100.905 43.409987 
L 101.73 43.331306 
L 102.555 43.281373 
L 103.38 43.10803 
L 104.205 43.075592 
L 105.03 43.075592 
L 105.855 43.075592 
L 106.68 43.068808 
L 107.505 43.025599 
L 108.33 43.035775 
L 109.155 42.959702 
L 109.98 42.90129 
L 110.805 42.90129 
L 111.63 42.90129 
L 112.455 42.875066 
L 113.28 42.875066 
L 114.105 42.842661 
L 114.93 42.842661 
L 115.755 42.842661 
L 116.58 42.842661 
L 117.405 42.842661 
L 118.23 42.842661 
L 119.055 42.842661 
L 119.88 42.73398 
L 120.705 42.525809 
L 121.53 42.460711 
L 122.355 42.460711 
L 123.18 42.460711 
L 124.005 42.460711 
L 124.83 42.460711 
L 125.655 42.460711 
L 126.48 42.42467 
L 127.305 42.444158 
L 128.13 42.444158 
L 128.955 42.444158 
L 129.78 42.288876 
L 130.605 42.288876 
L 131.43 42.288876 
L 132.255 42.288876 
L 133.08 42.288876 
L 133.905 42.288876 
L 134.73 42.288876 
L 135.555 42.288876 
L 136.38 42.288876 
L 137.205 42.177213 
L 138.03 42.177213 
L 138.855 42.177213 
L 139.68 42.177213 
L 140.505 42.17546 
L 141.33 42.17546 
L 142.155 42.17546 
L 142.98 42.17546 
L 142.98 40.176503 
L 142.98 40.176503 
L 142.155 40.176503 
L 141.33 40.176503 
L 140.505 40.176503 
L 139.68 40.178977 
L 138.855 40.178977 
L 138.03 40.178977 
L 137.205 40.178977 
L 136.38 40.176192 
L 135.555 40.176192 
L 134.73 40.176192 
L 133.905 40.176192 
L 133.08 40.176192 
L 132.255 40.176192 
L 131.43 40.176192 
L 130.605 40.176192 
L 129.78 40.176192 
L 128.955 40.421036 
L 128.13 40.421036 
L 127.305 40.421036 
L 126.48 40.492848 
L 125.655 40.496091 
L 124.83 40.496091 
L 124.005 40.496091 
L 123.18 40.496091 
L 122.355 40.496091 
L 121.53 40.496091 
L 120.705 40.743055 
L 119.88 40.880995 
L 119.055 41.062034 
L 118.23 41.062034 
L 117.405 41.062034 
L 116.58 41.062034 
L 115.755 41.062034 
L 114.93 41.062034 
L 114.105 41.062034 
L 113.28 41.129401 
L 112.455 41.129401 
L 111.63 41.14438 
L 110.805 41.14438 
L 109.98 41.14438 
L 109.155 41.159398 
L 108.33 41.174804 
L 107.505 41.201695 
L 106.68 41.216372 
L 105.855 41.243213 
L 105.03 41.243213 
L 104.205 41.243213 
L 103.38 41.246612 
L 102.555 41.280194 
L 101.73 41.295464 
L 100.905 41.312457 
L 100.08 41.312457 
L 99.255 41.312457 
L 98.43 41.312457 
L 97.605 41.312457 
L 96.78 41.312457 
L 95.955 41.312457 
L 95.13 41.312457 
L 94.305 41.480949 
L 93.48 41.624977 
L 92.655 41.626292 
L 91.83 42.023421 
L 91.005 42.04689 
L 90.18 42.04689 
L 89.355 41.842083 
L 88.53 41.845696 
L 87.705 41.845696 
L 86.88 41.738443 
L 86.055 41.790213 
L 85.23 41.810114 
L 84.405 41.823074 
L 83.58 41.823074 
L 82.755 41.952092 
L 81.93 41.951159 
L 81.105 41.897802 
L 80.28 41.905911 
L 79.455 41.8445 
L 78.63 42.11694 
L 77.805 42.340189 
L 76.98 42.469088 
L 76.155 42.465464 
L 75.33 43.121005 
L 74.505 43.14987 
L 73.68 43.579817 
L 72.855 43.579817 
L 72.03 43.76902 
L 71.205 43.712949 
L 70.38 43.692084 
L 69.555 43.715643 
L 68.73 43.891324 
L 67.905 43.749088 
L 67.08 43.749088 
L 66.255 43.759947 
L 65.43 44.691051 
L 64.605 44.802965 
L 63.78 44.8934 
L 62.955 44.828391 
L 62.13 45.236884 
L 61.305 45.528509 
L 60.48 45.528509 
L 59.655 45.849383 
L 58.83 46.423024 
L 58.005 46.621855 
L 57.18 46.632019 
L 56.355 47.137455 
L 55.53 47.899084 
L 54.705 47.44463 
L 53.88 47.44463 
L 53.055 48.310951 
L 52.23 49.906614 
L 51.405 55.877351 
L 50.58 54.68246 
z
" clip-path="url(#p693383c04c)" style="fill: #1f77b4; fill-opacity: 0.2"/>
   </g>
   <g id="matplotlib.axis_1">
    <g id="xtick_1">
     <g id="line2d_1">
      <defs>
       <path id="mf32aae11a9" d="M 0 0 
L 0 3 
" style="stroke: #000000; stroke-width: 0.5"/>
      </defs>
      <g>
       <use xlink:href="#mf32aae11a9" x="49.755" y="94.62" style="stroke: #000000; stroke-width: 0.5"/>
      </g>
     </g>
     <g id="text_1">
      <!-- 0 -->
      <g transform="translate(47.84625 105.679063) scale(0.06 -0.06)">
       <defs>
        <path id="DejaVuSans-30" d="M 2034 4250 
Q 1547 4250 1301 3770 
Q 1056 3291 1056 2328 
Q 1056 1369 1301 889 
Q 1547 409 2034 409 
Q 2525 409 2770 889 
Q 3016 1369 3016 2328 
Q 3016 3291 2770 3770 
Q 2525 4250 2034 4250 
z
M 2034 4750 
Q 2819 4750 3233 4129 
Q 3647 3509 3647 2328 
Q 3647 1150 3233 529 
Q 2819 -91 2034 -91 
Q 1250 -91 836 529 
Q 422 1150 422 2328 
Q 422 3509 836 4129 
Q 1250 4750 2034 4750 
z
" transform="scale(0.015625)"/>
       </defs>
       <use xlink:href="#DejaVuSans-30"/>
      </g>
     </g>
    </g>
    <g id="xtick_2">
     <g id="line2d_2">
      <g>
       <use xlink:href="#mf32aae11a9" x="70.38" y="94.62" style="stroke: #000000; stroke-width: 0.5"/>
      </g>
     </g>
     <g id="text_2">
      <!-- 25 -->
      <g transform="translate(66.5625 105.679063) scale(0.06 -0.06)">
       <defs>
        <path id="DejaVuSans-32" d="M 1228 531 
L 3431 531 
L 3431 0 
L 469 0 
L 469 531 
Q 828 903 1448 1529 
Q 2069 2156 2228 2338 
Q 2531 2678 2651 2914 
Q 2772 3150 2772 3378 
Q 2772 3750 2511 3984 
Q 2250 4219 1831 4219 
Q 1534 4219 1204 4116 
Q 875 4013 500 3803 
L 500 4441 
Q 881 4594 1212 4672 
Q 1544 4750 1819 4750 
Q 2544 4750 2975 4387 
Q 3406 4025 3406 3419 
Q 3406 3131 3298 2873 
Q 3191 2616 2906 2266 
Q 2828 2175 2409 1742 
Q 1991 1309 1228 531 
z
" transform="scale(0.015625)"/>
        <path id="DejaVuSans-35" d="M 691 4666 
L 3169 4666 
L 3169 4134 
L 1269 4134 
L 1269 2991 
Q 1406 3038 1543 3061 
Q 1681 3084 1819 3084 
Q 2600 3084 3056 2656 
Q 3513 2228 3513 1497 
Q 3513 744 3044 326 
Q 2575 -91 1722 -91 
Q 1428 -91 1123 -41 
Q 819 9 494 109 
L 494 744 
Q 775 591 1075 516 
Q 1375 441 1709 441 
Q 2250 441 2565 725 
Q 2881 1009 2881 1497 
Q 2881 1984 2565 2268 
Q 2250 2553 1709 2553 
Q 1456 2553 1204 2497 
Q 953 2441 691 2322 
L 691 4666 
z
" transform="scale(0.015625)"/>
       </defs>
       <use xlink:href="#DejaVuSans-32"/>
       <use xlink:href="#DejaVuSans-35" x="63.623047"/>
      </g>
     </g>
    </g>
    <g id="xtick_3">
     <g id="line2d_3">
      <g>
       <use xlink:href="#mf32aae11a9" x="91.005" y="94.62" style="stroke: #000000; stroke-width: 0.5"/>
      </g>
     </g>
     <g id="text_3">
      <!-- 50 -->
      <g transform="translate(87.1875 105.679063) scale(0.06 -0.06)">
       <use xlink:href="#DejaVuSans-35"/>
       <use xlink:href="#DejaVuSans-30" x="63.623047"/>
      </g>
     </g>
    </g>
    <g id="xtick_4">
     <g id="line2d_4">
      <g>
       <use xlink:href="#mf32aae11a9" x="111.63" y="94.62" style="stroke: #000000; stroke-width: 0.5"/>
      </g>
     </g>
     <g id="text_4">
      <!-- 75 -->
      <g transform="translate(107.8125 105.679063) scale(0.06 -0.06)">
       <defs>
        <path id="DejaVuSans-37" d="M 525 4666 
L 3525 4666 
L 3525 4397 
L 1831 0 
L 1172 0 
L 2766 4134 
L 525 4134 
L 525 4666 
z
" transform="scale(0.015625)"/>
       </defs>
       <use xlink:href="#DejaVuSans-37"/>
       <use xlink:href="#DejaVuSans-35" x="63.623047"/>
      </g>
     </g>
    </g>
    <g id="xtick_5">
     <g id="line2d_5">
      <g>
       <use xlink:href="#mf32aae11a9" x="132.255" y="94.62" style="stroke: #000000; stroke-width: 0.5"/>
      </g>
     </g>
     <g id="text_5">
      <!-- 100 -->
      <g transform="translate(126.52875 105.679063) scale(0.06 -0.06)">
       <defs>
        <path id="DejaVuSans-31" d="M 794 531 
L 1825 531 
L 1825 4091 
L 703 3866 
L 703 4441 
L 1819 4666 
L 2450 4666 
L 2450 531 
L 3481 531 
L 3481 0 
L 794 0 
L 794 531 
z
" transform="scale(0.015625)"/>
       </defs>
       <use xlink:href="#DejaVuSans-31"/>
       <use xlink:href="#DejaVuSans-30" x="63.623047"/>
       <use xlink:href="#DejaVuSans-30" x="127.246094"/>
      </g>
     </g>
    </g>
    <g id="text_6">
     <!-- Trial index -->
     <g transform="translate(78.941484 116.245781) scale(0.07 -0.07)">
      <defs>
       <path id="DejaVuSans-54" d="M -19 4666 
L 3928 4666 
L 3928 4134 
L 2272 4134 
L 2272 0 
L 1638 0 
L 1638 4134 
L -19 4134 
L -19 4666 
z
" transform="scale(0.015625)"/>
       <path id="DejaVuSans-72" d="M 2631 2963 
Q 2534 3019 2420 3045 
Q 2306 3072 2169 3072 
Q 1681 3072 1420 2755 
Q 1159 2438 1159 1844 
L 1159 0 
L 581 0 
L 581 3500 
L 1159 3500 
L 1159 2956 
Q 1341 3275 1631 3429 
Q 1922 3584 2338 3584 
Q 2397 3584 2469 3576 
Q 2541 3569 2628 3553 
L 2631 2963 
z
" transform="scale(0.015625)"/>
       <path id="DejaVuSans-69" d="M 603 3500 
L 1178 3500 
L 1178 0 
L 603 0 
L 603 3500 
z
M 603 4863 
L 1178 4863 
L 1178 4134 
L 603 4134 
L 603 4863 
z
" transform="scale(0.015625)"/>
       <path id="DejaVuSans-61" d="M 2194 1759 
Q 1497 1759 1228 1600 
Q 959 1441 959 1056 
Q 959 750 1161 570 
Q 1363 391 1709 391 
Q 2188 391 2477 730 
Q 2766 1069 2766 1631 
L 2766 1759 
L 2194 1759 
z
M 3341 1997 
L 3341 0 
L 2766 0 
L 2766 531 
Q 2569 213 2275 61 
Q 1981 -91 1556 -91 
Q 1019 -91 701 211 
Q 384 513 384 1019 
Q 384 1609 779 1909 
Q 1175 2209 1959 2209 
L 2766 2209 
L 2766 2266 
Q 2766 2663 2505 2880 
Q 2244 3097 1772 3097 
Q 1472 3097 1187 3025 
Q 903 2953 641 2809 
L 641 3341 
Q 956 3463 1253 3523 
Q 1550 3584 1831 3584 
Q 2591 3584 2966 3190 
Q 3341 2797 3341 1997 
z
" transform="scale(0.015625)"/>
       <path id="DejaVuSans-6c" d="M 603 4863 
L 1178 4863 
L 1178 0 
L 603 0 
L 603 4863 
z
" transform="scale(0.015625)"/>
       <path id="DejaVuSans-20" transform="scale(0.015625)"/>
       <path id="DejaVuSans-6e" d="M 3513 2113 
L 3513 0 
L 2938 0 
L 2938 2094 
Q 2938 2591 2744 2837 
Q 2550 3084 2163 3084 
Q 1697 3084 1428 2787 
Q 1159 2491 1159 1978 
L 1159 0 
L 581 0 
L 581 3500 
L 1159 3500 
L 1159 2956 
Q 1366 3272 1645 3428 
Q 1925 3584 2291 3584 
Q 2894 3584 3203 3211 
Q 3513 2838 3513 2113 
z
" transform="scale(0.015625)"/>
       <path id="DejaVuSans-64" d="M 2906 2969 
L 2906 4863 
L 3481 4863 
L 3481 0 
L 2906 0 
L 2906 525 
Q 2725 213 2448 61 
Q 2172 -91 1784 -91 
Q 1150 -91 751 415 
Q 353 922 353 1747 
Q 353 2572 751 3078 
Q 1150 3584 1784 3584 
Q 2172 3584 2448 3432 
Q 2725 3281 2906 2969 
z
M 947 1747 
Q 947 1113 1208 752 
Q 1469 391 1925 391 
Q 2381 391 2643 752 
Q 2906 1113 2906 1747 
Q 2906 2381 2643 2742 
Q 2381 3103 1925 3103 
Q 1469 3103 1208 2742 
Q 947 2381 947 1747 
z
" transform="scale(0.015625)"/>
       <path id="DejaVuSans-65" d="M 3597 1894 
L 3597 1613 
L 953 1613 
Q 991 1019 1311 708 
Q 1631 397 2203 397 
Q 2534 397 2845 478 
Q 3156 559 3463 722 
L 3463 178 
Q 3153 47 2828 -22 
Q 2503 -91 2169 -91 
Q 1331 -91 842 396 
Q 353 884 353 1716 
Q 353 2575 817 3079 
Q 1281 3584 2069 3584 
Q 2775 3584 3186 3129 
Q 3597 2675 3597 1894 
z
M 3022 2063 
Q 3016 2534 2758 2815 
Q 2500 3097 2075 3097 
Q 1594 3097 1305 2825 
Q 1016 2553 972 2059 
L 3022 2063 
z
" transform="scale(0.015625)"/>
       <path id="DejaVuSans-78" d="M 3513 3500 
L 2247 1797 
L 3578 0 
L 2900 0 
L 1881 1375 
L 863 0 
L 184 0 
L 1544 1831 
L 300 3500 
L 978 3500 
L 1906 2253 
L 2834 3500 
L 3513 3500 
z
" transform="scale(0.015625)"/>
      </defs>
      <use xlink:href="#DejaVuSans-54"/>
      <use xlink:href="#DejaVuSans-72" x="46.333984"/>
      <use xlink:href="#DejaVuSans-69" x="87.447266"/>
      <use xlink:href="#DejaVuSans-61" x="115.230469"/>
      <use xlink:href="#DejaVuSans-6c" x="176.509766"/>
      <use xlink:href="#DejaVuSans-20" x="204.292969"/>
      <use xlink:href="#DejaVuSans-69" x="236.080078"/>
      <use xlink:href="#DejaVuSans-6e" x="263.863281"/>
      <use xlink:href="#DejaVuSans-64" x="327.242188"/>
      <use xlink:href="#DejaVuSans-65" x="390.71875"/>
      <use xlink:href="#DejaVuSans-78" x="450.492188"/>
     </g>
    </g>
   </g>
   <g id="matplotlib.axis_2">
    <g id="ytick_1">
     <g id="line2d_6">
      <defs>
       <path id="md41bebff75" d="M 0 0 
L -3 0 
" style="stroke: #000000; stroke-width: 0.5"/>
      </defs>
      <g>
       <use xlink:href="#md41bebff75" x="45.96" y="94.62" style="stroke: #000000; stroke-width: 0.5"/>
      </g>
     </g>
     <g id="text_7">
      <!-- −1.0 -->
      <g transform="translate(24.890312 96.899531) scale(0.06 -0.06)">
       <defs>
        <path id="DejaVuSans-2212" d="M 678 2272 
L 4684 2272 
L 4684 1741 
L 678 1741 
L 678 2272 
z
" transform="scale(0.015625)"/>
        <path id="DejaVuSans-2e" d="M 684 794 
L 1344 794 
L 1344 0 
L 684 0 
L 684 794 
z
" transform="scale(0.015625)"/>
       </defs>
       <use xlink:href="#DejaVuSans-2212"/>
       <use xlink:href="#DejaVuSans-31" x="83.789062"/>
       <use xlink:href="#DejaVuSans-2e" x="147.412109"/>
       <use xlink:href="#DejaVuSans-30" x="179.199219"/>
      </g>
     </g>
    </g>
    <g id="ytick_2">
     <g id="line2d_7">
      <g>
       <use xlink:href="#md41bebff75" x="45.96" y="78.36" style="stroke: #000000; stroke-width: 0.5"/>
      </g>
     </g>
     <g id="text_8">
      <!-- −0.8 -->
      <g transform="translate(24.890312 80.639531) scale(0.06 -0.06)">
       <defs>
        <path id="DejaVuSans-38" d="M 2034 2216 
Q 1584 2216 1326 1975 
Q 1069 1734 1069 1313 
Q 1069 891 1326 650 
Q 1584 409 2034 409 
Q 2484 409 2743 651 
Q 3003 894 3003 1313 
Q 3003 1734 2745 1975 
Q 2488 2216 2034 2216 
z
M 1403 2484 
Q 997 2584 770 2862 
Q 544 3141 544 3541 
Q 544 4100 942 4425 
Q 1341 4750 2034 4750 
Q 2731 4750 3128 4425 
Q 3525 4100 3525 3541 
Q 3525 3141 3298 2862 
Q 3072 2584 2669 2484 
Q 3125 2378 3379 2068 
Q 3634 1759 3634 1313 
Q 3634 634 3220 271 
Q 2806 -91 2034 -91 
Q 1263 -91 848 271 
Q 434 634 434 1313 
Q 434 1759 690 2068 
Q 947 2378 1403 2484 
z
M 1172 3481 
Q 1172 3119 1398 2916 
Q 1625 2713 2034 2713 
Q 2441 2713 2670 2916 
Q 2900 3119 2900 3481 
Q 2900 3844 2670 4047 
Q 2441 4250 2034 4250 
Q 1625 4250 1398 4047 
Q 1172 3844 1172 3481 
z
" transform="scale(0.015625)"/>
       </defs>
       <use xlink:href="#DejaVuSans-2212"/>
       <use xlink:href="#DejaVuSans-30" x="83.789062"/>
       <use xlink:href="#DejaVuSans-2e" x="147.412109"/>
       <use xlink:href="#DejaVuSans-38" x="179.199219"/>
      </g>
     </g>
    </g>
    <g id="ytick_3">
     <g id="line2d_8">
      <g>
       <use xlink:href="#md41bebff75" x="45.96" y="62.1" style="stroke: #000000; stroke-width: 0.5"/>
      </g>
     </g>
     <g id="text_9">
      <!-- −0.6 -->
      <g transform="translate(24.890312 64.379531) scale(0.06 -0.06)">
       <defs>
        <path id="DejaVuSans-36" d="M 2113 2584 
Q 1688 2584 1439 2293 
Q 1191 2003 1191 1497 
Q 1191 994 1439 701 
Q 1688 409 2113 409 
Q 2538 409 2786 701 
Q 3034 994 3034 1497 
Q 3034 2003 2786 2293 
Q 2538 2584 2113 2584 
z
M 3366 4563 
L 3366 3988 
Q 3128 4100 2886 4159 
Q 2644 4219 2406 4219 
Q 1781 4219 1451 3797 
Q 1122 3375 1075 2522 
Q 1259 2794 1537 2939 
Q 1816 3084 2150 3084 
Q 2853 3084 3261 2657 
Q 3669 2231 3669 1497 
Q 3669 778 3244 343 
Q 2819 -91 2113 -91 
Q 1303 -91 875 529 
Q 447 1150 447 2328 
Q 447 3434 972 4092 
Q 1497 4750 2381 4750 
Q 2619 4750 2861 4703 
Q 3103 4656 3366 4563 
z
" transform="scale(0.015625)"/>
       </defs>
       <use xlink:href="#DejaVuSans-2212"/>
       <use xlink:href="#DejaVuSans-30" x="83.789062"/>
       <use xlink:href="#DejaVuSans-2e" x="147.412109"/>
       <use xlink:href="#DejaVuSans-36" x="179.199219"/>
      </g>
     </g>
    </g>
    <g id="ytick_4">
     <g id="line2d_9">
      <g>
       <use xlink:href="#md41bebff75" x="45.96" y="45.84" style="stroke: #000000; stroke-width: 0.5"/>
      </g>
     </g>
     <g id="text_10">
      <!-- −0.4 -->
      <g transform="translate(24.890312 48.119531) scale(0.06 -0.06)">
       <defs>
        <path id="DejaVuSans-34" d="M 2419 4116 
L 825 1625 
L 2419 1625 
L 2419 4116 
z
M 2253 4666 
L 3047 4666 
L 3047 1625 
L 3713 1625 
L 3713 1100 
L 3047 1100 
L 3047 0 
L 2419 0 
L 2419 1100 
L 313 1100 
L 313 1709 
L 2253 4666 
z
" transform="scale(0.015625)"/>
       </defs>
       <use xlink:href="#DejaVuSans-2212"/>
       <use xlink:href="#DejaVuSans-30" x="83.789062"/>
       <use xlink:href="#DejaVuSans-2e" x="147.412109"/>
       <use xlink:href="#DejaVuSans-34" x="179.199219"/>
      </g>
     </g>
    </g>
    <g id="ytick_5">
     <g id="line2d_10">
      <g>
       <use xlink:href="#md41bebff75" x="45.96" y="29.58" style="stroke: #000000; stroke-width: 0.5"/>
      </g>
     </g>
     <g id="text_11">
      <!-- −0.2 -->
      <g transform="translate(24.890312 31.859531) scale(0.06 -0.06)">
       <use xlink:href="#DejaVuSans-2212"/>
       <use xlink:href="#DejaVuSans-30" x="83.789062"/>
       <use xlink:href="#DejaVuSans-2e" x="147.412109"/>
       <use xlink:href="#DejaVuSans-32" x="179.199219"/>
      </g>
     </g>
    </g>
    <g id="ytick_6">
     <g id="line2d_11">
      <g>
       <use xlink:href="#md41bebff75" x="45.96" y="13.32" style="stroke: #000000; stroke-width: 0.5"/>
      </g>
     </g>
     <g id="text_12">
      <!-- 0.0 -->
      <g transform="translate(29.918125 15.599531) scale(0.06 -0.06)">
       <use xlink:href="#DejaVuSans-30"/>
       <use xlink:href="#DejaVuSans-2e" x="63.623047"/>
       <use xlink:href="#DejaVuSans-30" x="95.410156"/>
      </g>
     </g>
    </g>
    <g id="text_13">
     <!-- Best-so-far $η_{50}$ (V) -->
     <g transform="translate(19.420312 85.82) rotate(-90) scale(0.07 -0.07)">
      <defs>
       <path id="DejaVuSans-42" d="M 1259 2228 
L 1259 519 
L 2272 519 
Q 2781 519 3026 730 
Q 3272 941 3272 1375 
Q 3272 1813 3026 2020 
Q 2781 2228 2272 2228 
L 1259 2228 
z
M 1259 4147 
L 1259 2741 
L 2194 2741 
Q 2656 2741 2882 2914 
Q 3109 3088 3109 3444 
Q 3109 3797 2882 3972 
Q 2656 4147 2194 4147 
L 1259 4147 
z
M 628 4666 
L 2241 4666 
Q 2963 4666 3353 4366 
Q 3744 4066 3744 3513 
Q 3744 3084 3544 2831 
Q 3344 2578 2956 2516 
Q 3422 2416 3680 2098 
Q 3938 1781 3938 1306 
Q 3938 681 3513 340 
Q 3088 0 2303 0 
L 628 0 
L 628 4666 
z
" transform="scale(0.015625)"/>
       <path id="DejaVuSans-73" d="M 2834 3397 
L 2834 2853 
Q 2591 2978 2328 3040 
Q 2066 3103 1784 3103 
Q 1356 3103 1142 2972 
Q 928 2841 928 2578 
Q 928 2378 1081 2264 
Q 1234 2150 1697 2047 
L 1894 2003 
Q 2506 1872 2764 1633 
Q 3022 1394 3022 966 
Q 3022 478 2636 193 
Q 2250 -91 1575 -91 
Q 1294 -91 989 -36 
Q 684 19 347 128 
L 347 722 
Q 666 556 975 473 
Q 1284 391 1588 391 
Q 1994 391 2212 530 
Q 2431 669 2431 922 
Q 2431 1156 2273 1281 
Q 2116 1406 1581 1522 
L 1381 1569 
Q 847 1681 609 1914 
Q 372 2147 372 2553 
Q 372 3047 722 3315 
Q 1072 3584 1716 3584 
Q 2034 3584 2315 3537 
Q 2597 3491 2834 3397 
z
" transform="scale(0.015625)"/>
       <path id="DejaVuSans-74" d="M 1172 4494 
L 1172 3500 
L 2356 3500 
L 2356 3053 
L 1172 3053 
L 1172 1153 
Q 1172 725 1289 603 
Q 1406 481 1766 481 
L 2356 481 
L 2356 0 
L 1766 0 
Q 1100 0 847 248 
Q 594 497 594 1153 
L 594 3053 
L 172 3053 
L 172 3500 
L 594 3500 
L 594 4494 
L 1172 4494 
z
" transform="scale(0.015625)"/>
       <path id="DejaVuSans-2d" d="M 313 2009 
L 1997 2009 
L 1997 1497 
L 313 1497 
L 313 2009 
z
" transform="scale(0.015625)"/>
       <path id="DejaVuSans-6f" d="M 1959 3097 
Q 1497 3097 1228 2736 
Q 959 2375 959 1747 
Q 959 1119 1226 758 
Q 1494 397 1959 397 
Q 2419 397 2687 759 
Q 2956 1122 2956 1747 
Q 2956 2369 2687 2733 
Q 2419 3097 1959 3097 
z
M 1959 3584 
Q 2709 3584 3137 3096 
Q 3566 2609 3566 1747 
Q 3566 888 3137 398 
Q 2709 -91 1959 -91 
Q 1206 -91 779 398 
Q 353 888 353 1747 
Q 353 2609 779 3096 
Q 1206 3584 1959 3584 
z
" transform="scale(0.015625)"/>
       <path id="DejaVuSans-66" d="M 2375 4863 
L 2375 4384 
L 1825 4384 
Q 1516 4384 1395 4259 
Q 1275 4134 1275 3809 
L 1275 3500 
L 2222 3500 
L 2222 3053 
L 1275 3053 
L 1275 0 
L 697 0 
L 697 3053 
L 147 3053 
L 147 3500 
L 697 3500 
L 697 3744 
Q 697 4328 969 4595 
Q 1241 4863 1831 4863 
L 2375 4863 
z
" transform="scale(0.015625)"/>
       <path id="DejaVuSans-Oblique-3b7" d="M 3703 2113 
L 3034 -1331 
L 2459 -1331 
L 3125 2094 
Q 3222 2591 3075 2838 
Q 2931 3084 2544 3084 
Q 2078 3084 1750 2788 
Q 1425 2491 1325 1978 
L 941 0 
L 363 0 
L 1044 3500 
L 1622 3500 
L 1516 2956 
Q 1781 3272 2094 3428 
Q 2403 3584 2769 3584 
Q 3372 3584 3609 3213 
Q 3844 2838 3703 2113 
z
" transform="scale(0.015625)"/>
       <path id="DejaVuSans-28" d="M 1984 4856 
Q 1566 4138 1362 3434 
Q 1159 2731 1159 2009 
Q 1159 1288 1364 580 
Q 1569 -128 1984 -844 
L 1484 -844 
Q 1016 -109 783 600 
Q 550 1309 550 2009 
Q 550 2706 781 3412 
Q 1013 4119 1484 4856 
L 1984 4856 
z
" transform="scale(0.015625)"/>
       <path id="DejaVuSans-56" d="M 1831 0 
L 50 4666 
L 709 4666 
L 2188 738 
L 3669 4666 
L 4325 4666 
L 2547 0 
L 1831 0 
z
" transform="scale(0.015625)"/>
       <path id="DejaVuSans-29" d="M 513 4856 
L 1013 4856 
Q 1481 4119 1714 3412 
Q 1947 2706 1947 2009 
Q 1947 1309 1714 600 
Q 1481 -109 1013 -844 
L 513 -844 
Q 928 -128 1133 580 
Q 1338 1288 1338 2009 
Q 1338 2731 1133 3434 
Q 928 4138 513 4856 
z
" transform="scale(0.015625)"/>
      </defs>
      <use xlink:href="#DejaVuSans-42" transform="translate(0 0.015625)"/>
      <use xlink:href="#DejaVuSans-65" transform="translate(68.603516 0.015625)"/>
      <use xlink:href="#DejaVuSans-73" transform="translate(130.126953 0.015625)"/>
      <use xlink:href="#DejaVuSans-74" transform="translate(182.226562 0.015625)"/>
      <use xlink:href="#DejaVuSans-2d" transform="translate(221.435547 0.015625)"/>
      <use xlink:href="#DejaVuSans-73" transform="translate(257.519531 0.015625)"/>
      <use xlink:href="#DejaVuSans-6f" transform="translate(309.619141 0.015625)"/>
      <use xlink:href="#DejaVuSans-2d" transform="translate(370.800781 0.015625)"/>
      <use xlink:href="#DejaVuSans-66" transform="translate(406.884766 0.015625)"/>
      <use xlink:href="#DejaVuSans-61" transform="translate(442.089844 0.015625)"/>
      <use xlink:href="#DejaVuSans-72" transform="translate(503.369141 0.015625)"/>
      <use xlink:href="#DejaVuSans-20" transform="translate(544.482422 0.015625)"/>
      <use xlink:href="#DejaVuSans-Oblique-3b7" transform="translate(576.269531 0.015625)"/>
      <use xlink:href="#DejaVuSans-35" transform="translate(639.648438 -16.390625) scale(0.7)"/>
      <use xlink:href="#DejaVuSans-30" transform="translate(684.18457 -16.390625) scale(0.7)"/>
      <use xlink:href="#DejaVuSans-20" transform="translate(731.455078 0.015625)"/>
      <use xlink:href="#DejaVuSans-28" transform="translate(763.242188 0.015625)"/>
      <use xlink:href="#DejaVuSans-56" transform="translate(802.255859 0.015625)"/>
      <use xlink:href="#DejaVuSans-29" transform="translate(870.664062 0.015625)"/>
     </g>
    </g>
   </g>
   <g id="line2d_12">
    <path d="M 50.58 47.92941 
L 51.405 47.92941 
L 52.23 41.83191 
L 53.055 41.83191 
L 53.88 41.83191 
L 54.705 37.44171 
L 55.53 37.44171 
L 56.355 29.39301 
L 57.18 29.39301 
L 58.005 29.39301 
L 58.83 29.39301 
L 59.655 29.39301 
L 60.48 29.39301 
L 61.305 29.39301 
L 62.13 29.39301 
L 62.955 29.39301 
L 63.78 29.39301 
L 64.605 29.39301 
L 65.43 29.39301 
L 66.255 29.39301 
L 67.08 29.39301 
L 67.905 29.39301 
L 68.73 29.39301 
L 69.555 29.39301 
L 70.38 29.39301 
L 71.205 29.39301 
L 72.03 29.39301 
L 72.855 29.39301 
L 73.68 29.39301 
L 74.505 29.39301 
L 75.33 29.39301 
L 76.155 29.39301 
L 76.98 29.39301 
L 77.805 29.39301 
L 78.63 29.39301 
L 79.455 29.39301 
L 80.28 29.39301 
L 81.105 29.39301 
L 81.93 29.39301 
L 82.755 29.39301 
L 83.58 29.39301 
L 84.405 29.39301 
L 85.23 29.39301 
L 86.055 29.39301 
L 86.88 29.39301 
L 87.705 29.39301 
L 88.53 29.39301 
L 89.355 29.39301 
L 90.18 29.39301 
L 91.005 29.39301 
L 91.83 29.39301 
L 92.655 29.39301 
L 93.48 29.39301 
L 94.305 28.66131 
L 95.13 28.66131 
L 95.955 28.66131 
L 96.78 27.52311 
L 97.605 27.52311 
L 98.43 27.52311 
L 99.255 27.52311 
L 100.08 27.52311 
L 100.905 26.38491 
L 101.73 26.38491 
L 102.555 26.38491 
L 103.38 26.38491 
L 104.205 26.38491 
L 105.03 26.38491 
L 105.855 26.38491 
L 106.68 26.38491 
L 107.505 26.38491 
L 108.33 26.38491 
L 109.155 26.38491 
L 109.98 26.38491 
L 110.805 26.38491 
L 111.63 26.38491 
L 112.455 26.38491 
L 113.28 26.38491 
L 114.105 26.38491 
L 114.93 26.38491 
L 115.755 26.38491 
L 116.58 26.38491 
L 117.405 26.38491 
L 118.23 26.38491 
L 119.055 26.38491 
L 119.88 26.38491 
L 120.705 26.38491 
L 121.53 26.38491 
L 122.355 26.30361 
L 123.18 26.30361 
L 124.005 26.30361 
L 124.83 26.30361 
L 125.655 26.30361 
L 126.48 26.30361 
L 127.305 26.30361 
L 128.13 26.30361 
L 128.955 26.30361 
L 129.78 26.22231 
L 130.605 26.22231 
L 131.43 26.22231 
L 132.255 26.22231 
L 133.08 26.22231 
L 133.905 26.22231 
L 134.73 26.22231 
L 135.555 26.22231 
L 136.38 26.22231 
L 137.205 26.22231 
L 138.03 26.22231 
L 138.855 26.22231 
L 139.68 26.22231 
L 140.505 26.22231 
L 141.33 26.22231 
L 142.155 26.22231 
" clip-path="url(#p693383c04c)" style="fill: none; stroke: #0000ff; stroke-width: 2; stroke-linecap: square"/>
   </g>
   <g id="line2d_13">
    <path d="M 50.58 83.37621 
L 51.405 60.61221 
L 52.23 51.99441 
L 53.055 51.99441 
L 53.88 44.10831 
L 54.705 44.10831 
L 55.53 44.10831 
L 56.355 39.14901 
L 57.18 39.14901 
L 58.005 39.14901 
L 58.83 39.14901 
L 59.655 39.14901 
L 60.48 39.14901 
L 61.305 39.14901 
L 62.13 39.14901 
L 62.955 39.14901 
L 63.78 38.98641 
L 64.605 38.98641 
L 65.43 38.98641 
L 66.255 38.98641 
L 67.08 38.98641 
L 67.905 38.98641 
L 68.73 26.38491 
L 69.555 26.38491 
L 70.38 26.38491 
L 71.205 26.38491 
L 72.03 26.38491 
L 72.855 26.38491 
L 73.68 26.38491 
L 74.505 26.38491 
L 75.33 26.38491 
L 76.155 26.38491 
L 76.98 26.38491 
L 77.805 26.38491 
L 78.63 26.38491 
L 79.455 26.38491 
L 80.28 26.38491 
L 81.105 26.38491 
L 81.93 26.38491 
L 82.755 26.38491 
L 83.58 26.38491 
L 84.405 26.38491 
L 85.23 26.38491 
L 86.055 26.38491 
L 86.88 26.38491 
L 87.705 26.38491 
L 88.53 26.38491 
L 89.355 26.38491 
L 90.18 26.38491 
L 91.005 26.38491 
L 91.83 26.38491 
L 92.655 26.38491 
L 93.48 26.38491 
L 94.305 26.38491 
L 95.13 26.38491 
L 95.955 26.38491 
L 96.78 26.38491 
L 97.605 26.38491 
L 98.43 26.38491 
L 99.255 26.38491 
L 100.08 26.38491 
L 100.905 26.38491 
L 101.73 26.38491 
L 102.555 26.38491 
L 103.38 26.38491 
L 104.205 26.38491 
L 105.03 26.38491 
L 105.855 26.38491 
L 106.68 26.38491 
L 107.505 26.38491 
L 108.33 26.38491 
L 109.155 26.38491 
L 109.98 26.38491 
L 110.805 26.38491 
L 111.63 26.38491 
L 112.455 26.38491 
L 113.28 26.38491 
L 114.105 26.38491 
L 114.93 26.38491 
L 115.755 26.38491 
L 116.58 26.38491 
L 117.405 26.38491 
L 118.23 26.38491 
L 119.055 26.38491 
L 119.88 26.38491 
L 120.705 26.38491 
L 121.53 26.38491 
L 122.355 26.38491 
L 123.18 26.38491 
L 124.005 26.38491 
L 124.83 26.38491 
L 125.655 26.38491 
L 126.48 26.38491 
L 127.305 26.38491 
L 128.13 26.38491 
L 128.955 26.38491 
L 129.78 26.38491 
L 130.605 26.38491 
L 131.43 26.38491 
L 132.255 26.38491 
L 133.08 26.38491 
L 133.905 26.38491 
L 134.73 26.38491 
L 135.555 26.38491 
L 136.38 26.38491 
L 137.205 26.38491 
L 138.03 26.38491 
L 138.855 26.38491 
L 139.68 26.38491 
L 140.505 26.38491 
L 141.33 26.38491 
L 142.155 26.38491 
" clip-path="url(#p693383c04c)" style="fill: none; stroke: #ffa500; stroke-width: 2; stroke-linecap: square"/>
   </g>
   <g id="line2d_14">
    <path d="M 50.58 46.70991 
L 51.405 42.15711 
L 52.23 42.15711 
L 53.055 40.85631 
L 53.88 37.11651 
L 54.705 37.11651 
L 55.53 37.11651 
L 56.355 37.11651 
L 57.18 37.11651 
L 58.005 37.11651 
L 58.83 37.11651 
L 59.655 37.11651 
L 60.48 36.71001 
L 61.305 36.71001 
L 62.13 36.71001 
L 62.955 36.71001 
L 63.78 36.71001 
L 64.605 36.71001 
L 65.43 36.71001 
L 66.255 33.78321 
L 67.08 33.78321 
L 67.905 33.78321 
L 68.73 33.78321 
L 69.555 33.78321 
L 70.38 33.78321 
L 71.205 33.78321 
L 72.03 33.78321 
L 72.855 33.78321 
L 73.68 33.78321 
L 74.505 33.78321 
L 75.33 33.78321 
L 76.155 33.78321 
L 76.98 33.78321 
L 77.805 32.72631 
L 78.63 32.72631 
L 79.455 32.72631 
L 80.28 32.72631 
L 81.105 32.56371 
L 81.93 32.56371 
L 82.755 32.56371 
L 83.58 32.56371 
L 84.405 32.56371 
L 85.23 32.56371 
L 86.055 32.56371 
L 86.88 32.56371 
L 87.705 32.56371 
L 88.53 32.56371 
L 89.355 32.56371 
L 90.18 32.56371 
L 91.005 32.56371 
L 91.83 32.56371 
L 92.655 32.56371 
L 93.48 32.56371 
L 94.305 32.56371 
L 95.13 32.56371 
L 95.955 32.56371 
L 96.78 32.56371 
L 97.605 32.56371 
L 98.43 32.56371 
L 99.255 32.56371 
L 100.08 32.56371 
L 100.905 32.56371 
L 101.73 32.56371 
L 102.555 32.56371 
L 103.38 32.56371 
L 104.205 32.56371 
L 105.03 32.56371 
L 105.855 32.56371 
L 106.68 32.56371 
L 107.505 32.56371 
L 108.33 32.56371 
L 109.155 32.56371 
L 109.98 32.56371 
L 110.805 32.56371 
L 111.63 32.56371 
L 112.455 32.56371 
L 113.28 32.56371 
L 114.105 32.56371 
L 114.93 32.56371 
L 115.755 32.56371 
L 116.58 32.56371 
L 117.405 32.56371 
L 118.23 32.56371 
L 119.055 32.56371 
L 119.88 32.56371 
L 120.705 32.56371 
L 121.53 32.56371 
L 122.355 32.56371 
L 123.18 32.56371 
L 124.005 32.56371 
L 124.83 32.56371 
L 125.655 32.56371 
L 126.48 32.56371 
L 127.305 32.56371 
L 128.13 32.56371 
L 128.955 32.56371 
L 129.78 32.56371 
L 130.605 32.56371 
L 131.43 32.56371 
L 132.255 32.56371 
L 133.08 32.56371 
L 133.905 32.56371 
L 134.73 32.56371 
L 135.555 32.56371 
L 136.38 32.56371 
L 137.205 32.56371 
L 138.03 32.56371 
L 138.855 32.56371 
L 139.68 32.56371 
L 140.505 32.56371 
L 141.33 32.56371 
L 142.155 32.56371 
" clip-path="url(#p693383c04c)" style="fill: none; stroke: #008000; stroke-width: 2; stroke-linecap: square"/>
   </g>
   <g id="line2d_15">
    <path d="M 50.58 75.65271 
L 51.405 73.21371 
L 52.23 73.13241 
L 53.055 44.92131 
L 53.88 43.94571 
L 54.705 40.69371 
L 55.53 40.69371 
L 56.355 40.69371 
L 57.18 40.69371 
L 58.005 40.69371 
L 58.83 40.69371 
L 59.655 40.04331 
L 60.48 40.04331 
L 61.305 39.06771 
L 62.13 25.65321 
L 62.955 25.65321 
L 63.78 25.65321 
L 64.605 25.65321 
L 65.43 25.65321 
L 66.255 25.65321 
L 67.08 25.65321 
L 67.905 25.65321 
L 68.73 25.65321 
L 69.555 25.65321 
L 70.38 25.65321 
L 71.205 25.65321 
L 72.03 25.65321 
L 72.855 25.65321 
L 73.68 25.65321 
L 74.505 25.65321 
L 75.33 25.65321 
L 76.155 25.65321 
L 76.98 25.65321 
L 77.805 25.65321 
L 78.63 25.65321 
L 79.455 25.65321 
L 80.28 25.65321 
L 81.105 25.65321 
L 81.93 25.65321 
L 82.755 25.65321 
L 83.58 25.65321 
L 84.405 25.65321 
L 85.23 25.65321 
L 86.055 25.65321 
L 86.88 25.65321 
L 87.705 25.65321 
L 88.53 25.65321 
L 89.355 25.65321 
L 90.18 25.65321 
L 91.005 25.65321 
L 91.83 25.65321 
L 92.655 25.65321 
L 93.48 25.65321 
L 94.305 25.65321 
L 95.13 25.65321 
L 95.955 25.65321 
L 96.78 25.65321 
L 97.605 25.65321 
L 98.43 25.65321 
L 99.255 25.65321 
L 100.08 25.65321 
L 100.905 25.65321 
L 101.73 25.65321 
L 102.555 25.65321 
L 103.38 25.65321 
L 104.205 25.65321 
L 105.03 25.65321 
L 105.855 25.65321 
L 106.68 25.65321 
L 107.505 25.65321 
L 108.33 25.65321 
L 109.155 25.65321 
L 109.98 25.65321 
L 110.805 25.65321 
L 111.63 25.65321 
L 112.455 25.65321 
L 113.28 25.65321 
L 114.105 25.65321 
L 114.93 25.65321 
L 115.755 25.65321 
L 116.58 25.65321 
L 117.405 25.65321 
L 118.23 25.65321 
L 119.055 25.65321 
L 119.88 25.65321 
L 120.705 25.65321 
L 121.53 25.65321 
L 122.355 25.65321 
L 123.18 25.65321 
L 124.005 25.65321 
L 124.83 25.65321 
L 125.655 25.65321 
L 126.48 25.65321 
L 127.305 25.65321 
L 128.13 25.65321 
L 128.955 25.65321 
L 129.78 25.65321 
L 130.605 25.65321 
L 131.43 25.65321 
L 132.255 25.65321 
L 133.08 25.65321 
L 133.905 25.65321 
L 134.73 25.65321 
L 135.555 25.65321 
L 136.38 25.65321 
L 137.205 25.65321 
L 138.03 25.65321 
L 138.855 25.65321 
L 139.68 25.65321 
L 140.505 25.65321 
L 141.33 25.65321 
L 142.155 25.65321 
" clip-path="url(#p693383c04c)" style="fill: none; stroke: #800080; stroke-width: 2; stroke-linecap: square"/>
   </g>
   <g id="line2d_16">
    <path d="M 50.58 63.086608 
L 51.405 58.006773 
L 52.23 54.346175 
L 53.055 52.199237 
L 53.88 51.666397 
L 54.705 51.666397 
L 55.53 51.067297 
L 56.355 50.409824 
L 57.18 49.630417 
L 58.005 49.546857 
L 58.83 49.452809 
L 59.655 48.820328 
L 60.48 48.356284 
L 61.305 48.356284 
L 62.13 47.714485 
L 62.955 47.484732 
L 63.78 47.340993 
L 64.605 47.223612 
L 65.43 47.149743 
L 66.255 46.06642 
L 67.08 46.060697 
L 67.905 46.060697 
L 68.73 45.834602 
L 69.555 45.709286 
L 70.38 45.696798 
L 71.205 45.652994 
L 72.03 45.589173 
L 72.855 45.500735 
L 73.68 45.500735 
L 74.505 45.20534 
L 75.33 45.136966 
L 76.155 44.736499 
L 76.98 44.704548 
L 77.805 44.257333 
L 78.63 44.062798 
L 79.455 43.817614 
L 80.28 43.743403 
L 81.105 43.737631 
L 81.93 43.608949 
L 82.755 43.595014 
L 83.58 43.523942 
L 84.405 43.523942 
L 85.23 43.512592 
L 86.055 43.496316 
L 86.88 43.350301 
L 87.705 43.265327 
L 88.53 43.265327 
L 89.355 43.117539 
L 90.18 42.853981 
L 91.005 42.853981 
L 91.83 42.781429 
L 92.655 42.594293 
L 93.48 42.546635 
L 94.305 42.417172 
L 95.13 42.361222 
L 95.955 42.361222 
L 96.78 42.361222 
L 97.605 42.361222 
L 98.43 42.361222 
L 99.255 42.361222 
L 100.08 42.361222 
L 100.905 42.361222 
L 101.73 42.313385 
L 102.555 42.280784 
L 103.38 42.177321 
L 104.205 42.159403 
L 105.03 42.159403 
L 105.855 42.159403 
L 106.68 42.14259 
L 107.505 42.113647 
L 108.33 42.105289 
L 109.155 42.05955 
L 109.98 42.022835 
L 110.805 42.022835 
L 111.63 42.022835 
L 112.455 42.002234 
L 113.28 42.002234 
L 114.105 41.952348 
L 114.93 41.952348 
L 115.755 41.952348 
L 116.58 41.952348 
L 117.405 41.952348 
L 118.23 41.952348 
L 119.055 41.952348 
L 119.88 41.807487 
L 120.705 41.634432 
L 121.53 41.478401 
L 122.355 41.478401 
L 123.18 41.478401 
L 124.005 41.478401 
L 124.83 41.478401 
L 125.655 41.478401 
L 126.48 41.458759 
L 127.305 41.432597 
L 128.13 41.432597 
L 128.955 41.432597 
L 129.78 41.232534 
L 130.605 41.232534 
L 131.43 41.232534 
L 132.255 41.232534 
L 133.08 41.232534 
L 133.905 41.232534 
L 134.73 41.232534 
L 135.555 41.232534 
L 136.38 41.232534 
L 137.205 41.178095 
L 138.03 41.178095 
L 138.855 41.178095 
L 139.68 41.178095 
L 140.505 41.175982 
L 141.33 41.175982 
L 142.155 41.175982 
L 142.98 41.175982 
" clip-path="url(#p693383c04c)" style="fill: none; stroke: #000000; stroke-width: 2; stroke-linecap: square"/>
   </g>
   <g id="patch_3">
    <path d="M 45.96 94.62 
L 45.96 13.32 
" style="fill: none; stroke: #000000; stroke-width: 0.5; stroke-linejoin: miter; stroke-linecap: square"/>
   </g>
   <g id="patch_4">
    <path d="M 147.6 94.62 
L 147.6 13.32 
" style="fill: none; stroke: #000000; stroke-width: 0.5; stroke-linejoin: miter; stroke-linecap: square"/>
   </g>
   <g id="patch_5">
    <path d="M 45.96 94.62 
L 147.6 94.62 
" style="fill: none; stroke: #000000; stroke-width: 0.5; stroke-linejoin: miter; stroke-linecap: square"/>
   </g>
   <g id="patch_6">
    <path d="M 45.96 13.32 
L 147.6 13.32 
" style="fill: none; stroke: #000000; stroke-width: 0.5; stroke-linejoin: miter; stroke-linecap: square"/>
   </g>
   <g id="legend_1">
    <g id="line2d_17">
     <path d="M 68.716875 51.330937 
L 74.716875 51.330937 
L 80.716875 51.330937 
" style="fill: none; stroke: #0000ff; stroke-width: 2; stroke-linecap: square"/>
    </g>
    <g id="text_14">
     <!-- Campaign 1 -->
     <g transform="translate(85.516875 53.430937) scale(0.06 -0.06)">
      <defs>
       <path id="ArialMT-43" d="M 3763 1606 
L 4369 1453 
Q 4178 706 3683 314 
Q 3188 -78 2472 -78 
Q 1731 -78 1267 223 
Q 803 525 561 1097 
Q 319 1669 319 2325 
Q 319 3041 592 3573 
Q 866 4106 1370 4382 
Q 1875 4659 2481 4659 
Q 3169 4659 3637 4309 
Q 4106 3959 4291 3325 
L 3694 3184 
Q 3534 3684 3231 3912 
Q 2928 4141 2469 4141 
Q 1941 4141 1586 3887 
Q 1231 3634 1087 3207 
Q 944 2781 944 2328 
Q 944 1744 1114 1308 
Q 1284 872 1643 656 
Q 2003 441 2422 441 
Q 2931 441 3284 734 
Q 3638 1028 3763 1606 
z
" transform="scale(0.015625)"/>
       <path id="ArialMT-61" d="M 2588 409 
Q 2275 144 1986 34 
Q 1697 -75 1366 -75 
Q 819 -75 525 192 
Q 231 459 231 875 
Q 231 1119 342 1320 
Q 453 1522 633 1644 
Q 813 1766 1038 1828 
Q 1203 1872 1538 1913 
Q 2219 1994 2541 2106 
Q 2544 2222 2544 2253 
Q 2544 2597 2384 2738 
Q 2169 2928 1744 2928 
Q 1347 2928 1158 2789 
Q 969 2650 878 2297 
L 328 2372 
Q 403 2725 575 2942 
Q 747 3159 1072 3276 
Q 1397 3394 1825 3394 
Q 2250 3394 2515 3294 
Q 2781 3194 2906 3042 
Q 3031 2891 3081 2659 
Q 3109 2516 3109 2141 
L 3109 1391 
Q 3109 606 3145 398 
Q 3181 191 3288 0 
L 2700 0 
Q 2613 175 2588 409 
z
M 2541 1666 
Q 2234 1541 1622 1453 
Q 1275 1403 1131 1340 
Q 988 1278 909 1158 
Q 831 1038 831 891 
Q 831 666 1001 516 
Q 1172 366 1500 366 
Q 1825 366 2078 508 
Q 2331 650 2450 897 
Q 2541 1088 2541 1459 
L 2541 1666 
z
" transform="scale(0.015625)"/>
       <path id="ArialMT-6d" d="M 422 0 
L 422 3319 
L 925 3319 
L 925 2853 
Q 1081 3097 1340 3245 
Q 1600 3394 1931 3394 
Q 2300 3394 2536 3241 
Q 2772 3088 2869 2813 
Q 3263 3394 3894 3394 
Q 4388 3394 4653 3120 
Q 4919 2847 4919 2278 
L 4919 0 
L 4359 0 
L 4359 2091 
Q 4359 2428 4304 2576 
Q 4250 2725 4106 2815 
Q 3963 2906 3769 2906 
Q 3419 2906 3187 2673 
Q 2956 2441 2956 1928 
L 2956 0 
L 2394 0 
L 2394 2156 
Q 2394 2531 2256 2718 
Q 2119 2906 1806 2906 
Q 1569 2906 1367 2781 
Q 1166 2656 1075 2415 
Q 984 2175 984 1722 
L 984 0 
L 422 0 
z
" transform="scale(0.015625)"/>
       <path id="ArialMT-70" d="M 422 -1272 
L 422 3319 
L 934 3319 
L 934 2888 
Q 1116 3141 1344 3267 
Q 1572 3394 1897 3394 
Q 2322 3394 2647 3175 
Q 2972 2956 3137 2557 
Q 3303 2159 3303 1684 
Q 3303 1175 3120 767 
Q 2938 359 2589 142 
Q 2241 -75 1856 -75 
Q 1575 -75 1351 44 
Q 1128 163 984 344 
L 984 -1272 
L 422 -1272 
z
M 931 1641 
Q 931 1000 1190 694 
Q 1450 388 1819 388 
Q 2194 388 2461 705 
Q 2728 1022 2728 1688 
Q 2728 2322 2467 2637 
Q 2206 2953 1844 2953 
Q 1484 2953 1207 2617 
Q 931 2281 931 1641 
z
" transform="scale(0.015625)"/>
       <path id="ArialMT-69" d="M 425 3934 
L 425 4581 
L 988 4581 
L 988 3934 
L 425 3934 
z
M 425 0 
L 425 3319 
L 988 3319 
L 988 0 
L 425 0 
z
" transform="scale(0.015625)"/>
       <path id="ArialMT-67" d="M 319 -275 
L 866 -356 
Q 900 -609 1056 -725 
Q 1266 -881 1628 -881 
Q 2019 -881 2231 -725 
Q 2444 -569 2519 -288 
Q 2563 -116 2559 434 
Q 2191 0 1641 0 
Q 956 0 581 494 
Q 206 988 206 1678 
Q 206 2153 378 2554 
Q 550 2956 876 3175 
Q 1203 3394 1644 3394 
Q 2231 3394 2613 2919 
L 2613 3319 
L 3131 3319 
L 3131 450 
Q 3131 -325 2973 -648 
Q 2816 -972 2473 -1159 
Q 2131 -1347 1631 -1347 
Q 1038 -1347 672 -1080 
Q 306 -813 319 -275 
z
M 784 1719 
Q 784 1066 1043 766 
Q 1303 466 1694 466 
Q 2081 466 2343 764 
Q 2606 1063 2606 1700 
Q 2606 2309 2336 2618 
Q 2066 2928 1684 2928 
Q 1309 2928 1046 2623 
Q 784 2319 784 1719 
z
" transform="scale(0.015625)"/>
       <path id="ArialMT-6e" d="M 422 0 
L 422 3319 
L 928 3319 
L 928 2847 
Q 1294 3394 1984 3394 
Q 2284 3394 2536 3286 
Q 2788 3178 2913 3003 
Q 3038 2828 3088 2588 
Q 3119 2431 3119 2041 
L 3119 0 
L 2556 0 
L 2556 2019 
Q 2556 2363 2490 2533 
Q 2425 2703 2258 2804 
Q 2091 2906 1866 2906 
Q 1506 2906 1245 2678 
Q 984 2450 984 1813 
L 984 0 
L 422 0 
z
" transform="scale(0.015625)"/>
       <path id="ArialMT-20" transform="scale(0.015625)"/>
       <path id="ArialMT-31" d="M 2384 0 
L 1822 0 
L 1822 3584 
Q 1619 3391 1289 3197 
Q 959 3003 697 2906 
L 697 3450 
Q 1169 3672 1522 3987 
Q 1875 4303 2022 4600 
L 2384 4600 
L 2384 0 
z
" transform="scale(0.015625)"/>
      </defs>
      <use xlink:href="#ArialMT-43"/>
      <use xlink:href="#ArialMT-61" x="72.216797"/>
      <use xlink:href="#ArialMT-6d" x="127.832031"/>
      <use xlink:href="#ArialMT-70" x="211.132812"/>
      <use xlink:href="#ArialMT-61" x="266.748047"/>
      <use xlink:href="#ArialMT-69" x="322.363281"/>
      <use xlink:href="#ArialMT-67" x="344.580078"/>
      <use xlink:href="#ArialMT-6e" x="400.195312"/>
      <use xlink:href="#ArialMT-20" x="455.810547"/>
      <use xlink:href="#ArialMT-31" x="483.59375"/>
     </g>
    </g>
    <g id="line2d_18">
     <path d="M 68.716875 59.961563 
L 74.716875 59.961563 
L 80.716875 59.961563 
" style="fill: none; stroke: #ffa500; stroke-width: 2; stroke-linecap: square"/>
    </g>
    <g id="text_15">
     <!-- Campaign 2 -->
     <g transform="translate(85.516875 62.061563) scale(0.06 -0.06)">
      <defs>
       <path id="ArialMT-32" d="M 3222 541 
L 3222 0 
L 194 0 
Q 188 203 259 391 
Q 375 700 629 1000 
Q 884 1300 1366 1694 
Q 2113 2306 2375 2664 
Q 2638 3022 2638 3341 
Q 2638 3675 2398 3904 
Q 2159 4134 1775 4134 
Q 1369 4134 1125 3890 
Q 881 3647 878 3216 
L 300 3275 
Q 359 3922 746 4261 
Q 1134 4600 1788 4600 
Q 2447 4600 2831 4234 
Q 3216 3869 3216 3328 
Q 3216 3053 3103 2787 
Q 2991 2522 2730 2228 
Q 2469 1934 1863 1422 
Q 1356 997 1212 845 
Q 1069 694 975 541 
L 3222 541 
z
" transform="scale(0.015625)"/>
      </defs>
      <use xlink:href="#ArialMT-43"/>
      <use xlink:href="#ArialMT-61" x="72.216797"/>
      <use xlink:href="#ArialMT-6d" x="127.832031"/>
      <use xlink:href="#ArialMT-70" x="211.132812"/>
      <use xlink:href="#ArialMT-61" x="266.748047"/>
      <use xlink:href="#ArialMT-69" x="322.363281"/>
      <use xlink:href="#ArialMT-67" x="344.580078"/>
      <use xlink:href="#ArialMT-6e" x="400.195312"/>
      <use xlink:href="#ArialMT-20" x="455.810547"/>
      <use xlink:href="#ArialMT-32" x="483.59375"/>
     </g>
    </g>
    <g id="line2d_19">
     <path d="M 68.716875 68.592188 
L 74.716875 68.592188 
L 80.716875 68.592188 
" style="fill: none; stroke: #008000; stroke-width: 2; stroke-linecap: square"/>
    </g>
    <g id="text_16">
     <!-- Campaign 3 -->
     <g transform="translate(85.516875 70.692188) scale(0.06 -0.06)">
      <defs>
       <path id="ArialMT-33" d="M 269 1209 
L 831 1284 
Q 928 806 1161 595 
Q 1394 384 1728 384 
Q 2125 384 2398 659 
Q 2672 934 2672 1341 
Q 2672 1728 2419 1979 
Q 2166 2231 1775 2231 
Q 1616 2231 1378 2169 
L 1441 2663 
Q 1497 2656 1531 2656 
Q 1891 2656 2178 2843 
Q 2466 3031 2466 3422 
Q 2466 3731 2256 3934 
Q 2047 4138 1716 4138 
Q 1388 4138 1169 3931 
Q 950 3725 888 3313 
L 325 3413 
Q 428 3978 793 4289 
Q 1159 4600 1703 4600 
Q 2078 4600 2393 4439 
Q 2709 4278 2876 4000 
Q 3044 3722 3044 3409 
Q 3044 3113 2884 2869 
Q 2725 2625 2413 2481 
Q 2819 2388 3044 2092 
Q 3269 1797 3269 1353 
Q 3269 753 2831 336 
Q 2394 -81 1725 -81 
Q 1122 -81 723 278 
Q 325 638 269 1209 
z
" transform="scale(0.015625)"/>
      </defs>
      <use xlink:href="#ArialMT-43"/>
      <use xlink:href="#ArialMT-61" x="72.216797"/>
      <use xlink:href="#ArialMT-6d" x="127.832031"/>
      <use xlink:href="#ArialMT-70" x="211.132812"/>
      <use xlink:href="#ArialMT-61" x="266.748047"/>
      <use xlink:href="#ArialMT-69" x="322.363281"/>
      <use xlink:href="#ArialMT-67" x="344.580078"/>
      <use xlink:href="#ArialMT-6e" x="400.195312"/>
      <use xlink:href="#ArialMT-20" x="455.810547"/>
      <use xlink:href="#ArialMT-33" x="483.59375"/>
     </g>
    </g>
    <g id="line2d_20">
     <path d="M 68.716875 77.222813 
L 74.716875 77.222813 
L 80.716875 77.222813 
" style="fill: none; stroke: #800080; stroke-width: 2; stroke-linecap: square"/>
    </g>
    <g id="text_17">
     <!-- Campaign 4 -->
     <g transform="translate(85.516875 79.322812) scale(0.06 -0.06)">
      <defs>
       <path id="ArialMT-34" d="M 2069 0 
L 2069 1097 
L 81 1097 
L 81 1613 
L 2172 4581 
L 2631 4581 
L 2631 1613 
L 3250 1613 
L 3250 1097 
L 2631 1097 
L 2631 0 
L 2069 0 
z
M 2069 1613 
L 2069 3678 
L 634 1613 
L 2069 1613 
z
" transform="scale(0.015625)"/>
      </defs>
      <use xlink:href="#ArialMT-43"/>
      <use xlink:href="#ArialMT-61" x="72.216797"/>
      <use xlink:href="#ArialMT-6d" x="127.832031"/>
      <use xlink:href="#ArialMT-70" x="211.132812"/>
      <use xlink:href="#ArialMT-61" x="266.748047"/>
      <use xlink:href="#ArialMT-69" x="322.363281"/>
      <use xlink:href="#ArialMT-67" x="344.580078"/>
      <use xlink:href="#ArialMT-6e" x="400.195312"/>
      <use xlink:href="#ArialMT-20" x="455.810547"/>
      <use xlink:href="#ArialMT-34" x="483.59375"/>
     </g>
    </g>
    <g id="line2d_21">
     <path d="M 68.716875 85.857188 
L 74.716875 85.857188 
L 80.716875 85.857188 
" style="fill: none; stroke: #000000; stroke-width: 2; stroke-linecap: square"/>
    </g>
    <g id="text_18">
     <!-- Dragonfly BO (mean) -->
     <g transform="translate(85.516875 87.957188) scale(0.06 -0.06)">
      <defs>
       <path id="ArialMT-44" d="M 494 0 
L 494 4581 
L 2072 4581 
Q 2606 4581 2888 4516 
Q 3281 4425 3559 4188 
Q 3922 3881 4101 3404 
Q 4281 2928 4281 2316 
Q 4281 1794 4159 1391 
Q 4038 988 3847 723 
Q 3656 459 3429 307 
Q 3203 156 2883 78 
Q 2563 0 2147 0 
L 494 0 
z
M 1100 541 
L 2078 541 
Q 2531 541 2789 625 
Q 3047 709 3200 863 
Q 3416 1078 3536 1442 
Q 3656 1806 3656 2325 
Q 3656 3044 3420 3430 
Q 3184 3816 2847 3947 
Q 2603 4041 2063 4041 
L 1100 4041 
L 1100 541 
z
" transform="scale(0.015625)"/>
       <path id="ArialMT-72" d="M 416 0 
L 416 3319 
L 922 3319 
L 922 2816 
Q 1116 3169 1280 3281 
Q 1444 3394 1641 3394 
Q 1925 3394 2219 3213 
L 2025 2691 
Q 1819 2813 1613 2813 
Q 1428 2813 1281 2702 
Q 1134 2591 1072 2394 
Q 978 2094 978 1738 
L 978 0 
L 416 0 
z
" transform="scale(0.015625)"/>
       <path id="ArialMT-6f" d="M 213 1659 
Q 213 2581 725 3025 
Q 1153 3394 1769 3394 
Q 2453 3394 2887 2945 
Q 3322 2497 3322 1706 
Q 3322 1066 3130 698 
Q 2938 331 2570 128 
Q 2203 -75 1769 -75 
Q 1072 -75 642 372 
Q 213 819 213 1659 
z
M 791 1659 
Q 791 1022 1069 705 
Q 1347 388 1769 388 
Q 2188 388 2466 706 
Q 2744 1025 2744 1678 
Q 2744 2294 2464 2611 
Q 2184 2928 1769 2928 
Q 1347 2928 1069 2612 
Q 791 2297 791 1659 
z
" transform="scale(0.015625)"/>
       <path id="ArialMT-66" d="M 556 0 
L 556 2881 
L 59 2881 
L 59 3319 
L 556 3319 
L 556 3672 
Q 556 4006 616 4169 
Q 697 4388 901 4523 
Q 1106 4659 1475 4659 
Q 1713 4659 2000 4603 
L 1916 4113 
Q 1741 4144 1584 4144 
Q 1328 4144 1222 4034 
Q 1116 3925 1116 3625 
L 1116 3319 
L 1763 3319 
L 1763 2881 
L 1116 2881 
L 1116 0 
L 556 0 
z
" transform="scale(0.015625)"/>
       <path id="ArialMT-6c" d="M 409 0 
L 409 4581 
L 972 4581 
L 972 0 
L 409 0 
z
" transform="scale(0.015625)"/>
       <path id="ArialMT-79" d="M 397 -1278 
L 334 -750 
Q 519 -800 656 -800 
Q 844 -800 956 -737 
Q 1069 -675 1141 -563 
Q 1194 -478 1313 -144 
Q 1328 -97 1363 -6 
L 103 3319 
L 709 3319 
L 1400 1397 
Q 1534 1031 1641 628 
Q 1738 1016 1872 1384 
L 2581 3319 
L 3144 3319 
L 1881 -56 
Q 1678 -603 1566 -809 
Q 1416 -1088 1222 -1217 
Q 1028 -1347 759 -1347 
Q 597 -1347 397 -1278 
z
" transform="scale(0.015625)"/>
       <path id="ArialMT-42" d="M 469 0 
L 469 4581 
L 2188 4581 
Q 2713 4581 3030 4442 
Q 3347 4303 3526 4014 
Q 3706 3725 3706 3409 
Q 3706 3116 3547 2856 
Q 3388 2597 3066 2438 
Q 3481 2316 3704 2022 
Q 3928 1728 3928 1328 
Q 3928 1006 3792 729 
Q 3656 453 3456 303 
Q 3256 153 2954 76 
Q 2653 0 2216 0 
L 469 0 
z
M 1075 2656 
L 2066 2656 
Q 2469 2656 2644 2709 
Q 2875 2778 2992 2937 
Q 3109 3097 3109 3338 
Q 3109 3566 3000 3739 
Q 2891 3913 2687 3977 
Q 2484 4041 1991 4041 
L 1075 4041 
L 1075 2656 
z
M 1075 541 
L 2216 541 
Q 2509 541 2628 563 
Q 2838 600 2978 687 
Q 3119 775 3209 942 
Q 3300 1109 3300 1328 
Q 3300 1584 3169 1773 
Q 3038 1963 2805 2039 
Q 2572 2116 2134 2116 
L 1075 2116 
L 1075 541 
z
" transform="scale(0.015625)"/>
       <path id="ArialMT-4f" d="M 309 2231 
Q 309 3372 921 4017 
Q 1534 4663 2503 4663 
Q 3138 4663 3647 4359 
Q 4156 4056 4423 3514 
Q 4691 2972 4691 2284 
Q 4691 1588 4409 1038 
Q 4128 488 3612 205 
Q 3097 -78 2500 -78 
Q 1853 -78 1343 234 
Q 834 547 571 1087 
Q 309 1628 309 2231 
z
M 934 2222 
Q 934 1394 1379 917 
Q 1825 441 2497 441 
Q 3181 441 3623 922 
Q 4066 1403 4066 2288 
Q 4066 2847 3877 3264 
Q 3688 3681 3323 3911 
Q 2959 4141 2506 4141 
Q 1863 4141 1398 3698 
Q 934 3256 934 2222 
z
" transform="scale(0.015625)"/>
       <path id="ArialMT-28" d="M 1497 -1347 
Q 1031 -759 709 28 
Q 388 816 388 1659 
Q 388 2403 628 3084 
Q 909 3875 1497 4659 
L 1900 4659 
Q 1522 4009 1400 3731 
Q 1209 3300 1100 2831 
Q 966 2247 966 1656 
Q 966 153 1900 -1347 
L 1497 -1347 
z
" transform="scale(0.015625)"/>
       <path id="ArialMT-65" d="M 2694 1069 
L 3275 997 
Q 3138 488 2766 206 
Q 2394 -75 1816 -75 
Q 1088 -75 661 373 
Q 234 822 234 1631 
Q 234 2469 665 2931 
Q 1097 3394 1784 3394 
Q 2450 3394 2872 2941 
Q 3294 2488 3294 1666 
Q 3294 1616 3291 1516 
L 816 1516 
Q 847 969 1125 678 
Q 1403 388 1819 388 
Q 2128 388 2347 550 
Q 2566 713 2694 1069 
z
M 847 1978 
L 2700 1978 
Q 2663 2397 2488 2606 
Q 2219 2931 1791 2931 
Q 1403 2931 1139 2672 
Q 875 2413 847 1978 
z
" transform="scale(0.015625)"/>
       <path id="ArialMT-29" d="M 791 -1347 
L 388 -1347 
Q 1322 153 1322 1656 
Q 1322 2244 1188 2822 
Q 1081 3291 891 3722 
Q 769 4003 388 4659 
L 791 4659 
Q 1378 3875 1659 3084 
Q 1900 2403 1900 1659 
Q 1900 816 1576 28 
Q 1253 -759 791 -1347 
z
" transform="scale(0.015625)"/>
      </defs>
      <use xlink:href="#ArialMT-44"/>
      <use xlink:href="#ArialMT-72" x="72.216797"/>
      <use xlink:href="#ArialMT-61" x="105.517578"/>
      <use xlink:href="#ArialMT-67" x="161.132812"/>
      <use xlink:href="#ArialMT-6f" x="216.748047"/>
      <use xlink:href="#ArialMT-6e" x="272.363281"/>
      <use xlink:href="#ArialMT-66" x="327.978516"/>
      <use xlink:href="#ArialMT-6c" x="355.761719"/>
      <use xlink:href="#ArialMT-79" x="377.978516"/>
      <use xlink:href="#ArialMT-20" x="427.978516"/>
      <use xlink:href="#ArialMT-42" x="455.761719"/>
      <use xlink:href="#ArialMT-4f" x="522.460938"/>
      <use xlink:href="#ArialMT-20" x="600.244141"/>
      <use xlink:href="#ArialMT-28" x="628.027344"/>
      <use xlink:href="#ArialMT-6d" x="661.328125"/>
      <use xlink:href="#ArialMT-65" x="744.628906"/>
      <use xlink:href="#ArialMT-61" x="800.244141"/>
      <use xlink:href="#ArialMT-6e" x="855.859375"/>
      <use xlink:href="#ArialMT-29" x="911.474609"/>
     </g>
    </g>
   </g>
  </g>
 </g>
 <defs>
  <clipPath id="p693383c04c">
   <rect x="45.96" y="13.32" width="101.64" height="81.3"/>
  </clipPath>
 </defs>
</svg>
